SplineFontDB: 3.0
FontName: VanSolfa
FullName: VanSolfa
FamilyName: VanSolfa
Weight: Book
Copyright: Copyright (c) 2013 by Vanlalhriata. All rights reserved\n\nPermission is hereby granted to any person obtaining the font accompanying this license to use the font in commercial products; copy, distribute and modify the font provided the following conditions are met:\n\n1. This license shall be included in every unmodified copy of this font\n\n2. Any derivative of this font, original or modified, shall not be sold as a separate Font Software.\n\n3. Any modified copy of this font must not include the letter combination "van" in the name of the font
Version: 
ItalicAngle: 0
UnderlinePosition: -73.728
UnderlineWidth: 65.536
Ascent: 778
Descent: 246
LayerCount: 2
Layer: 0 0 "Back"  1
Layer: 1 0 "Fore"  0
NeedsXUIDChange: 1
XUID: [1021 939 1839761920 13207207]
UniqueID: 4017069
FSType: 4
OS2Version: 2
OS2_WeightWidthSlopeOnly: 0
OS2_UseTypoMetrics: 1
CreationTime: 1153642332
ModificationTime: 1365802649
PfmFamily: 17
TTFWeight: 400
TTFWidth: 5
LineGap: 99
VLineGap: 0
Panose: 2 6 6 3 5 6 5 2 2 4
OS2TypoAscent: 0
OS2TypoAOffset: 1
OS2TypoDescent: 0
OS2TypoDOffset: 1
OS2TypoLinegap: 0
OS2WinAscent: 0
OS2WinAOffset: 1
OS2WinDescent: 0
OS2WinDOffset: 1
HheadAscent: 0
HheadAOffset: 1
HheadDescent: 0
HheadDOffset: 1
OS2SubXSize: 675
OS2SubYSize: 613
OS2SubXOff: 0
OS2SubYOff: -222
OS2SupXSize: 675
OS2SupYSize: 613
OS2SupXOff: 0
OS2SupYOff: 297
OS2StrikeYSize: 66
OS2StrikeYPos: 306
OS2FamilyClass: 1282
OS2Vendor: 'Bits'
OS2CodePages: 00000011.81d40000
OS2UnicodeRanges: 8000002f.4000004a.00000000.00000000
Lookup: 4 0 1 "'liga' Standard Ligatures in Latin lookup 0"  {"'liga' Standard Ligatures in Latin lookup 0 subtable"  } ['liga' ('latn' <'dflt' > ) ]
MarkAttachClasses: 1
DEI: 91125

StartChar: .notdef
Encoding: 256 -1 0
Width: 614
Flags: HMW
HStem: -181 57<97 415 97 461> 665 57<97 415 97 97>
VStem: 51 46<-124 -124 -124 665> 415 46<-124 665 665 665>
LayerCount: 2
Fore
SplineSet
51 -181 m 1
 51 722 l 1
 461 722 l 1
 461 -181 l 1
 51 -181 l 1
97 -124 m 1
 415 -124 l 1
 415 665 l 1
 97 665 l 1
 97 -124 l 1
EndSplineSet
Validated: 1
EndChar

StartChar: exclam
Encoding: 33 33 2
Width: 614
GlyphClass: 2
Flags: HMW
HStem: 726 20G<154 257 257 257>
VStem: 181 49<210 336 210 336>
LayerCount: 2
Fore
SplineSet
152 52 m 0
 152 70 158 86 168 99 c 0
 178 112 191 119 205 119 c 0
 219 119 233 112 243 99 c 0
 253 86 259 70 259 52 c 0
 259 34 253 18 243 5 c 0
 233 -8 219 -14 205 -14 c 0
 191 -14 178 -8 168 5 c 1
 158 17 152 34 152 52 c 0
154 746 m 1
 257 746 l 1
 230 336 l 1
 230 210 l 1
 181 210 l 1
 181 336 l 1
 154 746 l 1
EndSplineSet
Validated: 1
EndChar

StartChar: quotedbl
Encoding: 34 34 3
Width: 614
GlyphClass: 2
Flags: HMW
HStem: 726 20G<115 180 180 180 268 332 332 332>
VStem: 115 63<469 746 469 746> 268 63<469 746 469 746>
LayerCount: 2
Fore
SplineSet
180 746 m 1
 180 469 l 1
 115 469 l 1
 115 746 l 1
 180 746 l 1
332 746 m 1
 332 469 l 1
 268 469 l 1
 268 746 l 1
 332 746 l 1
EndSplineSet
Validated: 1
EndChar

StartChar: numbersign
Encoding: 35 35 4
Width: 614
GlyphClass: 2
Flags: HMW
HStem: 0 22G<86 149 86 86 247 312 247 247> 207 77<24 128 24 143 207 289 24 191 369 469> 451 77<70 177 70 191 70 240 255 339 417 515>
LayerCount: 2
Fore
SplineSet
297 735 m 1
 255 527 l 1
 353 527 l 1
 395 735 l 1
 459 735 l 1
 417 527 l 1
 515 527 l 1
 515 451 l 1
 402 451 l 1
 369 284 l 1
 469 284 l 1
 469 207 l 1
 353 207 l 1
 312 0 l 1
 247 0 l 1
 289 207 l 1
 191 207 l 1
 149 0 l 1
 86 0 l 1
 128 207 l 1
 24 207 l 1
 24 284 l 1
 143 284 l 1
 177 451 l 1
 70 451 l 1
 70 527 l 1
 191 527 l 1
 233 735 l 1
 297 735 l 1
339 451 m 1
 240 451 l 1
 207 284 l 1
 305 284 l 1
 339 451 l 1
EndSplineSet
Validated: 1
EndChar

StartChar: dollar
Encoding: 36 36 5
Width: 614
GlyphClass: 2
Flags: HMW
HStem: -15 49<226 226> 758 20G<226 266 266 266>
VStem: 60 80<480 487> 61 43<36 174 174 174> 226 40<-151 -15 -151 -15 34 260 384 594 644 778> 359 84<147 156> 373 43<464 595>
LayerCount: 2
Fore
SplineSet
266 34 m 1xcc
 297 37 321 49 336 67 c 0
 352 85 359 109 359 141 c 0
 359 170 352 195 336 214 c 1
 321 234 297 250 266 260 c 1
 266 34 l 1xcc
226 594 m 1
 199 591 177 581 162 564 c 0
 147 546 139 524 139 494 c 0xe8
 139 467 146 444 160 427 c 0
 174 410 196 395 226 384 c 1
 226 594 l 1
61 36 m 1xdc
 61 174 l 1
 104 174 l 1xdc
 105 128 116 95 136 71 c 0
 155 47 186 35 226 34 c 1
 226 276 l 1
 165 298 123 322 97 350 c 0
 72 378 60 415 60 461 c 0xe8
 60 514 74 557 104 590 c 0
 133 622 174 640 226 644 c 1
 226 778 l 1
 266 778 l 1
 266 644 l 1
 293 641 318 636 344 628 c 0
 369 620 393 608 417 595 c 1
 417 464 l 1
 373 464 l 1xda
 370 503 359 533 341 555 c 1
 323 578 297 591 266 594 c 1
 266 368 l 1
 332 345 377 320 404 291 c 0
 431 262 443 223 443 175 c 0
 443 120 428 76 397 42 c 0
 366 8 322 -10 266 -15 c 1
 266 -151 l 1
 226 -151 l 1
 226 -15 l 1
 200 -14 174 -10 147 -2 c 0
 119 7 91 20 61 36 c 1xdc
EndSplineSet
Validated: 1
EndChar

StartChar: percent
Encoding: 37 37 6
Width: 614
GlyphClass: 2
Flags: HMW
HStem: -14 37 274 36 434 36 723 37<148 166>
VStem: 53 48<578 616 578 623> 213 48<578 616> 250 48<128 168 128 173> 410 48<128 168>
LayerCount: 2
Fore
SplineSet
158 723 m 0xfd
 141 723 127 712 117 689 c 0
 107 666 101 636 101 597 c 0
 101 558 107 527 117 504 c 1
 127 481 141 471 158 471 c 0
 175 471 188 481 198 504 c 0
 208 527 213 558 213 597 c 0
 213 636 208 666 198 689 c 0
 188 712 175 723 158 723 c 0xfd
354 274 m 0
 337 274 323 265 313 242 c 0
 303 219 298 187 298 147 c 0xfb
 298 108 303 79 313 56 c 1
 323 33 337 23 354 23 c 0
 371 23 384 33 394 56 c 0
 404 79 410 108 410 147 c 0
 410 186 404 219 394 242 c 0
 384 265 371 274 354 274 c 0
354 311 m 0
 386 311 411 296 430 266 c 0
 448 236 458 197 458 147 c 0
 458 97 448 59 429 29 c 0
 411 0 386 -14 354 -14 c 0
 322 -14 297 0 279 29 c 0
 260 59 250 97 250 147 c 0
 250 197 260 237 279 266 c 1
 297 296 322 311 354 311 c 0
417 760 m 1
 477 760 l 1
 103 0 l 1
 43 0 l 1
 417 760 l 1
157 760 m 0
 189 760 214 746 232 717 c 0
 251 687 261 648 261 598 c 0xfd
 261 547 251 508 232 478 c 0
 214 449 189 434 157 434 c 0
 125 434 99 449 81 479 c 0
 63 508 53 548 53 598 c 0
 53 647 63 687 82 716 c 1
 100 746 125 760 157 760 c 0
EndSplineSet
Validated: 1
EndChar

StartChar: ampersand
Encoding: 38 38 7
Width: 614
GlyphClass: 2
Flags: HMW
HStem: -14 60<209 228> 0 53<464 491 464 491> 371 53<409 435 409 495 472 472 472 495> 707 53<225 245 216 248>
VStem: 34 65 102 61 317 36
LayerCount: 2
Fore
SplineSet
341 116 m 1xbe
 155 422 l 1
 137 396 122 368 113 338 c 0
 104 307 100 276 100 242 c 0
 100 187 111 139 136 102 c 0
 161 64 191 46 228 46 c 0
 250 46 270 52 289 63 c 0
 308 75 326 93 341 116 c 1xbe
491 0 m 1x7e
 411 0 l 1x7e
 367 73 l 1
 344 43 321 21 296 7 c 0
 270 -7 243 -14 213 -14 c 0xbe
 158 -14 115 7 83 51 c 0
 50 95 34 155 34 230 c 0
 34 274 43 316 59 354 c 0
 75 393 99 429 132 463 c 1
 122 483 113 504 109 523 c 0
 104 543 102 565 102 587 c 0
 102 640 113 682 138 714 c 0
 163 745 196 760 238 760 c 0
 252 760 268 757 287 752 c 0
 306 746 328 737 353 726 c 1
 353 597 l 1
 317 597 l 1
 314 633 305 660 292 679 c 0
 279 697 260 707 236 707 c 0
 213 707 196 697 183 678 c 0
 170 660 162 635 162 605 c 0
 162 585 166 564 173 544 c 0
 180 525 195 496 218 458 c 2
 383 185 l 1
 397 212 410 240 418 271 c 0
 426 302 433 336 435 371 c 1
 409 371 l 1
 409 424 l 1
 495 424 l 1
 495 371 l 1
 472 371 l 1
 469 327 462 287 452 249 c 0
 442 211 426 176 409 144 c 1
 464 53 l 1
 491 53 l 1
 491 0 l 1x7e
EndSplineSet
Validated: 1
EndChar

StartChar: quotesingle
Encoding: 39 39 8
Width: 614
GlyphClass: 2
Flags: HMW
HStem: 726 20G<167 230 230 230>
VStem: 167 63<469 746 469 746>
LayerCount: 2
Fore
SplineSet
230 746 m 1
 230 469 l 1
 167 469 l 1
 167 746 l 1
 230 746 l 1
EndSplineSet
Validated: 1
EndChar

StartChar: parenleft
Encoding: 40 40 9
Width: 614
GlyphClass: 2
Flags: HMW
VStem: 122 81<251 367 251 369>
LayerCount: 2
Fore
SplineSet
319 -160 m 1
 254 -123 205 -66 172 13 c 0
 138 92 122 190 122 309 c 0
 122 428 138 526 172 605 c 0
 205 684 254 741 319 778 c 1
 319 729 l 1
 278 693 249 645 231 580 c 0
 213 515 203 425 203 309 c 0
 203 192 213 104 231 39 c 0
 249 -26 278 -75 319 -111 c 1
 319 -160 l 1
EndSplineSet
Validated: 1
EndChar

StartChar: parenright
Encoding: 41 41 10
Width: 614
GlyphClass: 2
Flags: HMW
VStem: 238 81<251 367>
LayerCount: 2
Fore
SplineSet
122 -160 m 1
 122 -111 l 1
 163 -75 192 -26 210 39 c 0
 228 104 238 192 238 309 c 0
 238 425 228 515 210 580 c 0
 192 645 163 693 122 729 c 1
 122 778 l 1
 187 741 236 684 269 605 c 0
 303 526 319 428 319 309 c 0
 319 190 303 92 269 13 c 0
 236 -66 187 -123 122 -160 c 1
EndSplineSet
Validated: 1
EndChar

StartChar: asterisk
Encoding: 42 42 11
Width: 614
GlyphClass: 2
Flags: HMW
HStem: 739 20G<225 278 278 278>
VStem: 229 44<484 484>
LayerCount: 2
Fore
SplineSet
443 618 m 1
 286 527 l 1
 443 435 l 1
 413 376 l 1
 274 484 l 1
 278 294 l 1
 225 294 l 1
 229 484 l 1
 90 376 l 1
 60 435 l 1
 217 526 l 1
 60 618 l 1
 90 678 l 1
 229 569 l 1
 225 760 l 1
 278 760 l 1
 274 569 l 1
 413 678 l 1
 443 618 l 1
EndSplineSet
Validated: 1
EndChar

StartChar: plus
Encoding: 43 43 12
Width: 614
GlyphClass: 2
Flags: HMW
HStem: 279 85<47 224 47 224 292 469 47 292>
VStem: 224 68<56 279 56 279 364 586>
LayerCount: 2
Fore
SplineSet
292 586 m 1
 292 364 l 1
 469 364 l 1
 469 279 l 1
 292 279 l 1
 292 56 l 1
 224 56 l 1
 224 279 l 1
 47 279 l 1
 47 364 l 1
 224 364 l 1
 224 586 l 1
 292 586 l 1
EndSplineSet
Validated: 1
EndChar

StartChar: comma
Encoding: 44 44 13
Width: 614
GlyphClass: 2
Flags: HMW
VStem: 210 79<95 114 114 114>
LayerCount: 2
Fore
SplineSet
137 -99 m 1
 163 -76 181 -49 193 -18 c 1
 204 14 210 50 210 95 c 2
 210 114 l 1
 289 114 l 1
 287 57 275 7 257 -33 c 0
 238 -74 208 -109 169 -139 c 1
 137 -99 l 1
EndSplineSet
Validated: 1
EndChar

StartChar: hyphen
Encoding: 45 45 14
Width: 614
GlyphClass: 2
Flags: HMW
HStem: 240 82<118 327 118 327>
LayerCount: 2
Fore
SplineSet
118 322 m 1
 327 322 l 1
 327 240 l 1
 118 240 l 1
 118 322 l 1
EndSplineSet
Validated: 1
EndChar

StartChar: period
Encoding: 46 46 15
Width: 614
GlyphClass: 2
Flags: HW
LayerCount: 2
Fore
SplineSet
152 52 m 0
 152 70 158 86 168 99 c 0
 178 112 191 119 205 119 c 0
 219 119 233 112 243 99 c 0
 253 86 259 70 259 52 c 0
 259 34 253 18 243 5 c 0
 233 -8 219 -14 205 -14 c 0
 191 -14 178 -8 168 5 c 1
 158 17 152 34 152 52 c 0
EndSplineSet
Validated: 1
EndChar

StartChar: slash
Encoding: 47 47 16
Width: 614
GlyphClass: 2
Flags: HMW
HStem: 726 20G<372 448 448 448>
LayerCount: 2
Fore
SplineSet
372 746 m 1
 448 746 l 1
 133 -95 l 1
 58 -95 l 1
 372 746 l 1
EndSplineSet
Validated: 1
EndChar

StartChar: zero
Encoding: 48 48 17
Width: 614
GlyphClass: 2
Flags: HMW
HStem: -14 49<233 271 233 282> 711 49<233 271>
VStem: 60 79 365 79
LayerCount: 2
Fore
SplineSet
199 375 m 0
 199 393 204 409 214 422 c 0
 224 435 237 442 251 442 c 0
 265 442 279 435 289 422 c 0
 299 409 305 393 305 375 c 0
 305 357 300 341 290 328 c 0
 280 315 266 308 251 308 c 0
 236 308 223 316 213 328 c 0
 203 340 199 356 199 375 c 0
251 35 m 0
 289 35 318 64 337 119 c 1
 355 175 365 259 365 373 c 0
 365 486 355 571 337 627 c 0
 318 683 289 711 251 711 c 0
 213 711 185 683 166 627 c 0
 147 571 139 486 139 373 c 0
 139 259 147 175 166 119 c 0
 185 64 213 35 251 35 c 0
251 -14 m 0
 191 -14 145 19 111 87 c 0
 77 156 60 251 60 373 c 0
 60 495 77 589 111 658 c 0
 145 726 191 760 251 760 c 0
 311 760 359 726 393 658 c 0
 427 589 444 495 444 373 c 0
 444 251 427 156 393 87 c 0
 359 19 311 -14 251 -14 c 0
EndSplineSet
Validated: 1
EndChar

StartChar: one
Encoding: 49 49 18
Width: 614
GlyphClass: 2
Flags: HMW
HStem: 0 53<102 207 102 207 287 391> 739 20G<232 287 287 287>
VStem: 207 80<53 674 674 674>
LayerCount: 2
Fore
SplineSet
102 0 m 1
 102 53 l 1
 207 53 l 1
 207 674 l 1
 86 577 l 1
 86 642 l 1
 232 760 l 1
 287 760 l 1
 287 53 l 1
 391 53 l 1
 391 0 l 1
 102 0 l 1
EndSplineSet
Validated: 1
EndChar

StartChar: two
Encoding: 50 50 19
Width: 614
GlyphClass: 2
Flags: HMW
HStem: 0 82<149 396 149 442> 711 49<221 251>
VStem: 65 45<568 701> 351 84<526 575> 396 46<82 174 0 174>
LayerCount: 2
Fore
SplineSet
109 568 m 1xf0
 65 568 l 1
 65 701 l 1
 94 720 121 735 150 745 c 1
 180 754 206 760 234 760 c 0
 295 760 344 741 380 703 c 0
 416 665 433 615 433 550 c 0xf0
 433 477 393 390 312 288 c 2
 298 270 l 1
 149 82 l 1
 396 82 l 1
 396 174 l 1
 442 174 l 1
 442 0 l 1xe8
 61 0 l 1
 61 54 l 1
 240 281 l 2
 280 331 308 377 325 418 c 1
 341 460 351 504 351 550 c 0
 351 600 341 640 319 668 c 1
 299 697 271 711 234 711 c 0
 196 711 166 699 146 675 c 0
 124 651 112 615 109 568 c 1xf0
EndSplineSet
Validated: 1
EndChar

StartChar: three
Encoding: 51 51 20
Width: 614
GlyphClass: 2
Flags: HMW
HStem: -14 49<217 252 213 264> 379 51<187 206 206 222 187 206> 711 49<227 249>
VStem: 65 42 80 42 336 76 356 79
LayerCount: 2
Fore
SplineSet
80 715 m 1xec
 109 730 137 741 164 749 c 0
 191 756 216 760 239 760 c 0
 293 760 335 745 366 713 c 0
 397 681 412 638 412 582 c 0xec
 412 537 400 499 380 469 c 0
 358 438 330 418 291 408 c 1
 337 399 370 377 396 341 c 0
 422 305 434 258 434 202 c 0
 434 132 417 79 382 41 c 0
 348 4 297 -14 231 -14 c 0
 202 -14 175 -10 146 -2 c 0
 118 6 93 20 65 36 c 1
 65 181 l 1
 106 181 l 1
 108 133 120 97 142 72 c 0
 165 47 193 35 233 35 c 0
 271 35 301 50 324 79 c 0
 347 109 356 150 356 201 c 0xf2
 356 259 346 303 323 334 c 1
 300 364 265 379 222 379 c 2
 187 379 l 1
 187 430 l 1
 206 430 l 2
 249 430 281 442 303 466 c 0
 326 491 336 526 336 575 c 0
 336 619 326 652 309 676 c 0
 292 700 266 711 232 711 c 0
 198 711 173 699 155 679 c 0
 136 657 125 626 122 584 c 1
 80 584 l 1
 80 715 l 1xec
EndSplineSet
Validated: 1
EndChar

StartChar: four
Encoding: 52 52 21
Width: 614
GlyphClass: 2
Flags: HMW
HStem: 0 53<249 304 384 440 249 304> 200 53<101 304 101 304 384 474> 739 20G<305 384 384 384>
VStem: 304 80<53 200 53 200 253 650 650 650>
LayerCount: 2
Fore
SplineSet
304 253 m 1
 304 650 l 1
 101 253 l 1
 304 253 l 1
440 0 m 1
 249 0 l 1
 249 53 l 1
 304 53 l 1
 304 200 l 1
 44 200 l 1
 44 254 l 1
 305 760 l 1
 384 760 l 1
 384 253 l 1
 474 253 l 1
 474 200 l 1
 384 200 l 1
 384 53 l 1
 440 53 l 1
 440 0 l 1
EndSplineSet
Validated: 1
EndChar

StartChar: five
Encoding: 53 53 22
Width: 614
GlyphClass: 2
Flags: HMW
HStem: -14 49<218 251 213 263> 437 49<226 252> 665 82<132 406 132 132>
VStem: 63 45<36 181 181 181> 89 43 355 80
LayerCount: 2
Fore
SplineSet
406 746 m 1xec
 406 665 l 1
 132 665 l 1
 132 451 l 1xec
 146 463 161 471 178 477 c 0
 195 483 216 486 238 486 c 0
 299 486 347 464 383 420 c 1
 418 375 436 314 436 237 c 0
 436 158 418 96 382 52 c 0
 346 7 296 -14 231 -14 c 0
 204 -14 180 -10 152 -2 c 0
 124 6 94 20 63 36 c 1
 63 181 l 1
 109 181 l 1xf4
 111 134 124 98 144 73 c 0
 166 47 194 35 231 35 c 0
 271 35 302 52 324 87 c 0
 346 122 355 171 355 237 c 0
 355 302 346 351 324 385 c 0
 302 420 272 437 231 437 c 0
 208 437 188 432 171 421 c 1
 154 411 138 395 124 372 c 1
 89 372 l 1
 89 746 l 1
 406 746 l 1xec
EndSplineSet
Validated: 1
EndChar

StartChar: six
Encoding: 54 54 23
Width: 614
GlyphClass: 2
Flags: HMW
HStem: -14 49<239 275 239 283> 436 49<253 275> 711 49<256 294>
VStem: 59 77 366 79 373 42
LayerCount: 2
Fore
SplineSet
257 35 m 0xf8
 292 35 319 52 338 87 c 0
 357 121 366 171 366 236 c 0
 366 301 357 350 338 384 c 0
 319 419 292 436 257 436 c 0
 222 436 195 420 177 386 c 0
 158 352 148 304 148 242 c 0
 148 175 158 124 177 88 c 0
 196 53 222 35 257 35 c 0xf8
136 411 m 1
 152 437 171 455 193 467 c 0
 215 479 239 485 266 485 c 0
 321 485 365 463 397 419 c 0
 429 374 445 314 445 236 c 0xf8
 445 160 428 99 393 53 c 0
 359 8 313 -14 255 -14 c 0
 193 -14 143 18 109 80 c 0
 75 142 59 232 59 349 c 0
 59 479 79 580 119 652 c 0
 159 724 214 760 287 760 c 0
 306 760 328 758 350 753 c 0
 373 748 392 740 415 730 c 1
 415 607 l 1
 373 607 l 1xf4
 370 641 361 667 345 684 c 0
 329 701 308 711 280 711 c 0
 232 711 197 686 173 637 c 0
 149 588 137 513 136 411 c 1
EndSplineSet
Validated: 1
EndChar

StartChar: seven
Encoding: 55 55 24
Width: 614
GlyphClass: 2
Flags: HMW
HStem: 0 22G<158 215 158 158> 665 82<107 369 107 107>
VStem: 63 44
LayerCount: 2
Fore
SplineSet
437 695 m 1
 215 0 l 1
 158 0 l 1
 369 665 l 1
 107 665 l 1
 107 572 l 1
 63 572 l 1
 63 746 l 1
 437 746 l 1
 437 695 l 1
EndSplineSet
Validated: 1
EndChar

StartChar: eight
Encoding: 56 56 25
Width: 614
GlyphClass: 2
Flags: HMW
HStem: -14 49<234 271 234 283> 373 49<237 268 237 271> 711 49<237 268>
VStem: 59 79 77 76 351 76 366 79
LayerCount: 2
Fore
SplineSet
366 204 m 0xf2
 366 257 356 299 336 329 c 0
 316 358 288 373 252 373 c 0
 216 373 188 358 168 329 c 0
 148 299 139 257 139 204 c 0
 139 151 148 109 168 79 c 0
 188 50 216 35 252 35 c 0
 288 35 316 50 336 79 c 0
 356 109 366 151 366 204 c 0xf2
351 566 m 0xec
 351 611 342 647 325 673 c 0
 308 698 283 711 252 711 c 0
 221 711 197 698 180 673 c 0
 163 647 154 611 154 566 c 0
 154 521 163 486 180 460 c 0
 197 434 221 422 252 422 c 0
 283 422 308 434 325 460 c 0
 342 486 351 521 351 566 c 0xec
310 397 m 1
 352 390 385 369 409 335 c 0
 433 301 446 257 446 204 c 0
 446 134 429 80 396 42 c 0
 363 4 314 -14 252 -14 c 0
 190 -14 143 4 109 42 c 0
 76 80 59 134 59 204 c 0xf2
 59 257 71 301 95 335 c 0
 119 369 153 390 195 397 c 1
 157 406 128 426 108 455 c 0
 88 485 77 521 77 566 c 0
 77 626 92 674 123 709 c 1
 155 743 198 760 252 760 c 0
 306 760 349 743 380 709 c 0
 412 674 427 626 427 566 c 0
 427 521 417 485 397 455 c 1
 377 426 348 406 310 397 c 1
EndSplineSet
Validated: 1
EndChar

StartChar: nine
Encoding: 57 57 26
Width: 614
GlyphClass: 2
Flags: HMW
HStem: -14 49<210 247 210 253> 260 49<229 251> 711 49<229 264>
VStem: 59 79 88 42 367 77
LayerCount: 2
Fore
SplineSet
367 335 m 1xec
 351 309 333 291 311 279 c 0
 288 267 264 260 237 260 c 0
 182 260 139 283 107 327 c 0
 75 372 59 433 59 510 c 0xf4
 59 586 77 646 111 692 c 1
 146 737 192 760 250 760 c 0
 312 760 360 729 394 666 c 0
 428 604 445 513 445 396 c 0
 445 266 425 165 385 93 c 0
 345 21 289 -14 216 -14 c 0
 197 -14 176 -12 154 -7 c 0
 132 -2 111 5 88 15 c 1
 88 139 l 1
 130 139 l 1
 133 105 143 79 159 62 c 0
 175 44 196 35 224 35 c 0
 272 35 307 60 331 109 c 0
 355 157 366 233 367 335 c 1xec
246 711 m 0
 211 711 184 693 166 658 c 1
 147 624 138 575 138 510 c 0
 138 445 147 395 166 361 c 1
 184 326 211 309 246 309 c 0
 281 309 309 325 327 359 c 0
 346 393 355 442 355 504 c 0
 355 571 346 621 327 657 c 0
 308 692 281 711 246 711 c 0
EndSplineSet
Validated: 1
EndChar

StartChar: colon
Encoding: 58 58 27
Width: 614
GlyphClass: 2
Flags: HMW
VStem: 152 106<43 61 369 387>
LayerCount: 2
Fore
SplineSet
152 52 m 0
 152 70 158 86 168 99 c 0
 178 112 191 119 205 119 c 0
 219 119 233 112 243 99 c 0
 253 86 259 70 259 52 c 0
 259 34 253 17 243 5 c 1
 233 -8 220 -14 205 -14 c 0
 190 -14 178 -8 168 5 c 1
 158 17 152 34 152 52 c 0
152 378 m 0
 152 396 158 413 168 425 c 1
 178 438 191 444 205 444 c 0
 220 444 233 438 243 426 c 0
 253 413 259 397 259 378 c 0
 259 360 253 343 243 331 c 1
 233 318 220 311 205 311 c 0
 191 311 178 318 168 331 c 0
 158 344 152 360 152 378 c 0
EndSplineSet
Validated: 1
EndChar

StartChar: semicolon
Encoding: 59 59 28
Width: 614
GlyphClass: 2
Flags: HMW
VStem: 206 79<95 114 114 114>
LayerCount: 2
Fore
SplineSet
133 -99 m 1
 159 -76 176 -49 188 -18 c 1
 199 14 206 50 206 95 c 2
 206 114 l 1
 285 114 l 1
 283 57 271 7 253 -33 c 0
 234 -74 204 -109 165 -139 c 1
 133 -99 l 1
190 378 m 0
 190 396 196 413 206 425 c 1
 216 438 230 444 244 444 c 0
 258 444 272 438 282 425 c 0
 292 412 297 396 297 378 c 0
 297 360 292 344 282 331 c 0
 272 318 258 311 244 311 c 0
 230 311 216 318 206 331 c 0
 196 344 190 360 190 378 c 0
EndSplineSet
Validated: 1
EndChar

StartChar: less
Encoding: 60 60 29
Width: 614
GlyphClass: 2
Flags: HW
LayerCount: 2
Fore
SplineSet
469 480 m 1
 129 321 l 1
 469 162 l 1
 469 71 l 1
 47 280 l 1
 47 362 l 1
 469 571 l 1
 469 480 l 1
EndSplineSet
Validated: 1
EndChar

StartChar: equal
Encoding: 61 61 30
Width: 614
GlyphClass: 2
Flags: HMW
HStem: 176 86<47 469 47 469> 380 85<47 469 47 469>
LayerCount: 2
Fore
SplineSet
47 262 m 1
 469 262 l 1
 469 176 l 1
 47 176 l 1
 47 262 l 1
47 465 m 1
 469 465 l 1
 469 380 l 1
 47 380 l 1
 47 465 l 1
EndSplineSet
Validated: 1
EndChar

StartChar: greater
Encoding: 62 62 31
Width: 614
GlyphClass: 2
Flags: HW
LayerCount: 2
Fore
SplineSet
47 480 m 1
 47 571 l 1
 469 362 l 1
 469 280 l 1
 47 71 l 1
 47 162 l 1
 387 321 l 1
 47 480 l 1
EndSplineSet
Validated: 1
EndChar

StartChar: question
Encoding: 63 63 32
Width: 614
GlyphClass: 2
Flags: HMW
HStem: 711 49<214 241>
VStem: 190 49<199 326 199 362 199 362> 333 84<537 586>
LayerCount: 2
Fore
SplineSet
161 52 m 0
 161 70 167 86 177 99 c 0
 187 112 200 119 214 119 c 0
 228 119 242 112 252 99 c 0
 262 86 268 70 268 52 c 0
 268 34 262 18 252 5 c 0
 242 -8 228 -14 214 -14 c 0
 200 -14 187 -8 177 5 c 1
 167 17 161 34 161 52 c 0
73 714 m 1
 101 729 127 741 153 749 c 0
 179 756 203 760 226 760 c 0
 285 760 331 743 366 707 c 0
 401 671 417 622 417 562 c 0
 417 500 403 450 373 410 c 0
 343 371 298 342 239 326 c 1
 239 199 l 1
 190 199 l 1
 190 362 l 1
 237 376 272 400 296 434 c 0
 320 468 333 511 333 563 c 0
 333 608 322 645 303 671 c 0
 284 698 258 711 224 711 c 0
 193 711 167 700 149 678 c 0
 130 656 118 625 112 584 c 1
 73 584 l 1
 73 714 l 1
EndSplineSet
Validated: 1
EndChar

StartChar: at
Encoding: 64 64 33
Width: 614
GlyphClass: 2
Flags: HMW
HStem: -178 52 43 58 435 58 655 51
VStem: 32 60 190 63 437 62<43 124 124 124 243 295 295 316 413 483 43 483 43 508>
LayerCount: 2
Fore
SplineSet
500 483 m 2
 500 43 l 1
 437 43 l 1
 437 124 l 1
 422 96 407 76 390 63 c 0
 373 50 353 43 331 43 c 0
 289 43 256 63 229 105 c 0
 203 147 190 201 190 268 c 0
 190 336 203 390 229 431 c 0
 256 473 289 494 331 494 c 0
 353 494 373 486 390 473 c 0
 407 460 422 441 437 413 c 1
 437 483 l 2
 437 531 423 595 401 621 c 0
 382 645 356 655 327 655 c 0
 302 655 275 647 249 631 c 0
 201 601 160 551 133 489 c 0
 106 426 92 354 92 271 c 0
 92 216 100 165 111 118 c 0
 123 71 139 31 162 -4 c 0
 189 -44 219 -73 254 -95 c 1
 290 -115 328 -126 369 -126 c 0
 400 -126 428 -119 455 -106 c 1
 460 -155 l 1
 428 -170 392 -178 353 -178 c 0
 309 -178 268 -167 229 -144 c 0
 190 -122 155 -91 125 -50 c 0
 94 -7 71 41 55 95 c 0
 40 149 32 209 32 271 c 0
 32 332 40 391 56 445 c 0
 71 499 94 548 125 590 c 0
 155 632 199 675 231 687 c 0
 267 700 299 707 328 707 c 0
 378 707 415 689 442 662 c 0
 490 613 500 535 500 483 c 2
437 243 m 2
 437 295 l 2
 437 337 428 370 412 396 c 0
 396 422 372 435 345 435 c 0
 316 435 295 421 279 391 c 0
 263 362 254 321 254 268 c 0
 254 215 263 174 279 145 c 0
 295 115 317 101 346 101 c 0
 373 101 396 114 412 140 c 0
 428 167 437 201 437 243 c 2
EndSplineSet
Validated: 1
EndChar

StartChar: A
Encoding: 65 65 34
Width: 614
GlyphClass: 2
Flags: HMW
HStem: -14 57<218 229> 0 53<415 466 415 466> 488 57<218 229 189 253> 758 20G<293 415 415 415>
VStem: 49 80 342 74<449 725 725 725>
LayerCount: 2
Fore
SplineSet
487 806 m 25x3c
 559 806 l 25
 559 547 l 25
 487 547 l 25
 487 806 l 25x3c
415 53 m 1x7c
 466 53 l 1
 466 0 l 1
 342 0 l 1x7c
 342 83 l 1
 328 50 310 24 290 9 c 0
 270 -6 245 -14 214 -14 c 0xbc
 165 -14 126 11 95 63 c 1
 63 114 49 182 49 266 c 0
 49 349 63 417 94 469 c 1
 126 520 165 546 214 546 c 0
 245 546 270 537 290 522 c 0
 310 507 328 483 342 449 c 1
 342 725 l 1
 293 725 l 1
 293 778 l 1
 415 778 l 1
 415 53 l 1x7c
342 240 m 2
 342 292 l 2
 342 355 332 404 314 438 c 0
 296 472 270 488 235 488 c 0
 200 488 173 470 155 432 c 0
 138 395 129 340 129 266 c 0
 129 192 138 137 155 99 c 0
 173 61 200 43 235 43 c 0xbc
 270 43 296 59 314 93 c 0
 332 127 342 175 342 240 c 2
EndSplineSet
Validated: 1
EndChar

StartChar: B
Encoding: 66 66 35
Width: 614
GlyphClass: 2
Flags: HMW
HStem: 0 53<41 92 41 92 174 252> 378 53<174 234 234 252 174 234> 693 53<41 92 41 270 174 234 174 174>
VStem: 92 81<53 378 431 693> 360 92<540 585> 391 92<187 244 179 244>
LayerCount: 2
Fore
SplineSet
174 53 m 1xf4
 252 53 l 2
 300 53 334 66 357 92 c 0
 380 118 391 160 391 216 c 0
 391 272 380 313 357 339 c 0
 334 365 300 378 252 378 c 2
 174 378 l 1
 174 53 l 1xf4
174 431 m 1
 234 431 l 2
 278 431 309 443 329 463 c 0
 349 483 360 516 360 562 c 0xf8
 360 608 349 642 329 662 c 0
 309 682 278 693 234 693 c 2
 174 693 l 1
 174 431 l 1
41 0 m 1
 41 53 l 1
 92 53 l 1
 92 693 l 1
 41 693 l 1
 41 746 l 1
 270 746 l 2
 330 746 375 731 406 700 c 0
 437 669 452 623 452 562 c 0xf8
 452 518 443 484 421 457 c 0
 399 430 368 414 327 408 c 1
 378 400 416 379 443 346 c 0
 470 313 482 270 482 216 c 0xf4
 482 142 464 88 426 53 c 0
 388 18 331 0 252 0 c 2
 41 0 l 1
EndSplineSet
Validated: 1
EndChar

StartChar: C
Encoding: 67 67 36
Width: 614
GlyphClass: 2
Flags: HMW
HStem: -14 53<254 284 249 292> 707 53<249 286 241 286>
VStem: 56 92 385 53
LayerCount: 2
Fore
SplineSet
452 198 m 1
 440 128 416 75 385 39 c 0
 354 3 316 -14 269 -14 c 0
 239 -14 213 -6 188 10 c 1
 163 27 141 51 122 84 c 0
 100 121 83 164 72 211 c 0
 61 259 56 313 56 373 c 0
 56 489 76 581 116 653 c 1
 156 724 208 760 274 760 c 0
 299 760 323 754 351 744 c 0
 379 733 408 717 440 695 c 1
 440 523 l 1
 385 523 l 1
 379 585 368 633 349 662 c 1
 331 692 304 707 270 707 c 0
 230 707 199 678 179 622 c 0
 159 566 148 483 148 373 c 0
 148 263 159 180 179 124 c 0
 199 68 230 39 270 39 c 0
 298 39 320 52 338 79 c 0
 356 106 370 145 378 198 c 1
 452 198 l 1
EndSplineSet
Validated: 1
EndChar

StartChar: D
Encoding: 68 68 37
Width: 614
GlyphClass: 2
Flags: HMW
HStem: 0 53<34 59 133 156 306 329 478 504> 478 68<197 208>
VStem: 59 74<53 296 296 352 437 479 53 296> 232 68 232 74<0 296 53 296 296 331> 299 6 404 74<53 328 0 338>
LayerCount: 2
Fore
SplineSet
508 636 m 25x3c
 580 636 l 25
 580 377 l 25
 508 377 l 25
 508 636 l 25x3c
232 0 m 1xea
 232 331 l 2xf2
 232 453 224 478 191 478 c 0
 156 478 133 409 133 296 c 2
 133 53 l 1
 156 53 l 1
 156 0 l 1
 34 0 l 1
 34 53 l 1
 59 53 l 1
 59 478 l 1
 30 478 l 1
 30 531 l 1
 133 531 l 1
 133 437 l 1
 143 504 172 546 221 546 c 0
 272 546 299 494 299 428 c 1
 299 477 338 546 387 546 c 0
 388 546 l 0
 456 546 478 492 478 338 c 2
 478 53 l 1
 504 53 l 1
 504 0 l 1
 404 0 l 1
 404 328 l 2
 404 450 397 478 364 478 c 0
 329 478 306 409 306 296 c 2xe6
 306 53 l 1xea
 329 53 l 1
 329 0 l 1
 232 0 l 1xea
EndSplineSet
Validated: 8388609
EndChar

StartChar: E
Encoding: 69 69 38
Width: 614
GlyphClass: 2
Flags: HMW
HStem: 0 53<50 101 50 101 50 464> 0 61<182 414 182 464> 374 61<182 328 182 328> 685 61<182 407 182 182> 693 53<50 101 50 456>
VStem: 101 81<61 374 435 685> 328 49<281 374 374 374 435 528 281 528> 407 49<581 685 685 685> 414 49<61 166 0 166>
LayerCount: 2
Fore
SplineSet
50 0 m 1xa680
 50 53 l 1
 101 53 l 1
 101 693 l 1
 50 693 l 1
 50 746 l 1xae80
 456 746 l 1
 456 581 l 1
 407 581 l 1
 407 685 l 1x37
 182 685 l 1
 182 435 l 1
 328 435 l 1
 328 528 l 1
 378 528 l 1
 378 281 l 1
 328 281 l 1
 328 374 l 1
 182 374 l 1
 182 61 l 1
 414 61 l 1
 414 166 l 1
 464 166 l 1
 464 0 l 1x7680
 50 0 l 1xa680
EndSplineSet
Validated: 1
EndChar

StartChar: F
Encoding: 70 70 39
Width: 614
GlyphClass: 2
Flags: HMW
HStem: 0 53<84 170 244 363 84 170> 478 53<70 170 70 170 244 404> 729 49<305 326 293 330>
VStem: 170 74<53 478 53 478 531 598 598 600>
LayerCount: 2
Fore
SplineSet
487 806 m 25x3c
 559 806 l 25
 559 547 l 25
 487 547 l 25
 487 806 l 25x3c
423 652 m 1
 384 652 l 1
 384 678 378 697 367 710 c 0
 357 723 341 729 319 729 c 0
 292 729 271 719 260 700 c 0
 250 682 244 648 244 600 c 2
 244 531 l 1
 404 531 l 1
 404 478 l 1
 244 478 l 1
 244 53 l 1
 363 53 l 1
 363 0 l 1
 84 0 l 1
 84 53 l 1
 170 53 l 1
 170 478 l 1
 70 478 l 1
 70 531 l 1
 170 531 l 1
 170 598 l 2
 170 657 182 702 207 732 c 0
 232 763 270 778 317 778 c 0
 335 778 352 776 370 772 c 0
 388 768 406 762 423 754 c 1
 423 652 l 1
EndSplineSet
Validated: 1
EndChar

StartChar: G
Encoding: 71 71 40
Width: 614
GlyphClass: 2
Flags: HMW
HStem: -14 49<222 249 214 262> 497 49<226 250 213 257>
VStem: 77 43<30 154 154 154> 77 70<403 414> 334 76<123 137> 343 43<387 503>
LayerCount: 2
Fore
SplineSet
467 636 m 25x3c
 539 636 l 25
 539 377 l 25
 467 377 l 25
 467 636 l 25x3c
77 30 m 1xe8
 77 154 l 1
 119 154 l 1
 119 114 131 84 149 65 c 0
 167 46 196 35 233 35 c 0
 266 35 291 43 308 58 c 0
 326 73 334 96 334 126 c 0xe8
 334 150 327 168 315 182 c 0
 302 196 276 212 235 228 c 2
 182 251 l 1
 145 265 118 283 102 306 c 0
 86 328 77 356 77 390 c 0
 77 438 92 477 120 505 c 0
 149 533 188 546 239 546 c 0
 262 546 285 543 310 535 c 1
 336 528 359 517 386 503 c 1
 386 387 l 1
 343 387 l 1
 343 421 333 449 315 468 c 0
 297 486 272 497 241 497 c 0
 210 497 187 489 171 476 c 1
 156 462 147 442 147 415 c 0xd4
 147 392 153 373 165 360 c 0
 177 347 201 333 237 319 c 2
 295 297 l 2
 335 282 365 263 382 239 c 0
 400 215 409 184 409 147 c 0
 409 97 395 58 364 29 c 0
 333 0 290 -14 236 -14 c 0
 208 -14 182 -11 155 -3 c 0
 128 4 104 15 77 30 c 1xe8
EndSplineSet
Validated: 8388609
EndChar

StartChar: H
Encoding: 72 72 41
Width: 614
GlyphClass: 2
Flags: HMW
HStem: 0 53<79 205 279 406 79 205> 725 53<103 205 103 279>
VStem: 205 74<53 725 725 725>
LayerCount: 2
Fore
SplineSet
375 806 m 25x3c
 446 806 l 25
 446 547 l 25
 375 547 l 25
 375 806 l 25x3c
279 53 m 1
 406 53 l 1
 406 0 l 1
 79 0 l 1
 79 53 l 1
 205 53 l 1
 205 725 l 1
 103 725 l 1
 103 778 l 1
 279 778 l 1
 279 53 l 1
EndSplineSet
Validated: 1
EndChar

StartChar: I
Encoding: 73 73 42
Width: 614
GlyphClass: 2
Flags: HMW
HStem: 0 53<83 199 281 398 83 199> 693 53<83 199 83 398 281 281 281 398>
VStem: 199 81<53 693>
LayerCount: 2
Fore
SplineSet
281 53 m 1
 398 53 l 1
 398 0 l 1
 83 0 l 1
 83 53 l 1
 199 53 l 1
 199 693 l 1
 83 693 l 1
 83 746 l 1
 398 746 l 1
 398 693 l 1
 281 693 l 1
 281 53 l 1
EndSplineSet
Validated: 1
EndChar

StartChar: J
Encoding: 74 74 43
Width: 614
GlyphClass: 2
Flags: HMW
HStem: -14 49<297 315 297 318> 478 53<70 183 70 183 257 424>
VStem: 183 74<140 478 531 696> 361 55<109 125>
LayerCount: 2
Fore
SplineSet
487 806 m 25x3c
 559 806 l 25
 559 547 l 25
 487 547 l 25
 487 806 l 25x3c
183 478 m 1
 70 478 l 1
 70 531 l 1
 183 531 l 1
 183 696 l 1
 257 696 l 1
 257 531 l 1
 424 531 l 1
 424 478 l 1
 257 478 l 1
 257 140 l 2
 257 95 260 66 267 54 c 1
 273 41 288 35 306 35 c 0
 324 35 339 42 348 56 c 0
 357 70 361 93 361 125 c 1
 418 125 l 1
 418 77 405 41 386 19 c 1
 368 -4 339 -14 300 -14 c 0
 257 -14 228 -4 210 20 c 0
 193 44 183 84 183 140 c 2
 183 478 l 1
EndSplineSet
Validated: 1
EndChar

StartChar: K
Encoding: 75 75 44
Width: 614
GlyphClass: 2
Flags: HMW
HStem: 0 53<28 72 28 72 153 196 463 507> 693 53<28 72 28 196 153 153 153 196 364 396 463 463 463 496>
VStem: 72 81<53 354 411 693>
LayerCount: 2
Fore
SplineSet
28 0 m 1
 28 53 l 1
 72 53 l 1
 72 693 l 1
 28 693 l 1
 28 746 l 1
 196 746 l 1
 196 693 l 1
 153 693 l 1
 153 411 l 1
 396 693 l 1
 364 693 l 1
 364 746 l 1
 496 746 l 1
 496 693 l 1
 463 693 l 1
 221 412 l 1
 463 53 l 1
 507 53 l 1
 507 0 l 1
 393 0 l 1
 153 354 l 1
 153 53 l 1
 196 53 l 1
 196 0 l 1
 28 0 l 1
EndSplineSet
Validated: 1
EndChar

StartChar: L
Encoding: 76 76 45
Width: 614
GlyphClass: 2
Flags: HMW
HStem: 0 53<47 99 47 99 47 469> 0 61<180 420 180 469> 693 53<47 99 47 231 180 180 180 231>
VStem: 99 81<61 693 61 693 61 693> 420 49<61 186 0 186>
LayerCount: 2
Fore
SplineSet
47 0 m 1xb8
 47 53 l 1
 99 53 l 1xb8
 99 693 l 1
 47 693 l 1
 47 746 l 1
 231 746 l 1
 231 693 l 1
 180 693 l 1
 180 61 l 1
 420 61 l 1
 420 186 l 1
 469 186 l 1
 469 0 l 1x78
 47 0 l 1xb8
EndSplineSet
Validated: 1
EndChar

StartChar: M
Encoding: 77 77 46
Width: 614
GlyphClass: 2
Flags: HMW
HStem: 0 53<26 61 26 61 111 154 356 399 476 512> 693 53<26 61 26 155 476 476 476 512>
VStem: 61 49<53 630 53 693> 399 77<53 620 620 620>
LayerCount: 2
Fore
SplineSet
26 0 m 1
 26 53 l 1
 61 53 l 1
 61 693 l 1
 26 693 l 1
 26 746 l 1
 155 746 l 1
 270 323 l 1
 397 746 l 1
 512 746 l 1
 512 693 l 1
 476 693 l 1
 476 53 l 1
 512 53 l 1
 512 0 l 1
 356 0 l 1
 356 53 l 1
 399 53 l 1
 399 620 l 1
 278 207 l 1
 221 207 l 1
 111 630 l 1
 111 53 l 1
 154 53 l 1
 154 0 l 1
 26 0 l 1
EndSplineSet
Validated: 1
EndChar

StartChar: N
Encoding: 78 78 47
Width: 614
GlyphClass: 2
Flags: HMW
HStem: 0 53<29 77 29 77 126 198> 693 53<29 77 29 150 361 409 458 458 458 506>
VStem: 77 49<53 594 53 693> 409 49<178 693 -14 693>
LayerCount: 2
Fore
SplineSet
29 0 m 1
 29 53 l 1
 77 53 l 1
 77 693 l 1
 29 693 l 1
 29 746 l 1
 150 746 l 1
 409 178 l 1
 409 693 l 1
 361 693 l 1
 361 746 l 1
 506 746 l 1
 506 693 l 1
 458 693 l 1
 458 -14 l 1
 410 -14 l 1
 126 594 l 1
 126 53 l 1
 198 53 l 1
 198 0 l 1
 29 0 l 1
EndSplineSet
Validated: 1
EndChar

StartChar: O
Encoding: 79 79 48
Width: 614
GlyphClass: 2
Flags: HMW
HStem: -14 53<216 294 216 327> 707 53<207 303>
VStem: 54 92 364 91
LayerCount: 2
Fore
SplineSet
255 39 m 0
 334 39 364 132 364 373 c 0
 364 570 351 707 255 707 c 0
 160 707 146 571 146 373 c 0
 146 132 176 39 255 39 c 0
255 -14 m 0
 112 -14 54 145 54 373 c 0
 54 600 111 760 255 760 c 0
 399 760 455 610 455 373 c 0
 455 146 399 -14 255 -14 c 0
EndSplineSet
Validated: 1
EndChar

StartChar: P
Encoding: 80 80 49
Width: 614
GlyphClass: 2
Flags: HMW
HStem: 0 53<45 97 45 97 178 246> 327 53<178 259 259 279 178 259> 693 53<45 97 45 279 178 259 178 178>
VStem: 97 81<53 327 53 380 380 693> 381 92<511 562>
LayerCount: 2
Fore
SplineSet
178 380 m 1
 259 380 l 2
 298 380 328 393 350 420 c 1
 370 448 381 486 381 537 c 0
 381 588 370 626 350 653 c 0
 328 680 298 693 259 693 c 2
 178 693 l 1
 178 380 l 1
45 0 m 1
 45 53 l 1
 97 53 l 1
 97 693 l 1
 45 693 l 1
 45 746 l 1
 279 746 l 2
 338 746 386 728 421 690 c 0
 456 652 473 602 473 537 c 0
 473 472 456 422 421 384 c 1
 386 345 338 327 279 327 c 2
 178 327 l 1
 178 53 l 1
 246 53 l 1
 246 0 l 1
 45 0 l 1
EndSplineSet
Validated: 1
EndChar

StartChar: Q
Encoding: 81 81 50
Width: 614
GlyphClass: 2
Flags: HMW
HStem: -164 92<437 450> -14 53<216 255 255 255> 707 53<207 303>
VStem: 54 92 364 91
LayerCount: 2
Fore
SplineSet
255 39 m 0
 334 39 364 132 364 373 c 0
 364 570 351 707 255 707 c 0
 160 707 146 571 146 373 c 0
 146 132 176 39 255 39 c 0
310 -5 m 1
 324 -27 343 -45 362 -55 c 0
 382 -66 408 -72 437 -72 c 2
 450 -72 l 1
 450 -164 l 1
 405 -161 366 -148 334 -123 c 0
 302 -97 275 -61 255 -14 c 1
 255 -14 l 2
 112 -14 54 145 54 373 c 0
 54 600 111 760 255 760 c 0
 399 760 455 610 455 373 c 0
 455 177 413 32 310 -5 c 1
EndSplineSet
Validated: 1
EndChar

StartChar: R
Encoding: 82 82 51
Width: 614
GlyphClass: 2
Flags: HMW
HStem: 0 53<29 72 154 205 29 72 474 504> 347 53<154 202 154 231> 693 53<29 72 29 259 154 154 154 231>
VStem: 72 81<53 347 400 693> 349 92<522 571>
LayerCount: 2
Fore
SplineSet
303 371 m 1
 321 365 337 353 351 338 c 0
 364 324 378 302 388 274 c 2
 474 53 l 1
 504 53 l 1
 504 0 l 1
 406 0 l 1
 313 238 l 2
 295 284 278 314 264 327 c 0
 250 340 229 347 202 347 c 2
 154 347 l 1
 154 53 l 1
 205 53 l 1
 205 0 l 1
 29 0 l 1
 29 53 l 1
 72 53 l 1
 72 693 l 1
 29 693 l 1
 29 746 l 1
 259 746 l 2
 317 746 362 729 393 694 c 0
 425 659 441 610 441 547 c 0
 441 496 429 456 406 426 c 0
 383 396 349 378 303 371 c 1
154 400 m 1
 231 400 l 2
 271 400 302 412 320 436 c 0
 338 460 349 497 349 547 c 0
 349 597 338 633 320 657 c 0
 302 681 271 693 231 693 c 2
 154 693 l 1
 154 400 l 1
EndSplineSet
Validated: 1
EndChar

StartChar: S
Encoding: 83 83 52
Width: 614
GlyphClass: 2
Flags: HMW
HStem: 0 53<71 138 211 296 71 138> 478 68<333 334> 479 52<67 138 67 211>
VStem: 138 74<53 296 437 479 479 479>
LayerCount: 2
Fore
SplineSet
487 636 m 25x3c
 559 636 l 25
 559 377 l 25
 487 377 l 25
 487 636 l 25x3c
429 531 m 1xd0
 429 399 l 1
 386 399 l 1
 386 426 379 446 369 459 c 1
 359 471 344 479 324 479 c 0xd0
 288 479 259 462 240 431 c 1
 222 399 211 354 211 296 c 2
 211 53 l 1
 296 53 l 1
 296 0 l 1
 71 0 l 1
 71 53 l 1
 138 53 l 1
 138 478 l 1
 67 478 l 1
 67 531 l 1
 211 531 l 1xb0
 211 437 l 1
 225 474 244 502 267 519 c 0
 290 536 317 546 350 546 c 0
 362 546 374 545 387 543 c 0
 400 541 415 535 429 531 c 1xd0
EndSplineSet
Validated: 1
EndChar

StartChar: T
Encoding: 84 84 53
Width: 614
GlyphClass: 2
Flags: HMW
HStem: 0 53<147 223 147 223 304 381> 687 59<85 223 85 85 304 304 304 442>
VStem: 36 49<570 687 570 746 570 746> 223 81<53 687 53 687>
LayerCount: 2
Fore
SplineSet
147 0 m 1
 147 53 l 1
 223 53 l 1
 223 687 l 1
 85 687 l 1
 85 570 l 1
 36 570 l 1
 36 746 l 1
 492 746 l 1
 492 570 l 1
 442 570 l 1
 442 687 l 1
 304 687 l 1
 304 53 l 1
 381 53 l 1
 381 0 l 1
 147 0 l 1
EndSplineSet
Validated: 1
EndChar

StartChar: U
Encoding: 85 85 54
Width: 614
GlyphClass: 2
Flags: HMW
HStem: -14 66<238 332 238 339> 693 53<28 80 28 212 161 161 161 212 355 406 455 455 455 507>
VStem: 80 81<297 307 307 693> 406 49
LayerCount: 2
Fore
SplineSet
80 693 m 1
 28 693 l 1
 28 746 l 1
 212 746 l 1
 212 693 l 1
 161 693 l 1
 161 307 l 2
 161 122 192 51 284 51 c 0
 381 51 406 137 406 307 c 2
 406 693 l 1
 355 693 l 1
 355 746 l 1
 507 746 l 1
 507 693 l 1
 455 693 l 1
 455 297 l 2
 455 82 409 -14 269 -14 c 0
 129 -14 80 82 80 297 c 2
 80 693 l 1
EndSplineSet
Validated: 1
EndChar

StartChar: V
Encoding: 86 86 55
Width: 614
GlyphClass: 2
Flags: HMW
HStem: 0 22G<234 303 234 234> 693 53<25 61 25 194 152 194 152 152 386 429 479 479 479 513>
LayerCount: 2
Fore
SplineSet
152 693 m 1
 289 120 l 1
 429 693 l 1
 386 693 l 1
 386 746 l 1
 513 746 l 1
 513 693 l 1
 479 693 l 1
 303 0 l 1
 234 0 l 1
 61 693 l 1
 25 693 l 1
 25 746 l 1
 194 746 l 1
 194 693 l 1
 152 693 l 1
EndSplineSet
Validated: 1
EndChar

StartChar: W
Encoding: 87 87 56
Width: 614
GlyphClass: 2
Flags: HMW
HStem: 0 22G<115 181 115 115 339 405 339 339> 518 20G<249 314 314 314> 693 53<26 53 26 156 120 120 120 156 405 441 485 485 485 511>
LayerCount: 2
Fore
SplineSet
405 0 m 1
 339 0 l 1
 262 399 l 1
 181 0 l 1
 115 0 l 1
 53 693 l 1
 26 693 l 1
 26 746 l 1
 156 746 l 1
 156 693 l 1
 120 693 l 1
 166 144 l 1
 249 539 l 1
 314 539 l 1
 381 166 l 1
 441 693 l 1
 405 693 l 1
 405 746 l 1
 511 746 l 1
 511 693 l 1
 485 693 l 1
 405 0 l 1
EndSplineSet
Validated: 1
EndChar

StartChar: X
Encoding: 88 88 57
Width: 614
GlyphClass: 2
Flags: HMW
HStem: 0 53<27 71 123 176 321 368 470 509> 693 53<29 69 69 69 172 217 29 217 346 398 398 398 450 492>
LayerCount: 2
Fore
SplineSet
71 53 m 1
 27 53 l 1
 27 0 l 1
 176 0 l 1
 176 53 l 1
 123 53 l 1
 251 304 l 1
 368 53 l 1
 321 53 l 1
 321 0 l 1
 509 0 l 1
 509 53 l 1
 470 53 l 1
 307 397 l 1
 450 693 l 1
 492 693 l 1
 492 746 l 1
 346 746 l 1
 346 693 l 1
 398 693 l 1
 282 451 l 1
 172 693 l 1
 217 693 l 1
 217 746 l 1
 29 746 l 1
 29 693 l 1
 69 693 l 1
 226 356 l 1
 71 53 l 1
EndSplineSet
Validated: 9
EndChar

StartChar: Y
Encoding: 89 89 58
Width: 614
GlyphClass: 2
Flags: HMW
HStem: 0 53<173 225 173 225 306 357> 693 53<33 65 33 207 161 161 161 207 371 414 464 464 464 496>
VStem: 225 81<53 322 322 322>
LayerCount: 2
Fore
SplineSet
173 0 m 1
 173 53 l 1
 225 53 l 1
 225 322 l 1
 65 693 l 1
 33 693 l 1
 33 746 l 1
 207 746 l 1
 207 693 l 1
 161 693 l 1
 286 391 l 1
 414 693 l 1
 371 693 l 1
 371 746 l 1
 496 746 l 1
 496 693 l 1
 464 693 l 1
 306 331 l 1
 306 53 l 1
 357 53 l 1
 357 0 l 1
 173 0 l 1
EndSplineSet
Validated: 1
EndChar

StartChar: Z
Encoding: 90 90 59
Width: 614
GlyphClass: 2
Flags: HMW
HStem: 0 61<150 425 150 474> 685 61<107 355 107 107>
VStem: 58 49<573 685 573 746> 425 49<61 166 0 166>
LayerCount: 2
Fore
SplineSet
44 0 m 1
 44 36 l 1
 355 685 l 1
 107 685 l 1
 107 573 l 1
 58 573 l 1
 58 746 l 1
 460 746 l 1
 460 711 l 1
 150 61 l 1
 425 61 l 1
 425 166 l 1
 474 166 l 1
 474 0 l 1
 44 0 l 1
EndSplineSet
Validated: 1
EndChar

StartChar: bracketleft
Encoding: 91 91 60
Width: 614
GlyphClass: 2
Flags: HMW
HStem: -135 53<202 312 202 312> 725 53<202 312 202 202>
VStem: 126 76<-82 725 -82 778 -82 778>
LayerCount: 2
Fore
SplineSet
126 778 m 1
 312 778 l 1
 312 725 l 1
 202 725 l 1
 202 -82 l 1
 312 -82 l 1
 312 -135 l 1
 126 -135 l 1
 126 778 l 1
EndSplineSet
Validated: 1
EndChar

StartChar: backslash
Encoding: 92 92 61
Width: 614
GlyphClass: 2
Flags: HMW
HStem: 726 20G<96 160 160 160>
LayerCount: 2
Fore
SplineSet
160 746 m 1
 372 -95 l 1
 308 -95 l 1
 96 746 l 1
 160 746 l 1
EndSplineSet
Validated: 1
EndChar

StartChar: bracketright
Encoding: 93 93 62
Width: 614
GlyphClass: 2
Flags: HMW
HStem: -135 53<126 235 126 312 126 235> 725 53<126 235 126 312>
VStem: 235 76<-82 725 725 725>
LayerCount: 2
Fore
SplineSet
312 778 m 1
 312 -135 l 1
 126 -135 l 1
 126 -82 l 1
 235 -82 l 1
 235 725 l 1
 126 725 l 1
 126 778 l 1
 312 778 l 1
EndSplineSet
Validated: 1
EndChar

StartChar: asciicircum
Encoding: 94 94 63
Width: 614
GlyphClass: 2
Flags: HMW
HStem: 726 20G<226 295 295 295>
LayerCount: 2
Fore
SplineSet
295 746 m 1
 479 468 l 1
 407 468 l 1
 260 666 l 1
 114 468 l 1
 42 468 l 1
 226 746 l 1
 295 746 l 1
EndSplineSet
Validated: 1
EndChar

StartChar: underscore
Encoding: 95 95 64
Width: 614
GlyphClass: 2
Flags: HMW
HStem: -242 40<51 461 51 461>
LayerCount: 2
Fore
SplineSet
461 -202 m 1
 461 -242 l 1
 51 -242 l 1
 51 -202 l 1
 461 -202 l 1
EndSplineSet
Validated: 1
EndChar

StartChar: grave
Encoding: 96 96 65
Width: 614
GlyphClass: 2
Flags: HW
LayerCount: 2
Fore
SplineSet
206 818 m 1
 309 630 l 1
 263 630 l 1
 127 818 l 1
 206 818 l 1
EndSplineSet
Validated: 1
EndChar

StartChar: a
Encoding: 97 97 66
Width: 614
GlyphClass: 2
Flags: HMW
HStem: -14 57<218 229> 0 53<415 466 415 466> 488 57<218 229 189 253> 758 20G<293 415 415 415>
VStem: 49 80 342 74<449 725 725 725>
LayerCount: 2
Fore
SplineSet
415 53 m 1x7c
 466 53 l 1
 466 0 l 1
 342 0 l 1x7c
 342 83 l 1
 328 50 310 24 290 9 c 0
 270 -6 245 -14 214 -14 c 0xbc
 165 -14 126 11 95 63 c 1
 63 114 49 182 49 266 c 0
 49 349 63 417 94 469 c 1
 126 520 165 546 214 546 c 0
 245 546 270 537 290 522 c 0
 310 507 328 483 342 449 c 1
 342 725 l 1
 293 725 l 1
 293 778 l 1
 415 778 l 1
 415 53 l 1x7c
342 240 m 2
 342 292 l 2
 342 355 332 404 314 438 c 0
 296 472 270 488 235 488 c 0
 200 488 173 470 155 432 c 0
 138 395 129 340 129 266 c 0
 129 192 138 137 155 99 c 0
 173 61 200 43 235 43 c 0xbc
 270 43 296 59 314 93 c 0
 332 127 342 175 342 240 c 2
EndSplineSet
Validated: 1
EndChar

StartChar: b
Encoding: 98 98 67
Width: 614
GlyphClass: 2
Flags: HMW
HStem: -14 49<222 249 214 262> 497 49<226 250 213 257>
VStem: 77 43<30 154 154 154> 77 70<403 414> 334 76<123 137> 343 43<387 503>
LayerCount: 2
Fore
SplineSet
467 196 m 25x3c
 539 196 l 25
 539 -63 l 25
 467 -63 l 25
 467 196 l 25x3c
77 30 m 1xe8
 77 154 l 1
 119 154 l 1
 119 114 131 84 149 65 c 0
 167 46 196 35 233 35 c 0
 266 35 291 43 308 58 c 0
 326 73 334 96 334 126 c 0xe8
 334 150 327 168 315 182 c 0
 302 196 276 212 235 228 c 2
 182 251 l 1
 145 265 118 283 102 306 c 0
 86 328 77 356 77 390 c 0
 77 438 92 477 120 505 c 0
 149 533 188 546 239 546 c 0
 262 546 285 543 310 535 c 1
 336 528 359 517 386 503 c 1
 386 387 l 1
 343 387 l 1
 343 421 333 449 315 468 c 0
 297 486 272 497 241 497 c 0
 210 497 187 489 171 476 c 1
 156 462 147 442 147 415 c 0xd4
 147 392 153 373 165 360 c 0
 177 347 201 333 237 319 c 2
 295 297 l 2
 335 282 365 263 382 239 c 0
 400 215 409 184 409 147 c 0
 409 97 395 58 364 29 c 0
 333 0 290 -14 236 -14 c 0
 208 -14 182 -11 155 -3 c 0
 128 4 104 15 77 30 c 1xe8
EndSplineSet
Validated: 8388609
EndChar

StartChar: c
Encoding: 99 99 68
Width: 614
GlyphClass: 2
Flags: HMW
HStem: 0 53<34 59 133 156 306 329 478 504> 478 68<197 208>
VStem: 59 74<53 296 296 352 437 479 53 296> 232 68 232 74<0 296 53 296 296 331> 299 6 404 74<53 328 0 338>
LayerCount: 2
Fore
SplineSet
518 196 m 25x3c
 590 196 l 25
 590 -63 l 25
 518 -63 l 25
 518 196 l 25x3c
232 0 m 1xea
 232 331 l 2xf2
 232 453 224 478 191 478 c 0
 156 478 133 409 133 296 c 2
 133 53 l 1
 156 53 l 1
 156 0 l 1
 34 0 l 1
 34 53 l 1
 59 53 l 1
 59 478 l 1
 30 478 l 1
 30 531 l 1
 133 531 l 1
 133 437 l 1
 143 504 172 546 221 546 c 0
 272 546 299 494 299 428 c 1
 299 477 338 546 387 546 c 0
 388 546 l 0
 456 546 478 492 478 338 c 2
 478 53 l 1
 504 53 l 1
 504 0 l 1
 404 0 l 1
 404 328 l 2
 404 450 397 478 364 478 c 0
 329 478 306 409 306 296 c 2xe6
 306 53 l 1xea
 329 53 l 1
 329 0 l 1
 232 0 l 1xea
EndSplineSet
Validated: 8388609
EndChar

StartChar: d
Encoding: 100 100 69
Width: 614
GlyphClass: 2
Flags: HMW
HStem: 0 53<34 59 133 156 306 329 478 504> 478 68<197 208>
VStem: 59 74<53 296 296 352 437 479 53 296> 232 68 232 74<0 296 53 296 296 331> 299 6 404 74<53 328 0 338>
LayerCount: 2
Fore
SplineSet
232 0 m 1xea
 329 0 l 1
 329 53 l 1
 306 53 l 1xea
 306 296 l 2xe6
 306 409 329 478 364 478 c 0
 397 478 404 450 404 328 c 2
 404 0 l 1
 504 0 l 1
 504 53 l 1
 478 53 l 1
 478 338 l 2
 478 492 456 545 388 546 c 0
 339 547 300 477 299 428 c 1
 297 494 272 546 221 546 c 0
 172 546 143 504 133 437 c 1
 133 531 l 1
 30 531 l 1
 30 479 l 1
 59 479 l 1
 59 53 l 1
 34 53 l 1
 34 0 l 1
 156 0 l 1
 156 53 l 1
 133 53 l 1
 133 296 l 2
 133 409 156 478 191 478 c 0
 224 478 232 453 232 331 c 2xf2
 232 0 l 1xea
EndSplineSet
Validated: 41
EndChar

StartChar: e
Encoding: 101 101 70
Width: 614
GlyphClass: 2
Flags: HMW
HStem: -14 49<247 284 247 286> 256 53<139 370 139 457 139 370> 497 49<239 273>
VStem: 53 86<223 252 252 256 216 308>
LayerCount: 2
Fore
SplineSet
457 256 m 1
 139 256 l 1
 139 252 l 2
 139 180 149 126 171 90 c 0
 194 53 225 35 267 35 c 0
 299 35 327 47 347 67 c 0
 367 89 382 120 390 161 c 1
 450 161 l 1
 439 103 415 59 384 30 c 0
 352 0 311 -14 260 -14 c 0
 198 -14 148 11 110 62 c 0
 72 113 53 181 53 266 c 0
 53 350 72 418 110 469 c 0
 147 520 195 546 255 546 c 0
 318 546 368 521 403 472 c 0
 438 422 455 350 457 256 c 1
370 309 m 1
 368 370 357 418 339 450 c 1
 320 481 291 497 255 497 c 0
 221 497 194 481 175 449 c 0
 156 418 143 370 139 309 c 1
 370 309 l 1
EndSplineSet
Validated: 1
EndChar

StartChar: f
Encoding: 102 102 71
Width: 614
GlyphClass: 2
Flags: HMW
HStem: 0 53<84 170 244 363 84 170> 478 53<70 170 70 170 244 404> 729 49<305 326 293 330>
VStem: 170 74<53 478 53 478 531 598 598 600>
LayerCount: 2
Fore
SplineSet
423 652 m 1
 384 652 l 1
 383 678 378 697 367 710 c 0
 357 723 341 729 319 729 c 0
 292 729 271 719 260 700 c 0
 250 682 244 648 244 600 c 2
 244 531 l 1
 404 531 l 1
 404 478 l 1
 244 478 l 1
 244 53 l 1
 363 53 l 1
 363 0 l 1
 84 0 l 1
 84 53 l 1
 170 53 l 1
 170 478 l 1
 70 478 l 1
 70 531 l 1
 170 531 l 1
 170 598 l 2
 170 657 182 702 207 732 c 0
 232 763 270 778 317 778 c 0
 335 778 352 776 370 772 c 0
 388 768 406 762 423 754 c 1
 423 652 l 1
EndSplineSet
Validated: 1
EndChar

StartChar: g
Encoding: 103 103 72
Width: 614
GlyphClass: 2
Flags: HMW
HStem: -14 49<222 249 214 262> 497 49<226 250 213 257>
VStem: 77 43<30 154 154 154> 77 70<403 414> 334 76<123 137> 343 43<387 503>
LayerCount: 2
Fore
SplineSet
77 30 m 1xe8
 77 154 l 1
 119 154 l 1
 120 114 131 84 149 65 c 0
 167 46 196 35 233 35 c 0
 266 35 291 43 308 58 c 0
 326 73 334 96 334 126 c 0xe8
 334 150 327 168 315 182 c 0
 302 196 276 212 235 228 c 2
 182 251 l 1
 145 265 118 283 102 306 c 0
 86 328 77 356 77 390 c 0
 77 438 92 477 120 505 c 0
 149 533 188 546 239 546 c 0
 262 546 285 543 310 535 c 1
 336 528 359 517 386 503 c 1
 386 387 l 1
 343 387 l 1
 342 421 333 449 315 468 c 0
 297 486 272 497 241 497 c 0
 210 497 187 489 171 476 c 1
 156 462 147 442 147 415 c 0xd4
 147 392 153 373 165 360 c 0
 177 347 201 333 237 319 c 2
 295 297 l 2
 335 282 365 263 382 239 c 0
 400 215 409 184 409 147 c 0
 409 97 395 58 364 29 c 0
 333 0 290 -14 236 -14 c 0
 208 -14 182 -11 155 -3 c 0
 128 4 104 15 77 30 c 1xe8
EndSplineSet
Validated: 1
EndChar

StartChar: h
Encoding: 104 104 73
Width: 614
GlyphClass: 2
Flags: HMW
HStem: 0 53<79 205 279 406 79 205> 725 53<103 205 103 279>
VStem: 205 74<53 725 725 725>
LayerCount: 2
Fore
SplineSet
279 53 m 1
 406 53 l 1
 406 0 l 1
 79 0 l 1
 79 53 l 1
 205 53 l 1
 205 725 l 1
 103 725 l 1
 103 778 l 1
 279 778 l 1
 279 53 l 1
EndSplineSet
Validated: 1
EndChar

StartChar: i
Encoding: 105 105 74
Width: 614
GlyphClass: 2
Flags: HMW
HStem: 0 53<79 197 271 406 79 197> 478 53<111 197 111 271> 733 20G<217 229>
VStem: 197 74<53 478 478 478>
LayerCount: 2
Fore
SplineSet
177 696 m 0
 177 711 182 725 191 736 c 0
 199 747 211 754 223 754 c 0
 235 754 246 747 255 736 c 0
 264 725 268 711 268 696 c 0
 268 681 264 667 255 656 c 0
 246 645 235 640 223 640 c 0
 211 640 199 645 191 656 c 0
 182 667 177 681 177 696 c 0
271 53 m 1
 406 53 l 1
 406 0 l 1
 79 0 l 1
 79 53 l 1
 197 53 l 1
 197 478 l 1
 111 478 l 1
 111 531 l 1
 271 531 l 1
 271 53 l 1
EndSplineSet
Validated: 1
EndChar

StartChar: j
Encoding: 106 106 75
Width: 614
GlyphClass: 2
Flags: HMW
HStem: -14 49<297 315 297 318> 478 53<70 183 70 183 257 424>
VStem: 183 74<140 478 531 696> 361 55<109 125>
LayerCount: 2
Fore
SplineSet
183 478 m 1
 70 478 l 1
 70 531 l 1
 183 531 l 1
 183 696 l 1
 257 696 l 1
 257 531 l 1
 424 531 l 1
 424 478 l 1
 257 478 l 1
 257 140 l 2
 257 95 260 66 267 54 c 1
 273 41 288 35 306 35 c 0
 324 35 339 42 348 56 c 0
 357 70 361 93 361 125 c 1
 418 125 l 1
 416 77 405 41 386 19 c 1
 368 -4 339 -14 300 -14 c 0
 257 -14 228 -4 210 20 c 0
 193 44 183 84 183 140 c 2
 183 478 l 1
EndSplineSet
Validated: 1
EndChar

StartChar: k
Encoding: 107 107 76
Width: 614
GlyphClass: 2
Flags: HMW
HStem: 0 53<46 92 166 212 46 92 311 351 439 480> 478 53<304 345 304 455 403 403 403 455> 725 53<42 92 42 166>
VStem: 92 74<53 204 271 725 725 725>
LayerCount: 2
Fore
SplineSet
212 0 m 1
 46 0 l 1
 46 53 l 1
 92 53 l 1
 92 725 l 1
 42 725 l 1
 42 778 l 1
 166 778 l 1
 166 271 l 1
 345 478 l 1
 304 478 l 1
 304 531 l 1
 455 531 l 1
 455 478 l 1
 403 478 l 1
 277 332 l 1
 439 53 l 1
 480 53 l 1
 480 0 l 1
 311 0 l 1
 311 53 l 1
 351 53 l 1
 224 271 l 1
 166 204 l 1
 166 53 l 1
 212 53 l 1
 212 0 l 1
EndSplineSet
Validated: 1
EndChar

StartChar: l
Encoding: 108 108 77
Width: 614
GlyphClass: 2
Flags: HMW
HStem: 0 53<79 205 279 406 79 205> 725 53<103 205 103 279>
VStem: 205 74<53 725 725 725>
LayerCount: 2
Fore
SplineSet
279 53 m 1
 406 53 l 1
 406 0 l 1
 79 0 l 1
 79 53 l 1
 205 53 l 1
 205 725 l 1
 103 725 l 1
 103 778 l 1
 279 778 l 1
 279 53 l 1
EndSplineSet
Validated: 1
EndChar

StartChar: m
Encoding: 109 109 78
Width: 614
GlyphClass: 2
Flags: HMW
HStem: -14 49<297 315 297 318> 478 53<70 183 70 183 257 424>
VStem: 183 74<140 478 531 696> 361 55<109 125>
LayerCount: 2
Fore
SplineSet
487 202 m 25x3c
 559 202 l 25
 559 -57 l 25
 487 -57 l 25
 487 202 l 25x3c
183 478 m 1
 70 478 l 1
 70 531 l 1
 183 531 l 1
 183 696 l 1
 257 696 l 1
 257 531 l 1
 424 531 l 1
 424 478 l 1
 257 478 l 1
 257 140 l 2
 257 95 260 66 267 54 c 1
 273 41 288 35 306 35 c 0
 324 35 339 42 348 56 c 0
 357 70 361 93 361 125 c 1
 418 125 l 1
 418 77 405 41 386 19 c 1
 368 -4 339 -14 300 -14 c 0
 257 -14 228 -4 210 20 c 0
 193 44 183 84 183 140 c 2
 183 478 l 1
EndSplineSet
Validated: 1
EndChar

StartChar: n
Encoding: 110 110 79
Width: 614
GlyphClass: 2
Flags: HMW
HStem: 0 53<79 205 279 406 79 205> 725 53<103 205 103 279>
VStem: 205 74<53 725 725 725>
LayerCount: 2
Fore
SplineSet
457 202 m 25x3c
 528 202 l 25
 528 -57 l 25
 457 -57 l 25
 457 202 l 25x3c
279 53 m 1
 406 53 l 1
 406 0 l 1
 79 0 l 1
 79 53 l 1
 205 53 l 1
 205 725 l 1
 103 725 l 1
 103 778 l 1
 279 778 l 1
 279 53 l 1
EndSplineSet
Validated: 1
EndChar

StartChar: o
Encoding: 111 111 80
Width: 614
GlyphClass: 2
Flags: HMW
HStem: -14 49<234 271 234 283> 497 49<234 271>
VStem: 57 82 367 82
LayerCount: 2
Fore
SplineSet
253 35 m 0
 290 35 319 54 338 93 c 0
 356 132 367 190 367 266 c 0
 367 342 356 399 338 438 c 0
 319 477 290 497 253 497 c 0
 216 497 186 477 168 438 c 0
 149 399 139 342 139 266 c 0
 139 190 149 132 168 93 c 0
 187 54 216 35 253 35 c 0
253 -14 m 0
 194 -14 148 11 112 62 c 0
 76 113 57 181 57 266 c 0
 57 350 76 419 111 469 c 0
 147 520 194 546 253 546 c 0
 312 546 358 520 394 469 c 0
 430 419 449 350 449 266 c 0
 449 181 430 113 394 62 c 0
 358 11 312 -14 253 -14 c 0
EndSplineSet
Validated: 1
EndChar

StartChar: p
Encoding: 112 112 81
Width: 614
GlyphClass: 2
Flags: HMW
HStem: -213 53<49 99 173 222 49 99> -14 57<285 297 262 325> 478 53<49 99 49 173> 488 57<285 297>
VStem: 99 74<-160 83 207 240 240 292 449 478 478 478> 386 80
LayerCount: 2
Fore
SplineSet
173 292 m 2xdc
 173 240 l 2
 173 175 182 127 200 93 c 0
 218 59 244 43 279 43 c 0
 314 43 341 61 358 99 c 0
 376 137 386 192 386 266 c 0
 386 340 376 395 358 432 c 1
 341 470 314 488 279 488 c 0
 244 488 218 472 200 438 c 0
 182 404 173 355 173 292 c 2xdc
99 478 m 1xec
 49 478 l 1
 49 531 l 1
 173 531 l 1xec
 173 449 l 1
 187 483 204 507 224 522 c 0
 244 537 270 546 301 546 c 0xdc
 350 546 388 520 419 469 c 0
 451 417 466 349 466 266 c 0
 466 182 451 114 419 63 c 1
 388 11 350 -14 301 -14 c 0
 270 -14 244 -6 224 9 c 0
 204 24 187 50 173 83 c 1
 173 -160 l 1
 222 -160 l 1
 222 -213 l 1
 49 -213 l 1
 49 -160 l 1
 99 -160 l 1
 99 478 l 1xec
EndSplineSet
Validated: 1
EndChar

StartChar: q
Encoding: 113 113 82
Width: 614
GlyphClass: 2
Flags: HMW
HStem: -213 53<293 342 415 466 293 342> -14 57<218 229> 478 53<415 415 415 466> 488 57<218 229 189 253>
VStem: 49 80 342 74<478 478 478 531 478 531>
LayerCount: 2
Fore
SplineSet
415 478 m 1xec
 415 -160 l 1
 466 -160 l 1
 466 -213 l 1
 293 -213 l 1
 293 -160 l 1
 342 -160 l 1
 342 83 l 1
 328 50 310 24 290 9 c 0
 270 -6 245 -14 214 -14 c 0
 165 -14 126 11 95 63 c 1
 63 114 49 182 49 266 c 0
 49 349 63 417 94 469 c 1
 126 520 165 546 214 546 c 0xdc
 245 546 270 537 290 522 c 0
 310 507 328 483 342 449 c 1
 342 531 l 1
 466 531 l 1
 466 478 l 1
 415 478 l 1xec
342 292 m 2
 342 355 332 404 314 438 c 0
 296 472 270 488 235 488 c 0
 200 488 173 470 155 432 c 0
 138 395 129 340 129 266 c 0
 129 192 138 137 155 99 c 0
 173 61 200 43 235 43 c 0
 270 43 296 59 314 93 c 0
 332 127 342 175 342 240 c 2
 342 292 l 2
EndSplineSet
Validated: 1
EndChar

StartChar: r
Encoding: 114 114 83
Width: 614
GlyphClass: 2
Flags: HMW
HStem: 0 53<71 138 211 296 71 138> 478 68<333 334> 479 52<67 138 67 211>
VStem: 138 74<53 296 437 479 479 479>
LayerCount: 2
Fore
SplineSet
429 532 m 1xd0
 429 399 l 1
 386 399 l 1
 385 426 379 446 369 459 c 1
 359 471 344 478 324 478 c 0xd0
 288 478 259 462 240 431 c 1
 222 399 211 354 211 296 c 2
 211 53 l 1
 296 53 l 1
 296 0 l 1
 71 0 l 1
 71 53 l 1
 138 53 l 1
 138 479 l 1
 67 479 l 1
 67 531 l 1
 211 531 l 1xb0
 211 437 l 1
 225 474 244 502 267 519 c 0
 290 536 317 546 350 546 c 0
 362 546 374 545 387 543 c 0
 400 541 415 536 429 532 c 1xd0
EndSplineSet
Validated: 1
EndChar

StartChar: s
Encoding: 115 115 84
Width: 614
GlyphClass: 2
Flags: HMW
HStem: 0 53<71 138 211 296 71 138> 478 68<333 334> 479 52<67 138 67 211>
VStem: 138 74<53 296 437 479 479 479>
LayerCount: 2
Fore
SplineSet
429 532 m 1xd0
 429 399 l 1
 386 399 l 1
 385 426 379 446 369 459 c 1
 359 471 344 478 324 478 c 0xd0
 288 478 259 462 240 431 c 1
 222 399 211 354 211 296 c 2
 211 53 l 1
 296 53 l 1
 296 0 l 1
 71 0 l 1
 71 53 l 1
 138 53 l 1
 138 479 l 1
 67 479 l 1
 67 531 l 1
 211 531 l 1xb0
 211 437 l 1
 225 474 244 502 267 519 c 0
 290 536 317 546 350 546 c 0
 362 546 374 545 387 543 c 0
 400 541 415 536 429 532 c 1xd0
EndSplineSet
Validated: 1
EndChar

StartChar: t
Encoding: 116 116 85
Width: 614
GlyphClass: 2
Flags: HMW
HStem: -14 49<297 315 297 318> 478 53<70 183 70 183 257 424>
VStem: 183 74<140 478 531 696> 361 55<109 125>
LayerCount: 2
Fore
SplineSet
183 478 m 1
 70 478 l 1
 70 531 l 1
 183 531 l 1
 183 696 l 1
 257 696 l 1
 257 531 l 1
 424 531 l 1
 424 478 l 1
 257 478 l 1
 257 140 l 2
 257 95 260 66 267 54 c 1
 273 41 288 35 306 35 c 0
 324 35 339 42 348 56 c 0
 357 70 361 93 361 125 c 1
 418 125 l 1
 416 77 405 41 386 19 c 1
 368 -4 339 -14 300 -14 c 0
 257 -14 228 -4 210 20 c 0
 193 44 183 84 183 140 c 2
 183 478 l 1
EndSplineSet
Validated: 1
EndChar

StartChar: u
Encoding: 117 117 86
Width: 614
GlyphClass: 2
Flags: HMW
HStem: -14 68<233 241> 0 53<428 477> 478 53<43 89 43 163 311 354>
VStem: 89 74<194 222 222 478 478 478> 354 74<53 94 94 94 237 478 478 478>
LayerCount: 2
Fore
SplineSet
311 531 m 1xb8
 428 531 l 1
 428 53 l 1
 477 53 l 1
 477 0 l 1
 354 0 l 1x78
 354 94 l 1
 341 58 324 31 302 13 c 0
 279 -5 255 -14 226 -14 c 0
 179 -14 146 2 123 36 c 0
 100 70 89 122 89 194 c 2
 89 478 l 1
 43 478 l 1
 43 531 l 1
 163 531 l 1
 163 222 l 2
 163 157 169 113 181 89 c 0
 194 64 217 53 250 53 c 0
 285 53 311 68 328 100 c 1
 346 131 354 178 354 237 c 2
 354 478 l 1
 311 478 l 1
 311 531 l 1xb8
EndSplineSet
Validated: 1
EndChar

StartChar: v
Encoding: 118 118 87
Width: 614
GlyphClass: 2
Flags: HMW
HStem: 0 53<84 170 244 363 84 170> 478 53<70 170 70 170 244 404> 729 49<305 326 293 330>
VStem: 170 74<53 478 53 478 531 598 598 600>
LayerCount: 2
Fore
SplineSet
487 202 m 25x3c
 559 202 l 25
 559 -57 l 25
 487 -57 l 25
 487 202 l 25x3c
423 652 m 1
 384 652 l 1
 384 678 378 697 367 710 c 0
 357 723 341 729 319 729 c 0
 292 729 271 719 260 700 c 0
 250 682 244 648 244 600 c 2
 244 531 l 1
 404 531 l 1
 404 478 l 1
 244 478 l 1
 244 53 l 1
 363 53 l 1
 363 0 l 1
 84 0 l 1
 84 53 l 1
 170 53 l 1
 170 478 l 1
 70 478 l 1
 70 531 l 1
 170 531 l 1
 170 598 l 2
 170 657 182 702 207 732 c 0
 232 763 270 778 317 778 c 0
 335 778 352 776 370 772 c 0
 388 768 406 762 423 754 c 1
 423 652 l 1
EndSplineSet
Validated: 1
EndChar

StartChar: w
Encoding: 119 119 88
Width: 614
GlyphClass: 2
Flags: HMW
HStem: 0 22G<138 197 138 138 327 389 327 327> 478 53<29 52 29 152 116 116 116 152 400 437 482 482 482 504>
LayerCount: 2
Fore
SplineSet
304 398 m 1
 363 104 l 1
 437 478 l 1
 400 478 l 1
 400 531 l 1
 504 531 l 1
 504 478 l 1
 482 478 l 1
 389 0 l 1
 327 0 l 1
 261 264 l 1
 197 0 l 1
 138 0 l 1
 52 478 l 1
 29 478 l 1
 29 531 l 1
 152 531 l 1
 152 478 l 1
 116 478 l 1
 180 104 l 1
 253 398 l 1
 304 398 l 1
EndSplineSet
Validated: 1
EndChar

StartChar: x
Encoding: 120 120 89
Width: 614
GlyphClass: 2
Flags: HMW
HStem: 0 53<71 138 211 296 71 138> 478 68<333 334> 479 52<67 138 67 211>
VStem: 138 74<53 296 437 479 479 479>
LayerCount: 2
Fore
SplineSet
487 196 m 25x3c
 559 196 l 25
 559 -63 l 25
 487 -63 l 25
 487 196 l 25x3c
429 531 m 1xd0
 429 399 l 1
 386 399 l 1
 386 426 379 446 369 459 c 1
 359 471 344 479 324 479 c 0xd0
 288 479 259 462 240 431 c 1
 222 399 211 354 211 296 c 2
 211 53 l 1
 296 53 l 1
 296 0 l 1
 71 0 l 1
 71 53 l 1
 138 53 l 1
 138 478 l 1
 67 478 l 1
 67 531 l 1
 211 531 l 1xb0
 211 437 l 1
 225 474 244 502 267 519 c 0
 290 536 317 546 350 546 c 0
 362 546 374 545 387 543 c 0
 400 541 415 535 429 531 c 1xd0
EndSplineSet
Validated: 1
EndChar

StartChar: y
Encoding: 121 121 90
Width: 614
GlyphClass: 2
Flags: HMW
HStem: -227 53<138 153> 478 53<39 79 39 218 159 159 159 218 342 397 446 446 446 485>
LayerCount: 2
Fore
SplineSet
210 -97 m 2
 238 -9 l 1
 79 478 l 1
 39 478 l 1
 39 531 l 1
 218 531 l 1
 218 478 l 1
 159 478 l 1
 279 113 l 1
 397 478 l 1
 342 478 l 1
 342 531 l 1
 485 531 l 1
 485 478 l 1
 446 478 l 1
 251 -120 l 2
 238 -162 223 -190 207 -205 c 0
 191 -220 168 -227 138 -227 c 0
 126 -227 112 -226 99 -223 c 0
 86 -221 73 -217 59 -212 c 1
 59 -111 l 1
 97 -111 l 1
 99 -134 104 -150 111 -160 c 0
 118 -169 131 -174 146 -174 c 0
 160 -174 172 -169 181 -159 c 0
 190 -149 200 -128 210 -97 c 2
EndSplineSet
Validated: 1
EndChar

StartChar: z
Encoding: 122 122 91
Width: 614
GlyphClass: 2
Flags: HMW
HStem: -14 57<218 229> 0 53<415 466 415 466> 488 57<218 229 189 253> 758 20G<293 415 415 415>
VStem: 49 80 342 74<449 725 725 725>
LayerCount: 2
Fore
SplineSet
487 191 m 25x3c
 559 191 l 25
 559 -68 l 25
 487 -68 l 25
 487 191 l 25x3c
415 53 m 1x7c
 466 53 l 1
 466 0 l 1
 342 0 l 1x7c
 342 83 l 1
 328 50 310 24 290 9 c 0
 270 -6 245 -14 214 -14 c 0xbc
 165 -14 126 11 95 63 c 1
 63 114 49 182 49 266 c 0
 49 349 63 417 94 469 c 1
 126 520 165 546 214 546 c 0
 245 546 270 537 290 522 c 0
 310 507 328 483 342 449 c 1
 342 725 l 1
 293 725 l 1
 293 778 l 1
 415 778 l 1
 415 53 l 1x7c
342 240 m 2
 342 292 l 2
 342 355 332 404 314 438 c 0
 296 472 270 488 235 488 c 0
 200 488 173 470 155 432 c 0
 138 395 129 340 129 266 c 0
 129 192 138 137 155 99 c 0
 173 61 200 43 235 43 c 0xbc
 270 43 296 59 314 93 c 0
 332 127 342 175 342 240 c 2
EndSplineSet
Validated: 1
EndChar

StartChar: braceleft
Encoding: 123 123 92
Width: 614
GlyphClass: 2
Flags: HMW
HStem: -167 52<371 373 373 398> 280 52<83 107 83 107> 726 52<353 398 373 398 373 398>
VStem: 207 74<17 143 465 468 468 594 594 611>
CounterMasks: 1 e0
LayerCount: 2
Fore
SplineSet
398 -115 m 1
 398 -167 l 1
 373 -167 l 2
 306 -167 263 -155 240 -130 c 0
 217 -105 207 -57 207 17 c 2
 207 146 l 2
 207 196 199 232 185 251 c 0
 171 270 145 280 107 280 c 2
 83 280 l 1
 83 332 l 1
 107 332 l 2
 145 332 171 342 185 361 c 1
 199 379 207 415 207 465 c 2
 207 594 l 2
 207 668 217 716 240 741 c 0
 263 766 306 778 373 778 c 2
 398 778 l 1
 398 726 l 1
 371 726 l 2
 333 726 309 719 298 705 c 0
 287 690 280 658 280 611 c 2
 280 468 l 2
 280 416 274 378 261 355 c 0
 247 332 224 316 189 306 c 1
 224 295 248 278 261 256 c 0
 274 233 280 195 280 143 c 2
 280 0 l 2
 280 -47 287 -78 298 -92 c 0
 309 -107 333 -115 371 -115 c 2
 398 -115 l 1
EndSplineSet
Validated: 1
EndChar

StartChar: bar
Encoding: 124 124 93
Width: 614
GlyphClass: 2
Flags: HMW
VStem: 166 65<-242 782 -242 782>
LayerCount: 2
Fore
SplineSet
231 782 m 1
 231 -242 l 1
 166 -242 l 1
 166 782 l 1
 231 782 l 1
EndSplineSet
Validated: 1
EndChar

StartChar: braceright
Encoding: 125 125 94
Width: 614
GlyphClass: 2
Flags: HMW
HStem: -167 52<83 107 83 110> 280 52<355 398 373 398> 726 52<83 107 107 110 83 107>
VStem: 200 74<0 17 17 143 143 146 468 594>
CounterMasks: 1 e0
LayerCount: 2
Fore
SplineSet
83 -115 m 1
 110 -115 l 2
 148 -115 172 -107 183 -93 c 0
 194 -78 200 -47 200 0 c 2
 200 143 l 2
 200 195 207 233 220 256 c 0
 233 278 256 295 291 306 c 1
 256 316 233 332 220 355 c 0
 207 378 200 416 200 468 c 2
 200 611 l 2
 200 658 194 691 183 705 c 0
 172 719 148 726 110 726 c 2
 83 726 l 1
 83 778 l 1
 107 778 l 2
 174 778 217 766 240 741 c 0
 263 716 274 668 274 594 c 2
 274 465 l 2
 274 415 282 379 296 361 c 0
 310 342 335 332 373 332 c 2
 398 332 l 1
 398 280 l 1
 373 280 l 2
 335 280 310 270 296 251 c 0
 282 232 274 196 274 146 c 2
 274 17 l 2
 274 -57 263 -105 240 -130 c 0
 217 -155 174 -167 107 -167 c 2
 83 -167 l 1
 83 -115 l 1
EndSplineSet
Validated: 1
EndChar

StartChar: asciitilde
Encoding: 126 126 95
Width: 614
GlyphClass: 2
Flags: HMW
HStem: 244 85<337 351> 313 85<160 174>
LayerCount: 2
Fore
SplineSet
461 403 m 1x80
 461 330 l 1
 439 300 419 278 400 264 c 0
 381 251 361 244 342 244 c 0x80
 322 244 292 254 255 276 c 1
 252 279 l 2
 250 280 246 282 242 285 c 0
 210 304 184 313 164 313 c 0
 145 313 126 307 108 295 c 0
 89 283 70 265 51 239 c 1
 51 314 l 1
 73 343 93 365 112 378 c 0
 131 392 150 398 170 398 c 0x40
 190 398 220 388 257 366 c 1
 260 364 l 2
 262 363 265 360 269 357 c 0
 300 338 327 329 347 329 c 0
 366 329 385 335 404 347 c 0
 423 359 442 377 461 403 c 1x80
EndSplineSet
Validated: 1
EndChar

StartChar: exclamdown
Encoding: 161 161 97
Width: 614
GlyphClass: 2
Flags: HMW
HStem: 0 22G<154 154 154 257> 516 20G<181 230 230 230> 740 20G<198 213>
VStem: 181 49<411 537 411 537>
LayerCount: 2
Fore
SplineSet
152 694 m 0
 152 712 158 729 168 741 c 1
 178 754 191 761 205 761 c 0
 219 761 233 754 243 741 c 0
 253 728 259 712 259 694 c 0
 259 676 253 660 243 647 c 0
 233 634 219 628 205 628 c 0
 191 628 178 634 168 647 c 0
 158 660 152 676 152 694 c 0
154 0 m 1
 181 411 l 1
 181 537 l 1
 230 537 l 1
 230 411 l 1
 257 0 l 1
 154 0 l 1
EndSplineSet
Validated: 1
EndChar

StartChar: cent
Encoding: 162 162 98
Width: 614
GlyphClass: 2
Flags: HMW
VStem: 69 82<230 301 230 307> 247 38<-148 -13 -148 -13 36 496 545 678> 373 40<362 499>
LayerCount: 2
Fore
SplineSet
247 496 m 1
 214 491 190 469 174 430 c 0
 158 392 150 337 150 266 c 0
 150 194 158 139 174 101 c 0
 190 62 214 41 247 36 c 1
 247 496 l 1
425 160 m 1
 417 109 401 68 377 39 c 0
 353 10 323 -7 285 -13 c 1
 285 -148 l 1
 247 -148 l 1
 247 -13 l 1
 193 -7 149 22 116 71 c 1
 84 121 69 186 69 266 c 0
 69 347 84 412 116 462 c 0
 149 512 193 540 247 545 c 1
 247 678 l 1
 285 678 l 1
 285 545 l 1
 309 543 332 537 352 529 c 0
 372 522 393 512 413 499 c 1
 413 362 l 1
 373 362 l 1
 368 403 358 435 344 457 c 0
 330 479 311 492 285 496 c 1
 285 36 l 1
 308 40 326 52 340 74 c 0
 354 96 365 124 370 160 c 1
 425 160 l 1
EndSplineSet
Validated: 1
EndChar

StartChar: sterling
Encoding: 163 163 99
Width: 614
GlyphClass: 2
Flags: HMW
HStem: 0 60<212 391 212 435> 350 53<64 136 64 136 212 366> 711 49<289 316 278 317>
VStem: 136 76<60 350 60 350 60 350 403 551> 388 39<612 612> 391 44<60 174 0 174>
LayerCount: 2
Fore
SplineSet
427 612 m 1xf8
 388 612 l 1xf8
 386 644 376 669 362 685 c 1
 348 702 329 711 305 711 c 0
 273 711 249 698 234 672 c 0
 220 646 212 605 212 551 c 2
 212 403 l 1
 366 403 l 1
 366 350 l 1
 212 350 l 1
 212 60 l 1
 391 60 l 1
 391 174 l 1
 435 174 l 1
 435 0 l 1xf4
 64 0 l 1
 64 53 l 1
 136 53 l 1
 136 350 l 1
 64 350 l 1
 64 403 l 1
 136 403 l 1
 136 551 l 2
 136 620 151 672 180 707 c 0
 209 743 251 760 306 760 c 0
 328 760 348 758 368 754 c 0
 388 750 409 743 427 735 c 1
 427 612 l 1xf8
EndSplineSet
Validated: 1
EndChar

StartChar: currency
Encoding: 164 164 100
Width: 614
GlyphClass: 2
Flags: HMW
HStem: 108 79<248 265> 455 79<247 265 247 271>
VStem: 96 59<309 332> 357 59<309 332 309 340>
LayerCount: 2
Fore
SplineSet
350 493 m 1
 428 596 l 1
 464 549 l 1
 385 444 l 1
 396 425 404 404 409 384 c 0
 414 364 416 343 416 321 c 0
 416 298 414 276 409 256 c 0
 404 237 395 217 384 199 c 1
 461 95 l 1
 426 48 l 1
 348 151 l 1
 334 137 319 125 305 118 c 0
 290 111 274 108 257 108 c 0
 241 108 224 111 209 118 c 0
 194 125 177 135 162 148 c 1
 86 46 l 1
 50 93 l 1
 127 197 l 1
 117 217 109 238 104 258 c 0
 99 278 96 299 96 321 c 0
 96 345 99 366 104 385 c 0
 109 405 118 425 129 443 c 1
 51 547 l 1
 86 594 l 1
 163 490 l 1
 177 504 193 516 208 523 c 0
 222 530 240 534 257 534 c 0
 273 534 289 530 304 523 c 0
 319 517 335 507 350 493 c 1
357 322 m 0
 357 359 348 390 328 416 c 0
 309 442 286 455 257 455 c 0
 228 455 204 442 185 416 c 0
 166 390 155 359 155 322 c 0
 155 284 166 252 185 225 c 0
 204 199 228 186 257 186 c 0
 286 186 309 199 328 225 c 0
 348 252 357 284 357 322 c 0
EndSplineSet
Validated: 1
EndChar

StartChar: yen
Encoding: 165 165 101
Width: 614
GlyphClass: 2
Flags: HMW
HStem: 0 53<163 235 163 235 311 382> 237 52<83 235 83 235 311 462> 392 52<83 182 83 204 83 182 360 462> 693 53<22 74 22 230 164 164 164 230 358 420 466 466 466 520>
VStem: 235 76<53 237 53 237 289 322 322 322>
LayerCount: 2
Fore
SplineSet
163 0 m 1
 163 53 l 1
 235 53 l 1
 235 237 l 1
 83 237 l 1
 83 289 l 1
 235 289 l 1
 235 322 l 1
 204 392 l 1
 83 392 l 1
 83 444 l 1
 182 444 l 1
 74 693 l 1
 22 693 l 1
 22 746 l 1
 230 746 l 1
 230 693 l 1
 164 693 l 1
 292 391 l 1
 420 693 l 1
 358 693 l 1
 358 746 l 1
 520 746 l 1
 520 693 l 1
 466 693 l 1
 360 444 l 1
 462 444 l 1
 462 392 l 1
 337 392 l 1
 311 331 l 1
 311 289 l 1
 462 289 l 1
 462 237 l 1
 311 237 l 1
 311 53 l 1
 382 53 l 1
 382 0 l 1
 163 0 l 1
EndSplineSet
Validated: 1
EndChar

StartChar: brokenbar
Encoding: 166 166 102
Width: 614
GlyphClass: 2
Flags: HMW
VStem: 166 65<-175 204 -175 204 337 716>
LayerCount: 2
Fore
SplineSet
231 204 m 1
 231 -175 l 1
 166 -175 l 1
 166 204 l 1
 231 204 l 1
231 716 m 1
 231 337 l 1
 166 337 l 1
 166 716 l 1
 231 716 l 1
EndSplineSet
Validated: 1
EndChar

StartChar: section
Encoding: 167 167 103
Width: 614
GlyphClass: 2
Flags: HMW
HStem: -97 51<221 241 212 257> 709 51<243 259 226 268>
VStem: 76 66<354 375> 102 68<602 633 602 637> 316 68<31 62 25 63> 346 66<295 308>
LayerCount: 2
Fore
SplineSet
190 468 m 1xe4
 172 453 159 438 152 424 c 0
 145 411 141 394 141 377 c 0
 141 333 191 278 287 210 c 2
 299 201 l 1
 314 213 327 228 335 244 c 0
 342 259 346 278 346 296 c 0
 346 321 336 345 318 367 c 0
 300 390 257 423 190 468 c 1xe4
371 732 m 1
 371 631 l 1
 334 631 l 1
 333 656 325 674 311 688 c 0
 298 701 280 709 256 709 c 0
 229 709 208 700 193 684 c 0
 179 668 170 646 170 618 c 0
 170 585 202 547 268 502 c 0
 278 494 279 493 284 490 c 0
 335 454 370 424 387 398 c 0
 403 373 412 344 412 311 c 0xd4
 412 279 404 254 390 232 c 0
 376 212 355 193 324 179 c 1
 346 164 360 146 370 124 c 0
 380 104 385 78 385 47 c 0
 385 3 371 -31 344 -58 c 0
 317 -84 279 -97 233 -97 c 0
 208 -97 188 -95 166 -91 c 0
 144 -86 122 -79 102 -70 c 1
 102 35 l 1
 139 35 l 1
 140 8 148 -13 162 -26 c 0
 176 -39 197 -46 226 -46 c 0
 254 -46 277 -38 292 -22 c 0
 308 -6 316 17 316 45 c 0
 316 83 285 123 225 165 c 0
 216 171 217 171 213 174 c 0
 156 215 117 247 101 272 c 0
 84 298 76 326 76 359 c 0xe8
 76 391 84 417 99 439 c 0
 114 462 137 478 167 488 c 1
 144 504 128 523 118 545 c 0
 108 565 102 588 102 615 c 0xd0
 102 658 115 693 142 720 c 0
 169 747 205 760 249 760 c 0
 269 760 290 758 310 753 c 0
 330 749 351 741 371 732 c 1
EndSplineSet
Validated: 1
EndChar

StartChar: dieresis
Encoding: 168 168 104
Width: 614
GlyphClass: 2
Flags: HMW
HStem: 668 117<145 158 145 158 301 313>
LayerCount: 2
Fore
SplineSet
152 784 m 0
 164 784 175 778 184 767 c 0
 193 756 199 742 199 726 c 0
 199 709 194 695 185 684 c 0
 176 673 165 668 152 668 c 0
 139 668 127 673 118 684 c 0
 110 695 104 709 104 726 c 0
 104 742 110 756 119 767 c 0
 128 778 139 784 152 784 c 0
307 784 m 0
 320 784 331 778 340 767 c 0
 349 756 354 742 354 726 c 0
 354 709 349 695 341 684 c 0
 332 673 320 668 307 668 c 0
 294 668 282 673 273 684 c 0
 264 695 260 709 260 726 c 0
 260 742 265 756 274 767 c 0
 283 778 295 784 307 784 c 0
EndSplineSet
Validated: 1
EndChar

StartChar: copyright
Encoding: 169 169 105
Width: 614
GlyphClass: 2
Flags: HMW
HStem: 0 51<237 257 237 259> 151 39<238 255 238 259> 553 39<239 254 233 256> 691 51<237 257>
VStem: 69 25<348 392 348 396> 149 41<340 401 340 403> 303 29<287 287> 304 20<447 554> 401 25<348 393>
LayerCount: 2
Fore
SplineSet
332 287 m 1xfe80
 328 243 317 209 303 185 c 0
 289 161 270 151 247 151 c 0
 217 151 193 171 175 211 c 0
 158 251 149 304 149 371 c 0
 149 438 158 491 176 531 c 0
 193 571 217 592 247 592 c 0
 259 592 273 589 285 583 c 0
 297 577 312 567 325 554 c 1
 325 447 l 1
 304 447 l 1xfd80
 302 483 296 511 287 527 c 0
 278 544 264 553 248 553 c 0
 229 553 215 538 205 507 c 0
 196 477 191 431 191 371 c 0
 191 311 196 265 205 234 c 0
 215 204 229 189 247 189 c 0
 262 189 275 198 284 213 c 0
 293 229 300 254 303 287 c 1
 332 287 l 1xfe80
247 742 m 0
 272 742 295 733 315 715 c 0
 337 697 356 670 373 633 c 0
 390 597 404 557 412 513 c 0
 421 469 425 422 425 371 c 0
 425 320 421 272 412 229 c 0
 404 185 390 146 373 110 c 0
 356 73 337 46 315 28 c 0
 295 10 272 0 247 0 c 0
 222 0 200 10 180 28 c 0
 158 46 138 73 121 110 c 0
 104 146 90 185 82 229 c 0
 73 272 69 320 69 371 c 0
 69 422 73 469 82 513 c 0
 90 557 104 597 121 633 c 0
 138 670 158 697 180 715 c 0
 200 733 222 742 247 742 c 0
247 691 m 0
 225 691 207 683 189 668 c 0
 171 653 153 629 139 597 c 0
 125 566 113 532 105 494 c 0
 98 455 94 414 94 371 c 0
 94 327 98 287 105 249 c 0
 113 211 125 177 139 145 c 0
 153 113 171 90 189 75 c 0
 207 60 225 51 247 51 c 0
 269 51 289 60 307 75 c 0
 325 90 342 113 356 145 c 0
 370 176 382 211 389 249 c 0
 396 286 401 327 401 371 c 0
 401 415 396 456 389 494 c 0
 382 532 370 566 356 597 c 0
 342 629 325 653 307 668 c 0
 289 683 269 691 247 691 c 0
EndSplineSet
Validated: 1
EndChar

StartChar: ordfeminine
Encoding: 170 170 106
Width: 614
GlyphClass: 2
Flags: HMW
HStem: 267 52<98 378 98 378> 369 42<214 216> 378 42<368 399 368 399> 572 38<226 232 232 308> 722 38<214 233>
VStem: 82 66<480 506 480 508> 308 59<378 609 418 609 499 572 572 572 420 633 420 647>
LayerCount: 2
Fore
SplineSet
368 609 m 2xde
 368 420 l 1
 399 420 l 1
 399 378 l 1
 308 378 l 1xbe
 308 418 l 1
 295 402 280 388 264 381 c 0
 248 373 227 369 204 369 c 0
 166 369 138 378 115 401 c 0
 92 423 82 452 82 489 c 0
 82 527 94 557 120 579 c 0
 146 601 180 610 226 610 c 2
 308 610 l 1
 308 633 l 2
 308 662 300 683 286 698 c 0
 271 713 248 722 220 722 c 0
 197 722 178 716 165 705 c 0
 151 694 141 676 138 652 c 1
 109 652 l 1
 109 731 l 1
 129 740 149 748 168 753 c 0
 186 758 205 760 223 760 c 0
 270 760 306 748 331 722 c 0
 356 696 368 658 368 609 c 2xde
308 499 m 2
 308 572 l 1
 232 572 l 2
 204 572 183 566 169 553 c 0
 155 540 147 520 147 494 c 0
 147 467 154 445 168 432 c 1
 181 418 200 411 227 411 c 0xde
 252 411 272 419 286 435 c 0
 300 450 308 472 308 499 c 2
98 319 m 1
 378 319 l 1
 378 267 l 1
 98 267 l 1
 98 319 l 1
EndSplineSet
Validated: 1
EndChar

StartChar: guillemotleft
Encoding: 171 171 107
Width: 614
GlyphClass: 2
Flags: HW
LayerCount: 2
Fore
SplineSet
429 529 m 1
 429 472 l 1
 310 300 l 1
 429 128 l 1
 429 71 l 1
 241 280 l 1
 241 321 l 1
 429 529 l 1
255 529 m 1
 255 472 l 1
 136 300 l 1
 255 128 l 1
 255 71 l 1
 67 280 l 1
 67 321 l 1
 255 529 l 1
EndSplineSet
Validated: 1
EndChar

StartChar: logicalnot
Encoding: 172 172 108
Width: 614
GlyphClass: 2
Flags: HMW
HStem: 350 81<66 385 66 431>
VStem: 385 45<143 350 350 350>
LayerCount: 2
Fore
SplineSet
66 431 m 1
 431 431 l 1
 431 143 l 1
 385 143 l 1
 385 350 l 1
 66 350 l 1
 66 431 l 1
EndSplineSet
Validated: 1
EndChar

StartChar: sfthyphen
Encoding: 173 173 109
Width: 614
GlyphClass: 2
Flags: HMW
HStem: 236 78<119 324 119 324>
LayerCount: 2
Fore
SplineSet
119 313 m 1
 324 313 l 1
 324 236 l 1
 119 236 l 1
 119 313 l 1
EndSplineSet
Validated: 1
EndChar

StartChar: registered
Encoding: 174 174 110
Width: 614
GlyphClass: 2
Flags: HMW
HStem: 0 51<237 257 237 259> 176 34<160 181 216 236 160 181 332 351> 361 34<216 238 216 246> 546 34<160 181 160 259 216 246 216 216> 691 51<237 257>
VStem: 69 25<348 392 348 396> 181 36<210 361 210 395 395 546> 286 36<459 483> 401 25<348 393>
LayerCount: 2
Fore
SplineSet
216 395 m 1
 246 395 l 2
 259 395 269 402 276 415 c 0
 282 427 286 446 286 471 c 0
 286 496 282 514 276 527 c 1
 269 539 259 546 246 546 c 2
 216 546 l 1
 216 395 l 1
275 377 m 1
 282 373 287 365 292 357 c 0
 297 349 301 338 304 325 c 2
 332 210 l 1
 351 210 l 1
 351 176 l 1
 304 176 l 1
 273 303 l 2
 268 327 262 342 257 350 c 0
 252 357 246 361 238 361 c 2
 216 361 l 1
 216 210 l 1
 236 210 l 1
 236 176 l 1
 160 176 l 1
 160 210 l 1
 181 210 l 1
 181 546 l 1
 160 546 l 1
 160 580 l 1
 259 580 l 2
 279 580 297 570 307 552 c 0
 317 533 322 505 322 469 c 0
 322 441 318 419 310 404 c 0
 303 389 290 380 275 377 c 1
247 691 m 0
 225 691 207 683 189 668 c 0
 171 653 153 629 139 597 c 0
 125 566 113 532 105 494 c 0
 98 455 94 414 94 371 c 0
 94 327 98 287 105 249 c 0
 113 211 125 177 139 145 c 0
 153 113 171 90 189 75 c 0
 207 60 225 51 247 51 c 0
 269 51 289 60 307 75 c 0
 325 90 342 113 356 145 c 0
 370 176 382 211 389 249 c 0
 396 286 401 327 401 371 c 0
 401 415 396 456 389 494 c 0
 382 532 370 566 356 597 c 0
 342 629 325 653 307 668 c 0
 289 683 269 691 247 691 c 0
247 742 m 0
 272 742 295 733 315 715 c 0
 337 697 356 670 373 633 c 0
 390 597 404 557 412 513 c 0
 421 469 425 422 425 371 c 0
 425 320 421 272 412 229 c 0
 404 185 390 146 373 110 c 0
 356 73 337 46 315 28 c 0
 295 10 272 0 247 0 c 0
 222 0 200 10 180 28 c 0
 158 46 138 73 121 110 c 0
 104 146 90 185 82 229 c 0
 73 272 69 320 69 371 c 0
 69 422 73 469 82 513 c 0
 90 557 104 597 121 633 c 0
 138 670 158 697 180 715 c 0
 200 733 222 742 247 742 c 0
EndSplineSet
Validated: 1
EndChar

StartChar: macron
Encoding: 175 175 111
Width: 614
GlyphClass: 2
Flags: HMW
HStem: 689 74<108 347 108 347>
LayerCount: 2
Fore
SplineSet
108 763 m 1
 347 763 l 1
 347 689 l 1
 108 689 l 1
 108 763 l 1
EndSplineSet
Validated: 1
EndChar

StartChar: degree
Encoding: 176 176 112
Width: 614
GlyphClass: 2
Flags: HMW
HStem: 442 69<220 240 220 247> 691 69<220 238 213 240>
VStem: 103 55<588 612 588 623> 302 55<588 610 578 612>
LayerCount: 2
Fore
SplineSet
230 691 m 0
 210 691 192 682 179 665 c 0
 165 648 158 626 158 600 c 0
 158 574 165 554 179 537 c 0
 193 520 210 511 230 511 c 0
 250 511 268 520 281 537 c 0
 295 554 302 575 302 600 c 0
 302 625 295 647 281 665 c 0
 267 682 249 691 230 691 c 0
230 760 m 0
 247 760 264 756 279 748 c 0
 294 740 309 728 320 713 c 0
 332 698 342 681 348 662 c 0
 354 643 357 622 357 600 c 0
 357 556 345 519 320 488 c 0
 295 457 265 442 229 442 c 0
 193 442 163 457 139 487 c 0
 115 517 103 555 103 600 c 0
 103 645 115 683 140 714 c 0
 165 745 195 760 230 760 c 0
EndSplineSet
Validated: 1
EndChar

StartChar: plusminus
Encoding: 177 177 113
Width: 614
GlyphClass: 2
Flags: HMW
HStem: 0 85<47 469 47 469> 336 85<47 224 47 224 292 469 47 292>
VStem: 224 68<170 336 170 336 421 586>
LayerCount: 2
Fore
SplineSet
47 85 m 1
 469 85 l 1
 469 0 l 1
 47 0 l 1
 47 85 l 1
292 586 m 1
 292 421 l 1
 469 421 l 1
 469 336 l 1
 292 336 l 1
 292 170 l 1
 224 170 l 1
 224 336 l 1
 47 336 l 1
 47 421 l 1
 224 421 l 1
 224 586 l 1
 292 586 l 1
EndSplineSet
Validated: 1
EndChar

StartChar: twosuperior
Encoding: 178 178 114
Width: 614
GlyphClass: 2
Flags: HMW
HStem: 334 44<165 319 165 349> 723 37<213 224>
VStem: 285 59<622 645> 319 30<378 432 334 432>
LayerCount: 2
Fore
SplineSet
140 648 m 1xe0
 111 648 l 1
 111 727 l 1
 128 737 148 746 166 752 c 0
 184 757 204 760 222 760 c 0
 259 760 288 749 311 727 c 0
 334 704 345 677 345 642 c 0xe0
 345 601 318 552 267 494 c 2
 260 485 l 1
 165 378 l 1
 319 378 l 1
 319 432 l 1
 349 432 l 1
 349 334 l 1xd0
 107 334 l 1
 107 372 l 1
 222 499 l 2
 245 525 261 547 271 567 c 0
 281 587 285 609 285 631 c 0
 285 660 279 682 267 698 c 0
 254 714 237 723 214 723 c 0
 192 723 175 717 163 705 c 0
 151 692 143 673 140 648 c 1xe0
EndSplineSet
Validated: 1
EndChar

StartChar: threesuperior
Encoding: 179 179 115
Width: 614
GlyphClass: 2
Flags: HMW
HStem: 327 37<207 224 199 239> 543 37<188 198 198 208 188 198> 723 37<214 224>
VStem: 106 28<354 439 439 439> 115 28<658 734> 277 59<645 665> 290 62<434 461 426 464>
LayerCount: 2
Fore
SplineSet
115 734 m 1xec
 134 742 154 750 171 754 c 0
 189 758 207 760 222 760 c 0
 259 760 287 750 307 733 c 1
 326 715 336 689 336 656 c 0xec
 336 632 329 612 315 596 c 0
 301 579 282 567 256 562 c 1
 288 557 312 543 328 524 c 0
 343 505 352 478 352 444 c 0
 352 406 341 376 317 357 c 1
 294 337 259 327 216 327 c 0
 198 327 178 329 160 334 c 0
 142 338 124 345 106 354 c 1
 106 439 l 1
 133 439 l 1
 135 414 142 395 155 383 c 0
 168 370 186 364 211 364 c 0
 237 364 256 371 270 385 c 0
 284 400 290 421 290 449 c 0xf2
 290 480 284 503 270 519 c 0
 256 534 235 543 208 543 c 2
 188 543 l 1
 188 580 l 1
 198 580 l 2
 225 580 244 586 257 598 c 0
 270 610 277 628 277 653 c 0
 277 676 270 694 260 705 c 0
 250 717 233 723 213 723 c 0
 190 723 174 718 163 707 c 0
 152 697 145 680 143 658 c 1
 115 658 l 1
 115 734 l 1xec
EndSplineSet
Validated: 1
EndChar

StartChar: acute
Encoding: 180 180 116
Width: 614
GlyphClass: 2
Flags: HW
LayerCount: 2
Fore
SplineSet
230 819 m 1
 309 819 l 1
 173 631 l 1
 127 631 l 1
 230 819 l 1
EndSplineSet
Validated: 1
EndChar

StartChar: paragraph
Encoding: 182 182 117
Width: 614
GlyphClass: 2
Flags: HMW
HStem: 693 53<270 357 270 270 398 442 398 398>
VStem: 230 40<-98 325 325 325> 357 40<-98 693 -98 693>
LayerCount: 2
Fore
SplineSet
239 746 m 2
 442 746 l 1
 442 693 l 1
 398 693 l 1
 398 -98 l 1
 357 -98 l 1
 357 693 l 1
 270 693 l 1
 270 -98 l 1
 230 -98 l 1
 230 325 l 1
 176 330 135 351 105 388 c 0
 75 425 61 475 61 536 c 0
 61 599 77 650 110 688 c 1
 143 727 185 746 239 746 c 2
EndSplineSet
Validated: 1
EndChar

StartChar: periodcentered
Encoding: 183 183 118
Width: 614
GlyphClass: 2
Flags: HW
LayerCount: 2
Fore
SplineSet
168 308 m 1
 158 320 152 337 152 355 c 0
 152 373 158 390 168 402 c 1
 178 415 191 422 205 422 c 0
 219 422 233 415 243 402 c 0
 253 389 259 373 259 355 c 0
 259 337 253 321 243 308 c 0
 233 295 219 289 205 289 c 0
 191 289 178 295 168 308 c 1
EndSplineSet
Validated: 1
EndChar

StartChar: cedilla
Encoding: 184 184 119
Width: 614
GlyphClass: 2
Flags: HMW
HStem: -198 60<197 202 190 217> -20 20G<209 247 247 247>
VStem: 244 54<-126 -84>
LayerCount: 2
Fore
SplineSet
247 0 m 1
 264 -22 278 -41 286 -60 c 0
 294 -78 298 -97 298 -113 c 0
 298 -140 290 -161 273 -175 c 1
 257 -190 233 -198 203 -198 c 0
 192 -198 179 -197 168 -195 c 0
 157 -193 144 -189 132 -185 c 1
 132 -120 l 1
 142 -126 154 -130 164 -133 c 1
 174 -135 185 -137 195 -137 c 0
 209 -137 222 -132 231 -124 c 1
 239 -115 244 -103 244 -88 c 0
 244 -79 241 -66 235 -52 c 0
 229 -37 220 -20 209 0 c 1
 247 0 l 1
EndSplineSet
Validated: 1
EndChar

StartChar: onesuperior
Encoding: 185 185 120
Width: 614
GlyphClass: 2
Flags: HMW
HStem: 334 42<131 199 131 199 256 324> 731 20G<215 256 256 256>
VStem: 199 56<376 693 693 693>
LayerCount: 2
Fore
SplineSet
131 334 m 1
 131 376 l 1
 199 376 l 1
 199 693 l 1
 119 640 l 1
 119 687 l 1
 215 752 l 1
 256 752 l 1
 256 376 l 1
 324 376 l 1
 324 334 l 1
 131 334 l 1
EndSplineSet
Validated: 1
EndChar

StartChar: ordmasculine
Encoding: 186 186 121
Width: 614
GlyphClass: 2
Flags: HMW
HStem: 267 52<102 376 102 376> 369 38<225 254 225 263> 722 38<225 254>
VStem: 85 70<539 590 539 594> 324 70<539 590>
LayerCount: 2
Fore
SplineSet
239 407 m 0
 267 407 289 419 303 446 c 0
 317 473 324 512 324 564 c 0
 324 616 317 655 303 682 c 0
 289 709 267 722 239 722 c 0
 211 722 190 709 176 682 c 1
 162 654 154 615 154 564 c 0
 154 512 162 473 176 446 c 0
 190 419 211 407 239 407 c 0
239 369 m 0
 192 369 155 386 127 422 c 0
 98 458 85 505 85 564 c 0
 85 622 98 671 127 707 c 0
 155 743 192 760 239 760 c 0
 286 760 324 743 352 707 c 0
 381 671 394 622 394 564 c 0
 394 505 381 458 352 422 c 0
 324 386 286 369 239 369 c 0
102 319 m 1
 376 319 l 1
 376 267 l 1
 102 267 l 1
 102 319 l 1
EndSplineSet
Validated: 1
EndChar

StartChar: guillemotright
Encoding: 187 187 122
Width: 614
GlyphClass: 2
Flags: HW
LayerCount: 2
Fore
SplineSet
241 529 m 1
 429 321 l 1
 429 280 l 1
 241 71 l 1
 241 128 l 1
 360 300 l 1
 241 472 l 1
 241 529 l 1
67 529 m 1
 255 321 l 1
 255 280 l 1
 67 71 l 1
 67 128 l 1
 186 300 l 1
 67 472 l 1
 67 529 l 1
EndSplineSet
Validated: 1
EndChar

StartChar: questiondown
Encoding: 191 191 123
Width: 614
GlyphClass: 2
Flags: HMW
HStem: -13 49<249 276> 740 20G<268 283>
VStem: 73 84<161 209 161 215> 251 49<421 548 384 548>
LayerCount: 2
Fore
SplineSet
329 694 m 0
 329 676 323 660 313 647 c 0
 303 634 290 628 276 628 c 0
 262 628 248 634 238 647 c 0
 228 660 223 676 223 694 c 0
 223 712 228 728 238 741 c 0
 248 754 262 761 276 761 c 0
 290 761 303 754 313 741 c 1
 323 729 329 712 329 694 c 0
417 33 m 1
 388 18 363 6 337 -2 c 0
 311 -9 288 -13 265 -13 c 0
 206 -13 159 4 124 40 c 0
 89 76 73 124 73 184 c 0
 73 246 87 297 117 337 c 0
 147 376 192 405 251 421 c 1
 251 548 l 1
 300 548 l 1
 300 384 l 1
 253 370 218 346 194 312 c 0
 170 278 157 235 157 183 c 0
 157 138 168 102 187 76 c 0
 206 49 233 36 267 36 c 0
 298 36 322 47 341 69 c 0
 360 91 372 122 378 163 c 1
 417 163 l 1
 417 33 l 1
EndSplineSet
Validated: 1
EndChar

StartChar: Agrave
Encoding: 192 192 124
Width: 614
GlyphClass: 2
Flags: HMW
HStem: 0 53<29 57 107 148 29 57 337 379 470 504> 217 53<157 325 157 339 145 325> 726 20<225 293 293 293>
LayerCount: 2
Fore
SplineSet
107 53 m 1
 148 53 l 1
 148 0 l 1
 29 0 l 1
 29 53 l 1
 57 53 l 1
 225 746 l 1
 293 746 l 1
 470 53 l 1
 504 53 l 1
 504 0 l 1
 337 0 l 1
 337 53 l 1
 379 53 l 1
 339 217 l 1
 145 217 l 1
 107 53 l 1
157 270 m 1
 325 270 l 1
 238 626 l 1
 157 270 l 1
350 949 m 1
 423 817 l 1
 376 817 l 1
 271 949 l 1
 350 949 l 1
EndSplineSet
Validated: 1
EndChar

StartChar: Aacute
Encoding: 193 193 125
Width: 614
GlyphClass: 2
Flags: HMW
HStem: 0 53<29 57 107 148 29 57 337 379 470 504> 217 53<157 325 157 339 145 325> 726 20<225 293 293 293>
LayerCount: 2
Fore
SplineSet
107 53 m 1
 148 53 l 1
 148 0 l 1
 29 0 l 1
 29 53 l 1
 57 53 l 1
 225 746 l 1
 293 746 l 1
 470 53 l 1
 504 53 l 1
 504 0 l 1
 337 0 l 1
 337 53 l 1
 379 53 l 1
 339 217 l 1
 145 217 l 1
 107 53 l 1
157 270 m 1
 325 270 l 1
 238 626 l 1
 157 270 l 1
345 949 m 1
 423 949 l 1
 318 817 l 1
 271 817 l 1
 345 949 l 1
EndSplineSet
Validated: 1
EndChar

StartChar: Acircumflex
Encoding: 194 194 126
Width: 614
GlyphClass: 2
Flags: HMW
HStem: 0 53<29 57 107 148 29 57 337 379 470 504> 217 53<157 325 157 339 145 325> 726 20<225 293 293 293>
LayerCount: 2
Fore
SplineSet
107 53 m 1
 148 53 l 1
 148 0 l 1
 29 0 l 1
 29 53 l 1
 57 53 l 1
 225 746 l 1
 293 746 l 1
 470 53 l 1
 504 53 l 1
 504 0 l 1
 337 0 l 1
 337 53 l 1
 379 53 l 1
 339 217 l 1
 145 217 l 1
 107 53 l 1
157 270 m 1
 325 270 l 1
 238 626 l 1
 157 270 l 1
312 949 m 1
 383 949 l 1
 475 817 l 1
 429 817 l 1
 347 898 l 1
 266 817 l 1
 220 817 l 1
 312 949 l 1
EndSplineSet
Validated: 1
EndChar

StartChar: Atilde
Encoding: 195 195 127
Width: 614
GlyphClass: 2
Flags: HMW
HStem: 0 53<29 57 107 148 29 57 337 379 470 504> 217 53<157 325 157 339 145 325> 726 20<225 293 293 293> 834 58<403 410 403 412> 885 58<286 294>
VStem: 216 39 441 39
LayerCount: 2
Fore
SplineSet
107 53 m 1xe0
 148 53 l 1
 148 0 l 1
 29 0 l 1
 29 53 l 1
 57 53 l 1
 225 746 l 1
 293 746 l 1
 470 53 l 1
 504 53 l 1
 504 0 l 1
 337 0 l 1
 337 53 l 1
 379 53 l 1
 339 217 l 1
 145 217 l 1
 107 53 l 1xe0
157 270 m 1
 325 270 l 1
 238 626 l 1
 157 270 l 1
343 857 m 1x16
 322 871 l 2
 317 875 312 879 306 882 c 0
 301 884 296 885 291 885 c 0x0e
 281 885 272 879 265 870 c 0
 259 861 255 849 254 834 c 1
 216 834 l 1x16
 217 868 222 894 236 913 c 0
 249 932 267 943 290 943 c 0x0e
 300 943 310 941 318 938 c 0
 326 935 338 929 352 919 c 2
 371 905 l 2
 377 901 384 898 390 895 c 0
 396 893 400 892 405 892 c 0x16
 415 892 425 896 431 905 c 0
 437 914 441 927 441 943 c 1
 479 943 l 1x0e
 478 908 471 880 457 862 c 0
 443 843 426 834 400 834 c 0
 382 834 363 841 344 856 c 1
 343 857 l 1x16
EndSplineSet
Validated: 1
EndChar

StartChar: Adieresis
Encoding: 196 196 128
Width: 614
GlyphClass: 2
Flags: HMW
HStem: 0 53<29 57 107 148 29 57 337 379 470 504> 217 53<157 325 157 339 145 325> 726 20<225 293 293 293> 825 117<263 275 263 276 418 432>
LayerCount: 2
Fore
SplineSet
107 53 m 1
 148 53 l 1
 148 0 l 1
 29 0 l 1
 29 53 l 1
 57 53 l 1
 225 746 l 1
 293 746 l 1
 470 53 l 1
 504 53 l 1
 504 0 l 1
 337 0 l 1
 337 53 l 1
 379 53 l 1
 339 217 l 1
 145 217 l 1
 107 53 l 1
157 270 m 1
 325 270 l 1
 238 626 l 1
 157 270 l 1
269 942 m 0
 281 942 293 936 302 925 c 0
 311 913 316 899 316 884 c 0
 316 868 311 853 303 842 c 0
 294 831 282 825 269 825 c 0
 256 825 244 831 236 842 c 0
 227 853 223 868 223 884 c 0
 223 899 227 913 236 925 c 0
 245 936 256 942 269 942 c 0
425 942 m 0
 438 942 448 936 457 925 c 0
 466 913 472 899 472 884 c 0
 472 868 466 853 457 842 c 0
 449 831 438 825 425 825 c 0
 412 825 401 831 392 842 c 0
 384 853 379 868 379 884 c 0
 379 899 383 913 392 925 c 0
 401 936 413 942 425 942 c 0
EndSplineSet
Validated: 1
EndChar

StartChar: Aring
Encoding: 197 197 129
Width: 614
GlyphClass: 2
Flags: HMW
HStem: 0 53<20 63 20 63 105 160 342 397 473 522> 217 53<161 342 161 355 146 342> 889 61<261 275>
VStem: 177 41<803 823 803 831> 318 41<803 823>
LayerCount: 2
Fore
SplineSet
304 760 m 1
 314 774 318 791 318 813 c 0
 318 833 314 852 304 866 c 1
 295 881 281 889 268 889 c 0
 254 889 242 881 232 867 c 0
 223 853 218 835 218 813 c 0
 218 791 223 774 232 760 c 0
 242 745 254 737 268 737 c 0
 281 737 295 745 304 760 c 1
161 270 m 1
 342 270 l 1
 252 626 l 1
 161 270 l 1
20 0 m 1
 20 53 l 1
 63 53 l 1
 226 692 l 1
 210 704 198 721 189 741 c 0
 181 760 177 785 177 813 c 0
 177 851 187 883 204 910 c 0
 221 937 242 950 268 950 c 0
 294 950 316 937 333 910 c 0
 350 883 359 851 359 813 c 0
 359 786 356 763 347 741 c 0
 338 719 325 703 310 692 c 1
 473 53 l 1
 522 53 l 1
 522 0 l 1
 342 0 l 1
 342 53 l 1
 397 53 l 1
 355 217 l 1
 146 217 l 1
 105 53 l 1
 160 53 l 1
 160 0 l 1
 20 0 l 1
EndSplineSet
Validated: 1
EndChar

StartChar: AE
Encoding: 198 198 130
Width: 614
GlyphClass: 2
Flags: HMW
HStem: 0 53<29 61 92 132 29 61 212 258> 0 61<306 475 306 504> 217 53<140 258 140 258 129 258> 374 61<306 424 306 424> 685 61<306 471 306 306> 693 53<151 202 151 500 233 258 233 233>
VStem: 258 48<61 217 217 217 270 374 435 685> 424 30<281 374 374 374 435 528 281 528> 471 30<581 685 685 685> 475 30<61 166 0 166>
LayerCount: 2
Fore
SplineSet
140 270 m 1x37
 258 270 l 1
 258 693 l 1
 233 693 l 1
 140 270 l 1x37
212 0 m 1xb340
 212 53 l 1
 258 53 l 1
 258 217 l 1
 129 217 l 1
 92 53 l 1
 132 53 l 1
 132 0 l 1
 29 0 l 1
 29 53 l 1
 61 53 l 1
 202 693 l 1
 151 693 l 1
 151 746 l 1xb740
 500 746 l 1
 500 581 l 1
 471 581 l 1
 471 685 l 1x3b80
 306 685 l 1
 306 435 l 1
 424 435 l 1
 424 528 l 1
 453 528 l 1
 453 281 l 1
 424 281 l 1
 424 374 l 1
 306 374 l 1
 306 61 l 1
 475 61 l 1
 475 166 l 1
 504 166 l 1
 504 0 l 1x7b40
 212 0 l 1xb340
EndSplineSet
Validated: 1
EndChar

StartChar: Ccedilla
Encoding: 199 199 131
Width: 614
GlyphClass: 2
Flags: HMW
HStem: -198 60<543 549 536 564> -20 20<555 594 594 594> -14 53<158 188 154 196> 707 53<154 190 145 191>
VStem: -40 92 289 53 591 54
LayerCount: 2
Fore
SplineSet
356 198 m 1x3c
 344 128 321 75 290 39 c 0
 259 3 220 -14 173 -14 c 0
 143 -14 117 -6 92 10 c 1
 67 27 45 51 26 84 c 0
 4 121 -12 164 -23 211 c 0
 -34 259 -40 313 -40 373 c 0
 -40 489 -20 581 20 653 c 1
 60 724 112 760 178 760 c 0
 203 760 228 754 256 744 c 0
 284 733 312 717 344 695 c 1
 344 523 l 1
 289 523 l 1
 283 585 272 633 253 662 c 1
 235 692 208 707 174 707 c 0
 134 707 103 678 83 622 c 0
 63 566 52 483 52 373 c 0
 52 263 63 180 83 124 c 0
 103 68 134 39 174 39 c 0
 202 39 225 52 243 79 c 0
 261 106 274 145 282 198 c 1
 356 198 l 1x3c
594 0 m 1xc2
 611 -22 623 -41 631 -60 c 0
 639 -78 644 -97 644 -113 c 0
 644 -140 636 -161 619 -175 c 1
 603 -190 580 -198 550 -198 c 0
 539 -198 526 -197 515 -195 c 0
 504 -193 491 -189 479 -185 c 1
 479 -120 l 1
 489 -126 501 -130 511 -133 c 1
 521 -135 531 -137 541 -137 c 0
 555 -137 568 -132 577 -124 c 1
 585 -115 591 -103 591 -88 c 0
 591 -79 587 -66 581 -52 c 0
 575 -37 566 -20 555 0 c 1
 594 0 l 1xc2
EndSplineSet
Validated: 1
EndChar

StartChar: Egrave
Encoding: 200 200 132
Width: 614
GlyphClass: 2
Flags: HMW
HStem: 0 53<50 101 50 101 50 464> 0 61<182 414 182 464> 374 61<182 328 182 328> 685 61<182 407 182 182> 693 53<50 101 50 456>
VStem: 101 81<61 374 435 685> 328 49<281 374 374 374 435 528 281 528> 407 49<581 685 685 685> 414 49<61 166 0 166>
LayerCount: 2
Fore
SplineSet
50 0 m 1x6680
 50 53 l 1
 101 53 l 1
 101 693 l 1
 50 693 l 1
 50 746 l 1x6e80
 456 746 l 1
 456 581 l 1
 407 581 l 1
 407 685 l 1x37
 182 685 l 1
 182 435 l 1
 328 435 l 1
 328 528 l 1
 378 528 l 1
 378 281 l 1
 328 281 l 1
 328 374 l 1
 182 374 l 1
 182 61 l 1
 414 61 l 1
 414 166 l 1
 464 166 l 1
 464 0 l 1xb680
 50 0 l 1x6680
324 949 m 1x00
 397 817 l 1
 351 817 l 1
 245 949 l 1
 324 949 l 1x00
EndSplineSet
Validated: 1
EndChar

StartChar: Eacute
Encoding: 201 201 133
Width: 614
GlyphClass: 2
Flags: HMW
HStem: 0 53<50 101 50 101 50 464> 0 61<182 414 182 464> 374 61<182 328 182 328> 685 61<182 407 182 182> 693 53<50 101 50 456>
VStem: 101 81<61 374 435 685> 328 49<281 374 374 374 435 528 281 528> 407 49<581 685 685 685> 414 49<61 166 0 166>
LayerCount: 2
Fore
SplineSet
50 0 m 1x6680
 50 53 l 1
 101 53 l 1
 101 693 l 1
 50 693 l 1
 50 746 l 1x6e80
 456 746 l 1
 456 581 l 1
 407 581 l 1
 407 685 l 1x37
 182 685 l 1
 182 435 l 1
 328 435 l 1
 328 528 l 1
 378 528 l 1
 378 281 l 1
 328 281 l 1
 328 374 l 1
 182 374 l 1
 182 61 l 1
 414 61 l 1
 414 166 l 1
 464 166 l 1
 464 0 l 1xb680
 50 0 l 1x6680
318 949 m 1x00
 397 949 l 1
 293 817 l 1
 245 817 l 1
 318 949 l 1x00
EndSplineSet
Validated: 1
EndChar

StartChar: Ecircumflex
Encoding: 202 202 134
Width: 614
GlyphClass: 2
Flags: HMW
HStem: 0 53<50 101 50 101 50 464> 0 61<182 414 182 464> 374 61<182 328 182 328> 685 61<182 407 182 182> 693 53<50 101 50 456>
VStem: 101 81<61 374 435 685> 328 49<281 374 374 374 435 528 281 528> 407 49<581 685 685 685> 414 49<61 166 0 166>
LayerCount: 2
Fore
SplineSet
50 0 m 1x6680
 50 53 l 1
 101 53 l 1
 101 693 l 1
 50 693 l 1
 50 746 l 1x6e80
 456 746 l 1
 456 581 l 1
 407 581 l 1
 407 685 l 1x37
 182 685 l 1
 182 435 l 1
 328 435 l 1
 328 528 l 1
 378 528 l 1
 378 281 l 1
 328 281 l 1
 328 374 l 1
 182 374 l 1
 182 61 l 1
 414 61 l 1
 414 166 l 1
 464 166 l 1
 464 0 l 1xb680
 50 0 l 1x6680
286 949 m 1x00
 357 949 l 1
 449 817 l 1
 402 817 l 1
 321 898 l 1
 240 817 l 1
 193 817 l 1
 286 949 l 1x00
EndSplineSet
Validated: 1
EndChar

StartChar: Edieresis
Encoding: 203 203 135
Width: 614
GlyphClass: 2
Flags: HMW
HStem: 0 53<50 101 50 101 50 464> 0 61<182 414 182 464> 374 61<182 328 182 328> 685 61<182 407 182 182> 693 53<50 101 50 456> 825 117<237 250 237 251 393 406>
VStem: 101 81<61 374 435 685> 328 49<281 374 374 374 435 528 281 528> 407 49<581 685 685 685> 414 49<61 166 0 166>
LayerCount: 2
Fore
SplineSet
50 0 m 1xa340
 50 53 l 1
 101 53 l 1
 101 693 l 1
 50 693 l 1
 50 746 l 1xab40
 456 746 l 1
 456 581 l 1
 407 581 l 1
 407 685 l 1x3380
 182 685 l 1
 182 435 l 1
 328 435 l 1
 328 528 l 1
 378 528 l 1
 378 281 l 1
 328 281 l 1
 328 374 l 1
 182 374 l 1
 182 61 l 1
 414 61 l 1
 414 166 l 1
 464 166 l 1
 464 0 l 1x7340
 50 0 l 1xa340
243 942 m 0x04
 255 942 267 936 276 925 c 0
 285 913 290 899 290 884 c 0
 290 868 285 853 277 842 c 0
 268 831 256 825 243 825 c 0
 230 825 219 831 211 842 c 0
 202 853 197 868 197 884 c 0
 197 899 202 913 211 925 c 0
 220 936 230 942 243 942 c 0x04
399 942 m 0
 412 942 423 936 432 925 c 0
 441 913 446 899 446 884 c 0
 446 868 441 853 432 842 c 0
 424 831 412 825 399 825 c 0
 386 825 374 831 365 842 c 0
 357 853 353 868 353 884 c 0
 353 899 357 913 366 925 c 0
 375 936 387 942 399 942 c 0
EndSplineSet
Validated: 1
EndChar

StartChar: Igrave
Encoding: 204 204 136
Width: 614
GlyphClass: 2
Flags: HMW
HStem: 0 53<83 199 281 398 83 199> 693 53<83 199 83 398 281 281 281 398>
VStem: 199 81<53 693>
LayerCount: 2
Fore
SplineSet
281 53 m 1
 398 53 l 1
 398 0 l 1
 83 0 l 1
 83 53 l 1
 199 53 l 1
 199 693 l 1
 83 693 l 1
 83 746 l 1
 398 746 l 1
 398 693 l 1
 281 693 l 1
 281 53 l 1
285 949 m 1
 358 817 l 1
 312 817 l 1
 207 949 l 1
 285 949 l 1
EndSplineSet
Validated: 1
EndChar

StartChar: Iacute
Encoding: 205 205 137
Width: 614
GlyphClass: 2
Flags: HMW
HStem: 0 53<83 199 281 398 83 199> 693 53<83 199 83 398 281 281 281 398>
VStem: 199 81<53 693>
LayerCount: 2
Fore
SplineSet
281 53 m 1
 398 53 l 1
 398 0 l 1
 83 0 l 1
 83 53 l 1
 199 53 l 1
 199 693 l 1
 83 693 l 1
 83 746 l 1
 398 746 l 1
 398 693 l 1
 281 693 l 1
 281 53 l 1
279 949 m 1
 358 949 l 1
 254 817 l 1
 207 817 l 1
 279 949 l 1
EndSplineSet
Validated: 1
EndChar

StartChar: Icircumflex
Encoding: 206 206 138
Width: 614
GlyphClass: 2
Flags: HMW
HStem: 0 53<79 195 277 394 79 195> 693 53<79 195 79 394 277 277 277 394>
VStem: 195 81<53 693>
LayerCount: 2
Fore
SplineSet
277 53 m 1
 394 53 l 1
 394 0 l 1
 79 0 l 1
 79 53 l 1
 195 53 l 1
 195 693 l 1
 79 693 l 1
 79 746 l 1
 394 746 l 1
 394 693 l 1
 277 693 l 1
 277 53 l 1
243 949 m 1
 314 949 l 1
 406 817 l 1
 359 817 l 1
 278 898 l 1
 197 817 l 1
 150 817 l 1
 243 949 l 1
EndSplineSet
Validated: 1
EndChar

StartChar: Idieresis
Encoding: 207 207 139
Width: 614
GlyphClass: 2
Flags: HMW
HStem: 0 53<80 197 278 395 80 197> 693 53<80 197 80 395 278 278 278 395> 825 117<195 208 195 208 351 364>
VStem: 197 81<53 693>
LayerCount: 2
Fore
SplineSet
278 53 m 1
 395 53 l 1
 395 0 l 1
 80 0 l 1
 80 53 l 1
 197 53 l 1
 197 693 l 1
 80 693 l 1
 80 746 l 1
 395 746 l 1
 395 693 l 1
 278 693 l 1
 278 53 l 1
202 942 m 0
 214 942 225 936 234 925 c 0
 243 913 248 899 248 884 c 0
 248 868 244 853 236 842 c 0
 227 831 215 825 202 825 c 0
 189 825 177 831 169 842 c 0
 160 853 155 868 155 884 c 0
 155 899 160 913 169 925 c 0
 178 936 189 942 202 942 c 0
357 942 m 0
 370 942 381 936 390 925 c 0
 399 913 403 899 403 884 c 0
 403 868 399 853 390 842 c 0
 382 831 370 825 357 825 c 0
 344 825 333 831 324 842 c 0
 316 853 310 868 310 884 c 0
 310 899 316 913 325 925 c 0
 334 936 345 942 357 942 c 0
EndSplineSet
Validated: 1
EndChar

StartChar: Eth
Encoding: 208 208 140
Width: 614
GlyphClass: 2
Flags: HMW
HStem: 0 53<51 107 51 107 167 222 222 226> 359 62<48 107 48 107 167 266> 693 53<51 107 51 226 167 222 167 167>
VStem: 107 59<53 359 422 693> 400 68<322 426>
LayerCount: 2
Fore
SplineSet
167 53 m 1
 222 53 l 2
 279 53 323 81 354 136 c 0
 385 191 400 271 400 374 c 0
 400 477 385 556 354 611 c 0
 323 665 279 693 222 693 c 2
 167 693 l 1
 167 422 l 1
 266 422 l 1
 266 359 l 1
 167 359 l 1
 167 53 l 1
51 0 m 1
 51 53 l 1
 107 53 l 1
 107 359 l 1
 48 359 l 1
 48 422 l 1
 107 422 l 1
 107 693 l 1
 51 693 l 1
 51 746 l 1
 226 746 l 2
 303 746 362 714 404 648 c 0
 446 582 468 491 468 374 c 0
 468 257 446 165 404 99 c 0
 361 32 302 0 226 0 c 2
 51 0 l 1
EndSplineSet
Validated: 1
EndChar

StartChar: Ntilde
Encoding: 209 209 141
Width: 614
GlyphClass: 2
Flags: HMW
HStem: 0 53<29 77 29 77 126 198> 693 53<29 77 29 150 361 409 458 458 458 506> 834 58<417 425 417 427> 885 58<300 308>
VStem: 77 49<53 594 53 693> 229 39<834 834> 409 49<178 693 -14 693> 455 39<935 943>
LayerCount: 2
Fore
SplineSet
29 0 m 1xca
 29 53 l 1
 77 53 l 1
 77 693 l 1
 29 693 l 1
 29 746 l 1
 150 746 l 1
 409 178 l 1
 409 693 l 1
 361 693 l 1
 361 746 l 1
 506 746 l 1
 506 693 l 1
 458 693 l 1
 458 -14 l 1
 410 -14 l 1
 126 594 l 1
 126 53 l 1
 198 53 l 1
 198 0 l 1
 29 0 l 1xca
356 857 m 1x25
 337 871 l 2
 332 875 327 879 321 882 c 0
 316 884 311 885 306 885 c 0x15
 296 885 287 879 280 870 c 0
 274 861 269 849 268 834 c 1
 229 834 l 1x25
 230 868 237 894 251 913 c 0
 264 932 282 943 305 943 c 0x15
 315 943 324 941 332 938 c 0
 340 935 353 929 367 919 c 2
 386 905 l 2
 392 901 398 898 404 895 c 0
 410 893 415 892 420 892 c 0x25
 430 892 439 896 445 905 c 0
 451 914 455 927 455 943 c 1
 494 943 l 1x15
 493 908 486 880 472 862 c 0
 458 843 440 834 414 834 c 0
 396 834 377 841 358 856 c 1
 356 857 l 1x25
EndSplineSet
Validated: 1
EndChar

StartChar: Ograve
Encoding: 210 210 142
Width: 614
GlyphClass: 2
Flags: HMW
HStem: -14 53<213 291 213 324> 707 53<204 300>
VStem: 52 92 361 91
LayerCount: 2
Fore
SplineSet
252 39 m 0
 331 39 361 132 361 373 c 0
 361 570 348 707 252 707 c 0
 157 707 144 571 144 373 c 0
 144 132 173 39 252 39 c 0
252 -14 m 0
 109 -14 52 145 52 373 c 0
 52 600 108 760 252 760 c 0
 396 760 452 610 452 373 c 0
 452 146 396 -14 252 -14 c 0
386 949 m 1
 460 817 l 1
 413 817 l 1
 309 949 l 1
 386 949 l 1
EndSplineSet
Validated: 1
EndChar

StartChar: Oacute
Encoding: 211 211 143
Width: 614
GlyphClass: 2
Flags: HMW
HStem: -14 53<213 291 213 324> 707 53<204 300>
VStem: 52 92 361 91
LayerCount: 2
Fore
SplineSet
252 39 m 0
 331 39 361 132 361 373 c 0
 361 570 348 707 252 707 c 0
 157 707 144 571 144 373 c 0
 144 132 173 39 252 39 c 0
252 -14 m 0
 109 -14 52 145 52 373 c 0
 52 600 108 760 252 760 c 0
 396 760 452 610 452 373 c 0
 452 146 396 -14 252 -14 c 0
381 949 m 1
 460 949 l 1
 355 817 l 1
 309 817 l 1
 381 949 l 1
EndSplineSet
Validated: 1
EndChar

StartChar: Ocircumflex
Encoding: 212 212 144
Width: 614
GlyphClass: 2
Flags: HMW
HStem: -14 53<196 275 196 307> 707 53<188 283>
VStem: 34 92 344 91
LayerCount: 2
Fore
SplineSet
235 39 m 0
 314 39 344 132 344 373 c 0
 344 570 331 707 235 707 c 0
 140 707 126 571 126 373 c 0
 126 132 156 39 235 39 c 0
235 -14 m 0
 92 -14 34 145 34 373 c 0
 34 600 91 760 235 760 c 0
 379 760 436 610 436 373 c 0
 436 146 379 -14 235 -14 c 0
332 949 m 1
 402 949 l 1
 495 817 l 1
 448 817 l 1
 367 898 l 1
 286 817 l 1
 239 817 l 1
 332 949 l 1
EndSplineSet
Validated: 1
EndChar

StartChar: Otilde
Encoding: 213 213 145
Width: 614
GlyphClass: 2
Flags: HMW
HStem: -14 53<194 273 194 305> 707 53<186 282> 834 58<421 429 421 430> 885 58<304 313>
VStem: 33 92 234 39<834 834> 342 91 459 39<935 943>
LayerCount: 2
Fore
SplineSet
234 39 m 0xca
 313 39 342 132 342 373 c 0
 342 570 330 707 234 707 c 0
 139 707 124 571 124 373 c 0
 124 132 155 39 234 39 c 0xca
233 -14 m 0
 90 -14 33 145 33 373 c 0
 33 600 89 760 233 760 c 0
 377 760 433 610 433 373 c 0
 433 146 377 -14 233 -14 c 0
361 857 m 1x25
 341 871 l 2
 336 875 331 879 325 882 c 0
 320 884 315 885 310 885 c 0x15
 300 885 291 879 284 870 c 0
 278 861 273 849 272 834 c 1
 234 834 l 1x25
 235 868 241 894 255 913 c 0
 268 932 286 943 309 943 c 0x15
 319 943 328 941 336 938 c 0
 344 935 356 929 370 919 c 2
 390 905 l 2
 396 901 402 898 408 895 c 0
 414 893 418 892 423 892 c 0x25
 433 892 443 896 449 905 c 0
 455 914 459 927 459 943 c 1
 497 943 l 1x15
 496 908 491 880 477 862 c 0
 463 843 444 834 418 834 c 0
 400 834 381 841 362 856 c 1
 361 857 l 1x25
EndSplineSet
Validated: 1
EndChar

StartChar: Odieresis
Encoding: 214 214 146
Width: 614
GlyphClass: 2
Flags: HMW
HStem: -14 53<197 275 197 308> 707 53<188 284> 825 117<283 297 283 297 440 452>
VStem: 35 92 345 91
LayerCount: 2
Fore
SplineSet
236 39 m 0
 315 39 345 132 345 373 c 0
 345 570 332 707 236 707 c 0
 141 707 127 571 127 373 c 0
 127 132 157 39 236 39 c 0
236 -14 m 0
 93 -14 35 145 35 373 c 0
 35 600 92 760 236 760 c 0
 380 760 436 610 436 373 c 0
 436 146 380 -14 236 -14 c 0
290 942 m 0
 302 942 314 936 323 925 c 0
 332 913 337 899 337 884 c 0
 337 868 331 853 323 842 c 0
 314 831 303 825 290 825 c 0
 277 825 266 831 258 842 c 0
 249 853 243 868 243 884 c 0
 243 899 249 913 258 925 c 0
 267 936 277 942 290 942 c 0
446 942 m 0
 459 942 470 936 479 925 c 0
 488 913 492 899 492 884 c 0
 492 868 488 853 479 842 c 0
 471 831 459 825 446 825 c 0
 433 825 421 831 412 842 c 0
 404 853 399 868 399 884 c 0
 399 899 404 913 413 925 c 0
 422 936 434 942 446 942 c 0
EndSplineSet
Validated: 1
EndChar

StartChar: Oslash
Encoding: 216 216 147
Width: 614
GlyphClass: 2
Flags: HMW
HStem: -14 53<248 284 248 292> 707 53<236 273>
VStem: 48 67<352 428 352 430> 405 67<317 392>
LayerCount: 2
Fore
SplineSet
369 620 m 1
 357 650 341 671 323 685 c 0
 305 699 285 707 260 707 c 0
 212 707 177 679 152 623 c 0
 127 567 115 484 115 373 c 0
 115 333 117 297 120 265 c 0
 123 232 128 203 134 176 c 1
 369 620 l 1
150 128 m 1
 162 98 178 75 196 61 c 0
 214 46 235 39 260 39 c 0
 308 39 343 68 368 123 c 0
 393 179 405 262 405 373 c 0
 405 412 403 447 400 480 c 0
 396 513 391 542 385 570 c 1
 150 128 l 1
421 638 m 1
 438 602 451 562 459 518 c 0
 467 474 471 426 471 373 c 0
 471 257 453 164 413 93 c 1
 374 21 323 -14 260 -14 c 0
 232 -14 208 -7 184 7 c 0
 160 21 139 43 120 72 c 1
 67 -29 l 1
 44 6 l 1
 99 110 l 1
 83 145 69 183 61 227 c 0
 53 270 48 320 48 373 c 0
 48 488 68 581 107 652 c 0
 147 724 198 760 260 760 c 0
 288 760 312 752 336 738 c 0
 360 725 382 704 400 676 c 1
 451 775 l 1
 474 739 l 1
 421 638 l 1
EndSplineSet
Validated: 1
EndChar

StartChar: Ugrave
Encoding: 217 217 148
Width: 614
GlyphClass: 2
Flags: HMW
HStem: -14 66<238 332 238 339> 693 53<28 80 28 212 161 161 161 212 355 406 455 455 455 507>
VStem: 80 81<297 307 307 693> 406 49
LayerCount: 2
Fore
SplineSet
80 693 m 1
 28 693 l 1
 28 746 l 1
 212 746 l 1
 212 693 l 1
 161 693 l 1
 161 307 l 2
 161 122 192 51 284 51 c 0
 381 51 406 137 406 307 c 2
 406 693 l 1
 355 693 l 1
 355 746 l 1
 507 746 l 1
 507 693 l 1
 455 693 l 1
 455 297 l 2
 455 82 409 -14 269 -14 c 0
 129 -14 80 82 80 297 c 2
 80 693 l 1
309 949 m 1
 382 817 l 1
 335 817 l 1
 231 949 l 1
 309 949 l 1
EndSplineSet
Validated: 1
EndChar

StartChar: Uacute
Encoding: 218 218 149
Width: 614
GlyphClass: 2
Flags: HMW
HStem: -14 66<238 332 238 339> 693 53<28 80 28 212 161 161 161 212 355 406 455 455 455 507>
VStem: 80 81<297 307 307 693> 406 49
LayerCount: 2
Fore
SplineSet
80 693 m 1
 28 693 l 1
 28 746 l 1
 212 746 l 1
 212 693 l 1
 161 693 l 1
 161 307 l 2
 161 122 192 51 284 51 c 0
 381 51 406 137 406 307 c 2
 406 693 l 1
 355 693 l 1
 355 746 l 1
 507 746 l 1
 507 693 l 1
 455 693 l 1
 455 297 l 2
 455 82 409 -14 269 -14 c 0
 129 -14 80 82 80 297 c 2
 80 693 l 1
303 949 m 1
 382 949 l 1
 277 817 l 1
 231 817 l 1
 303 949 l 1
EndSplineSet
Validated: 1
EndChar

StartChar: Ucircumflex
Encoding: 219 219 150
Width: 614
GlyphClass: 2
Flags: HMW
HStem: -14 66<238 332 238 339> 693 53<28 80 28 212 161 161 161 212 355 406 455 455 455 507>
VStem: 80 81<297 307 307 693> 406 49
LayerCount: 2
Fore
SplineSet
80 693 m 1
 28 693 l 1
 28 746 l 1
 212 746 l 1
 212 693 l 1
 161 693 l 1
 161 307 l 2
 161 122 192 51 284 51 c 0
 381 51 406 137 406 307 c 2
 406 693 l 1
 355 693 l 1
 355 746 l 1
 507 746 l 1
 507 693 l 1
 455 693 l 1
 455 297 l 2
 455 82 409 -14 269 -14 c 0
 129 -14 80 82 80 297 c 2
 80 693 l 1
271 949 m 1
 341 949 l 1
 433 817 l 1
 387 817 l 1
 307 898 l 1
 225 817 l 1
 179 817 l 1
 271 949 l 1
EndSplineSet
Validated: 1
EndChar

StartChar: Udieresis
Encoding: 220 220 151
Width: 614
GlyphClass: 2
Flags: HMW
HStem: -14 66<238 332 238 339> 693 53<28 80 28 212 161 161 161 212 355 406 455 455 455 507> 825 117<222 235 222 235 378 390>
VStem: 80 81<297 307 307 693> 406 49
LayerCount: 2
Fore
SplineSet
80 693 m 1
 28 693 l 1
 28 746 l 1
 212 746 l 1
 212 693 l 1
 161 693 l 1
 161 307 l 2
 161 122 192 51 284 51 c 0
 381 51 406 137 406 307 c 2
 406 693 l 1
 355 693 l 1
 355 746 l 1
 507 746 l 1
 507 693 l 1
 455 693 l 1
 455 297 l 2
 455 82 409 -14 269 -14 c 0
 129 -14 80 82 80 297 c 2
 80 693 l 1
229 942 m 0
 241 942 252 936 261 925 c 0
 270 913 275 899 275 884 c 0
 275 868 269 853 261 842 c 0
 252 831 242 825 229 825 c 0
 216 825 204 831 196 842 c 0
 187 853 182 868 182 884 c 0
 182 899 187 913 196 925 c 0
 205 936 216 942 229 942 c 0
384 942 m 0
 397 942 408 936 417 925 c 0
 426 913 430 899 430 884 c 0
 430 868 426 853 417 842 c 0
 409 831 397 825 384 825 c 0
 371 825 360 831 351 842 c 0
 343 853 337 868 337 884 c 0
 337 899 343 913 352 925 c 0
 361 936 372 942 384 942 c 0
EndSplineSet
Validated: 1
EndChar

StartChar: Yacute
Encoding: 221 221 152
Width: 614
GlyphClass: 2
Flags: HMW
HStem: 0 53<173 225 173 225 306 357> 693 53<33 65 33 207 161 161 161 207 371 414 464 464 464 496>
VStem: 225 81<53 322 322 322>
LayerCount: 2
Fore
SplineSet
173 0 m 1
 173 53 l 1
 225 53 l 1
 225 322 l 1
 65 693 l 1
 33 693 l 1
 33 746 l 1
 207 746 l 1
 207 693 l 1
 161 693 l 1
 286 391 l 1
 414 693 l 1
 371 693 l 1
 371 746 l 1
 496 746 l 1
 496 693 l 1
 464 693 l 1
 306 331 l 1
 306 53 l 1
 357 53 l 1
 357 0 l 1
 173 0 l 1
328 949 m 1
 407 949 l 1
 302 817 l 1
 256 817 l 1
 328 949 l 1
EndSplineSet
Validated: 1
EndChar

StartChar: Thorn
Encoding: 222 222 153
Width: 614
GlyphClass: 2
Flags: HMW
HStem: 0 53<46 114 46 114 187 269> 163 54<187 280 280 297 187 297 187 280> 530 53<187 280 187 297> 693 53<46 114 46 269 187 187 187 269>
VStem: 114 72<53 163 53 217 217 530 584 693> 388 82<348 399>
LayerCount: 2
Fore
SplineSet
187 217 m 1
 280 217 l 2
 315 217 342 230 361 257 c 0
 379 284 388 323 388 374 c 0
 388 425 379 463 361 490 c 0
 342 517 315 530 280 530 c 2
 187 530 l 1
 187 217 l 1
46 0 m 1
 46 53 l 1
 114 53 l 1
 114 693 l 1
 46 693 l 1
 46 746 l 1
 269 746 l 1
 269 693 l 1
 187 693 l 1
 187 584 l 1
 297 584 l 2
 350 584 393 564 424 526 c 0
 456 488 470 439 470 374 c 0
 470 309 456 258 424 220 c 0
 392 182 349 163 297 163 c 2
 187 163 l 1
 187 53 l 1
 269 53 l 1
 269 0 l 1
 46 0 l 1
EndSplineSet
Validated: 1
EndChar

StartChar: germandbls
Encoding: 223 223 154
Width: 614
GlyphClass: 2
Flags: HMW
HStem: -14 49<320 342 316 353> 729 49<246 277>
VStem: 105 67<53 593 593 595 0 623> 211 39<22 138 138 138> 242 61<459 470> 413 67<135 162>
LayerCount: 2
Fore
SplineSet
358 605 m 1xec
 356 645 347 674 330 696 c 0
 314 718 292 729 263 729 c 0
 231 729 207 718 193 696 c 0
 179 674 172 641 172 595 c 2
 172 0 l 1
 42 0 l 1
 42 53 l 1
 105 53 l 1
 105 593 l 2
 105 651 118 697 146 729 c 0
 174 762 213 778 263 778 c 0
 314 778 352 761 380 726 c 0
 407 691 421 639 424 568 c 1
 416 568 l 2
 381 568 354 559 335 542 c 0
 315 524 304 499 304 468 c 0xec
 304 451 307 435 313 423 c 0
 319 410 333 395 350 380 c 2
 382 352 l 2
 420 319 444 289 458 260 c 0
 472 232 480 199 480 161 c 0
 480 110 467 68 439 35 c 0
 411 2 374 -14 330 -14 c 0
 310 -14 289 -11 269 -5 c 0
 250 1 230 11 211 22 c 1
 211 138 l 1
 251 138 l 1xf4
 252 104 258 78 271 61 c 0
 284 44 303 35 328 35 c 0
 355 35 377 46 391 66 c 1
 406 85 413 112 413 147 c 0
 413 175 409 200 400 219 c 0
 391 238 371 260 343 285 c 2
 312 311 l 2
 287 333 269 354 258 376 c 0
 248 398 242 422 242 450 c 0
 242 491 254 524 273 552 c 1
 293 579 321 597 358 605 c 1xec
EndSplineSet
Validated: 1
EndChar

StartChar: agrave
Encoding: 224 224 155
Width: 614
GlyphClass: 2
Flags: HMW
HStem: -14 53<220 221> 0 53<412 457 412 457> 280 53<234 243 243 338> 497 49<219 244>
VStem: 53 82<141 180 141 186> 338 74<53 57 57 57 167 280 280 280 53 370 53 389>
LayerCount: 2
Fore
SplineSet
338 167 m 2xbc
 338 280 l 1
 243 280 l 2
 207 280 179 269 162 250 c 0
 144 231 135 200 135 160 c 0
 135 123 144 94 162 72 c 0
 180 50 205 39 236 39 c 0
 267 39 292 51 310 75 c 0
 328 99 338 129 338 167 c 2xbc
412 332 m 2
 412 53 l 1
 457 53 l 1
 457 0 l 1
 338 0 l 1x7c
 338 57 l 1
 322 32 304 14 282 3 c 0
 260 -8 236 -14 207 -14 c 0
 160 -14 122 1 95 33 c 1
 67 64 53 107 53 160 c 0
 53 214 68 257 100 288 c 0
 132 318 176 333 234 333 c 2
 338 333 l 1
 338 370 l 2
 338 410 327 441 308 463 c 0
 289 486 262 497 226 497 c 0
 196 497 174 488 157 471 c 0
 140 455 128 430 124 397 c 1
 86 397 l 1
 86 505 l 1
 112 519 136 530 161 536 c 1
 185 543 207 546 230 546 c 0
 289 546 335 528 366 492 c 0
 397 455 412 402 412 332 c 2
259 818 m 1x00
 362 630 l 1
 316 630 l 1
 180 818 l 1
 259 818 l 1x00
EndSplineSet
Validated: 1
EndChar

StartChar: aacute
Encoding: 225 225 156
Width: 614
GlyphClass: 2
Flags: HMW
HStem: -14 53<220 221> 0 53<412 457 412 457> 280 53<234 243 243 338> 497 49<219 244>
VStem: 53 82<141 180 141 186> 338 74<53 57 57 57 167 280 280 280 53 370 53 389>
LayerCount: 2
Fore
SplineSet
338 167 m 2xbc
 338 280 l 1
 243 280 l 2
 207 280 179 269 162 250 c 0
 144 231 135 200 135 160 c 0
 135 123 144 94 162 72 c 0
 180 50 205 39 236 39 c 0
 267 39 292 51 310 75 c 0
 328 99 338 129 338 167 c 2xbc
412 332 m 2
 412 53 l 1
 457 53 l 1
 457 0 l 1
 338 0 l 1x7c
 338 57 l 1
 322 32 304 14 282 3 c 0
 260 -8 236 -14 207 -14 c 0
 160 -14 122 1 95 33 c 1
 67 64 53 107 53 160 c 0
 53 214 68 257 100 288 c 0
 132 318 176 333 234 333 c 2
 338 333 l 1
 338 370 l 2
 338 410 327 441 308 463 c 0
 289 486 262 497 226 497 c 0
 196 497 174 488 157 471 c 0
 140 455 128 430 124 397 c 1
 86 397 l 1
 86 505 l 1
 112 519 136 530 161 536 c 1
 185 543 207 546 230 546 c 0
 289 546 335 528 366 492 c 0
 397 455 412 402 412 332 c 2
284 819 m 1x00
 362 819 l 1
 226 631 l 1
 180 631 l 1
 284 819 l 1x00
EndSplineSet
Validated: 1
EndChar

StartChar: acircumflex
Encoding: 226 226 157
Width: 614
GlyphClass: 2
Flags: HMW
HStem: -14 53<220 221> 0 53<412 457 412 457> 280 53<234 243 243 338> 497 49<219 244>
VStem: 53 82<141 180 141 186> 338 74<53 57 57 57 167 280 280 280 53 370 53 389>
LayerCount: 2
Fore
SplineSet
338 167 m 2xbc
 338 280 l 1
 243 280 l 2
 207 280 179 269 162 250 c 0
 144 231 135 200 135 160 c 0
 135 123 144 94 162 72 c 0
 180 50 205 39 236 39 c 0
 267 39 292 51 310 75 c 0
 328 99 338 129 338 167 c 2xbc
412 332 m 2
 412 53 l 1
 457 53 l 1
 457 0 l 1
 338 0 l 1x7c
 338 57 l 1
 322 32 304 14 282 3 c 0
 260 -8 236 -14 207 -14 c 0
 160 -14 122 1 95 33 c 1
 67 64 53 107 53 160 c 0
 53 214 68 257 100 288 c 0
 132 318 176 333 234 333 c 2
 338 333 l 1
 338 370 l 2
 338 410 327 441 308 463 c 0
 289 486 262 497 226 497 c 0
 196 497 174 488 157 471 c 0
 140 455 128 430 124 397 c 1
 86 397 l 1
 86 505 l 1
 112 519 136 530 161 536 c 1
 185 543 207 546 230 546 c 0
 289 546 335 528 366 492 c 0
 397 455 412 402 412 332 c 2
238 819 m 1x00
 305 819 l 1
 399 631 l 1
 352 631 l 1
 271 761 l 1
 190 631 l 1
 143 631 l 1
 238 819 l 1x00
EndSplineSet
Validated: 1
EndChar

StartChar: atilde
Encoding: 227 227 158
Width: 614
GlyphClass: 2
Flags: HMW
HStem: -14 53<220 221> 0 53<412 457 412 457> 280 53<234 243 243 338> 497 49<219 244> 654 63<325 333 325 338> 732 63<210 218>
VStem: 53 82<141 180 141 186> 139 39<654 654> 338 74<53 57 57 57 167 280 280 280 53 370 53 389> 365 39<796 796>
LayerCount: 2
Fore
SplineSet
338 167 m 2xb280
 338 280 l 1
 243 280 l 2
 207 280 179 269 162 250 c 0
 144 231 135 200 135 160 c 0
 135 123 144 94 162 72 c 0
 180 50 205 39 236 39 c 0
 267 39 292 51 310 75 c 0
 328 99 338 129 338 167 c 2xb280
412 332 m 2
 412 53 l 1
 457 53 l 1
 457 0 l 1
 338 0 l 1x7c
 338 57 l 1
 322 32 304 14 282 3 c 0
 260 -8 236 -14 207 -14 c 0
 160 -14 122 1 95 33 c 1
 67 64 53 107 53 160 c 0
 53 214 68 257 100 288 c 0
 132 318 176 333 234 333 c 2
 338 333 l 1
 338 370 l 2
 338 410 327 441 308 463 c 0
 289 486 262 497 226 497 c 0
 196 497 174 488 157 471 c 0
 140 455 128 430 124 397 c 1
 86 397 l 1
 86 505 l 1
 112 519 136 530 161 536 c 1
 185 543 207 546 230 546 c 0
 289 546 335 528 366 492 c 0
 397 455 412 402 412 332 c 2
269 685 m 2x0d40
 247 713 l 2
 241 721 234 726 229 728 c 1
 225 731 221 732 216 732 c 0
 205 732 195 725 189 713 c 0
 183 700 179 680 178 654 c 1
 139 654 l 1
 140 699 147 734 161 759 c 0
 174 784 192 796 217 796 c 0
 227 796 237 793 245 788 c 0
 254 783 263 776 273 765 c 2
 296 737 l 2
 302 730 307 725 311 722 c 0
 316 719 321 718 327 718 c 0
 338 718 348 725 354 738 c 0
 360 751 364 770 365 796 c 1
 403 796 l 1
 402 751 396 716 382 691 c 0
 369 666 351 654 326 654 c 0
 316 654 306 657 298 662 c 0
 289 667 279 674 269 685 c 2x0d40
EndSplineSet
Validated: 1
EndChar

StartChar: adieresis
Encoding: 228 228 159
Width: 614
GlyphClass: 2
Flags: HMW
HStem: -14 53<220 221> 0 53<412 457 412 457> 280 53<234 243 243 338> 497 49<219 244> 668 117<187 200 187 200 343 355>
VStem: 53 82<141 180 141 186> 338 74<53 57 57 57 167 280 280 280 53 370 53 389>
LayerCount: 2
Fore
SplineSet
338 167 m 2xb6
 338 280 l 1
 243 280 l 2
 207 280 179 269 162 250 c 0
 144 231 135 200 135 160 c 0
 135 123 144 94 162 72 c 0
 180 50 205 39 236 39 c 0
 267 39 292 51 310 75 c 0
 328 99 338 129 338 167 c 2xb6
412 332 m 2
 412 53 l 1
 457 53 l 1
 457 0 l 1
 338 0 l 1x7c
 338 57 l 1
 322 32 304 14 282 3 c 0
 260 -8 236 -14 207 -14 c 0
 160 -14 122 1 95 33 c 1
 67 64 53 107 53 160 c 0
 53 214 68 257 100 288 c 0
 132 318 176 333 234 333 c 2
 338 333 l 1
 338 370 l 2
 338 410 327 441 308 463 c 0
 289 486 262 497 226 497 c 0
 196 497 174 488 157 471 c 0
 140 455 128 430 124 397 c 1
 86 397 l 1
 86 505 l 1
 112 519 136 530 161 536 c 1
 185 543 207 546 230 546 c 0
 289 546 335 528 366 492 c 0
 397 455 412 402 412 332 c 2
194 784 m 0x08
 206 784 217 778 226 767 c 0
 235 756 241 742 241 726 c 0
 241 709 236 695 227 684 c 0
 218 673 207 668 194 668 c 0
 181 668 169 673 160 684 c 0
 152 695 146 709 146 726 c 0
 146 742 152 756 161 767 c 0
 170 778 181 784 194 784 c 0x08
349 784 m 0
 362 784 373 778 382 767 c 0
 391 756 396 742 396 726 c 0
 396 709 391 695 383 684 c 0
 374 673 362 668 349 668 c 0
 336 668 324 673 315 684 c 0
 306 695 302 709 302 726 c 0
 302 742 307 756 316 767 c 0
 325 778 337 784 349 784 c 0
EndSplineSet
Validated: 1
EndChar

StartChar: aring
Encoding: 229 229 160
Width: 614
GlyphClass: 2
Flags: HMW
HStem: -14 53<220 221> 0 53<412 457 412 457> 280 53<234 243 243 338> 497 49<219 244> 625 61<263 280 263 287> 838 61<263 280>
VStem: 53 82<141 180 141 186> 162 49<752 772 752 781> 332 49<752 772> 338 74<53 57 57 57 167 280 280 280 53 370 53 389>
LayerCount: 2
Fore
SplineSet
338 167 m 2xb240
 338 280 l 1
 243 280 l 2
 207 280 179 269 162 250 c 0
 144 231 135 200 135 160 c 0
 135 123 144 94 162 72 c 0
 180 50 205 39 236 39 c 0
 267 39 292 51 310 75 c 0
 328 99 338 129 338 167 c 2xb240
412 332 m 2
 412 53 l 1
 457 53 l 1
 457 0 l 1
 338 0 l 1x7c
 338 57 l 1
 322 32 304 14 282 3 c 0
 260 -8 236 -14 207 -14 c 0
 160 -14 122 1 95 33 c 1
 67 64 53 107 53 160 c 0
 53 214 68 257 100 288 c 0
 132 318 176 333 234 333 c 2
 338 333 l 1
 338 370 l 2
 338 410 327 441 308 463 c 0
 289 486 262 497 226 497 c 0
 196 497 174 488 157 471 c 0
 140 455 128 430 124 397 c 1
 86 397 l 1
 86 505 l 1
 112 519 136 530 161 536 c 1
 185 543 207 546 230 546 c 0
 289 546 335 528 366 492 c 0
 397 455 412 402 412 332 c 2
381 762 m 0x0d80
 381 724 371 692 349 665 c 0
 327 638 302 625 271 625 c 0
 240 625 216 638 194 665 c 0
 172 692 162 724 162 762 c 0
 162 801 172 832 194 859 c 0
 216 886 240 899 271 899 c 0
 302 899 327 886 349 859 c 0
 371 832 381 801 381 762 c 0x0d80
332 762 m 0
 332 784 325 801 314 815 c 0
 302 830 288 838 271 838 c 0
 254 838 239 830 228 816 c 0
 217 801 211 784 211 762 c 0
 211 740 217 722 228 708 c 0
 239 694 254 686 271 686 c 0
 288 686 302 694 314 708 c 1
 325 723 332 740 332 762 c 0
EndSplineSet
Validated: 1
EndChar

StartChar: ae
Encoding: 230 230 161
Width: 614
GlyphClass: 2
Flags: HMW
HStem: -14 49<346 371 346 372> -14 53<147 157> 256 53<279 426 279 481 279 426> 280 53<158 163 163 223> 497 49<147 165 342 364>
VStem: 41 52<141 180 141 186> 61 25<397 505> 223 55<216 252 252 256 216 280 216 280> 426 55<256 309>
LayerCount: 2
Fore
SplineSet
223 167 m 2x5d80
 223 280 l 1
 163 280 l 2
 139 280 122 269 111 250 c 0
 100 231 93 200 93 160 c 0
 93 123 100 94 111 72 c 0
 122 50 139 39 158 39 c 0
 177 39 194 51 206 75 c 0
 217 99 223 129 223 167 c 2x5d80
251 75 m 1
 237 45 221 22 204 7 c 0
 187 -7 168 -14 146 -14 c 0
 112 -14 87 1 69 31 c 0
 51 62 41 105 41 160 c 0
 41 214 52 257 72 288 c 0
 92 318 121 333 158 333 c 2
 223 333 l 1x5d80
 223 370 l 2
 223 410 217 440 205 463 c 0
 193 486 177 497 154 497 c 0
 135 497 117 488 106 472 c 0
 95 456 89 430 86 397 c 1
 61 397 l 1
 61 505 l 1
 77 519 95 530 110 536 c 1
 125 543 141 546 155 546 c 0
 180 546 199 538 215 524 c 0
 231 510 245 488 254 458 c 1
 266 487 282 509 298 523 c 0
 314 538 333 546 352 546 c 0
 393 546 424 521 447 471 c 0
 470 422 480 350 481 256 c 1
 279 256 l 1
 279 252 l 2
 279 180 286 126 299 90 c 0
 312 53 332 35 360 35 c 0
 380 35 398 47 411 67 c 0
 424 89 434 120 439 161 c 1
 476 161 l 1
 469 103 454 59 435 30 c 0
 415 0 388 -14 355 -14 c 0xab80
 335 -14 315 -7 298 8 c 0
 281 23 264 46 251 75 c 1
426 309 m 1x2980
 425 370 418 418 406 450 c 1
 394 481 376 497 352 497 c 0
 330 497 313 481 301 449 c 0
 289 418 282 370 279 309 c 1
 426 309 l 1x2980
EndSplineSet
Validated: 1
EndChar

StartChar: ccedilla
Encoding: 231 231 162
Width: 614
GlyphClass: 2
Flags: HMW
HStem: -198 60<289 294 282 310> -20 20<300 339 339 339> -14 49<247 283 247 290> 497 49<247 280 236 285>
VStem: 61 86<227 305 227 309> 335 54<-126 -84>
LayerCount: 2
Fore
SplineSet
442 160 m 1x38
 432 103 411 60 381 30 c 0
 351 0 314 -14 267 -14 c 0
 205 -14 156 11 118 62 c 0
 80 113 61 181 61 266 c 0
 61 351 80 419 118 470 c 0
 156 520 205 546 267 546 c 0
 294 546 320 542 347 535 c 1
 374 527 400 514 427 499 c 1
 427 362 l 1
 384 362 l 1
 378 409 365 443 347 465 c 0
 329 485 303 497 268 497 c 0
 228 497 197 477 177 438 c 0
 157 400 147 343 147 266 c 0
 147 189 157 132 177 93 c 0
 196 54 228 35 268 35 c 0
 299 35 324 46 343 66 c 1
 361 88 375 118 382 160 c 1
 442 160 l 1x38
339 0 m 1xc4
 356 -22 369 -41 377 -60 c 0
 385 -78 389 -97 389 -113 c 0
 389 -140 381 -161 364 -175 c 1
 348 -190 324 -198 294 -198 c 0
 283 -198 271 -197 260 -195 c 0
 249 -193 237 -189 225 -185 c 1
 225 -120 l 1
 235 -126 246 -130 256 -133 c 1
 266 -135 276 -137 286 -137 c 0
 300 -137 314 -132 323 -124 c 1
 331 -115 335 -103 335 -88 c 0
 335 -79 333 -66 327 -52 c 0
 321 -37 311 -20 300 0 c 1
 339 0 l 1xc4
EndSplineSet
Validated: 5
EndChar

StartChar: egrave
Encoding: 232 232 163
Width: 614
GlyphClass: 2
Flags: HMW
HStem: -14 49<247 284 247 286> 256 53<139 370 139 457 139 370> 497 49<239 273>
VStem: 53 86<223 252 252 256 216 308>
LayerCount: 2
Fore
SplineSet
457 256 m 1
 139 256 l 1
 139 252 l 2
 139 180 149 126 171 90 c 0
 194 53 225 35 267 35 c 0
 299 35 327 47 347 67 c 0
 367 89 382 120 390 161 c 1
 450 161 l 1
 439 103 415 59 384 30 c 0
 352 0 311 -14 260 -14 c 0
 198 -14 148 11 110 62 c 0
 72 113 53 181 53 266 c 0
 53 350 72 418 110 469 c 0
 147 520 195 546 255 546 c 0
 318 546 368 521 403 472 c 0
 438 422 455 350 457 256 c 1
370 309 m 1
 368 370 357 418 339 450 c 1
 320 481 291 497 255 497 c 0
 221 497 194 481 175 449 c 0
 156 418 143 370 139 309 c 1
 370 309 l 1
284 818 m 1
 388 630 l 1
 341 630 l 1
 206 818 l 1
 284 818 l 1
EndSplineSet
Validated: 1
EndChar

StartChar: eacute
Encoding: 233 233 164
Width: 614
GlyphClass: 2
Flags: HMW
HStem: -14 49<247 284 247 286> 256 53<139 370 139 457 139 370> 497 49<239 273>
VStem: 53 86<223 252 252 256 216 308>
LayerCount: 2
Fore
SplineSet
457 256 m 1
 139 256 l 1
 139 252 l 2
 139 180 149 126 171 90 c 0
 194 53 225 35 267 35 c 0
 299 35 327 47 347 67 c 0
 367 89 382 120 390 161 c 1
 450 161 l 1
 439 103 415 59 384 30 c 0
 352 0 311 -14 260 -14 c 0
 198 -14 148 11 110 62 c 0
 72 113 53 181 53 266 c 0
 53 350 72 418 110 469 c 0
 147 520 195 546 255 546 c 0
 318 546 368 521 403 472 c 0
 438 422 455 350 457 256 c 1
370 309 m 1
 368 370 357 418 339 450 c 1
 320 481 291 497 255 497 c 0
 221 497 194 481 175 449 c 0
 156 418 143 370 139 309 c 1
 370 309 l 1
308 819 m 1
 388 819 l 1
 252 631 l 1
 206 631 l 1
 308 819 l 1
EndSplineSet
Validated: 1
EndChar

StartChar: ecircumflex
Encoding: 234 234 165
Width: 614
GlyphClass: 2
Flags: HMW
HStem: -14 49<247 284 247 286> 256 53<139 370 139 457 139 370> 497 49<239 273>
VStem: 53 86<223 252 252 256 216 308>
LayerCount: 2
Fore
SplineSet
457 256 m 1
 139 256 l 1
 139 252 l 2
 139 180 149 126 171 90 c 0
 194 53 225 35 267 35 c 0
 299 35 327 47 347 67 c 0
 367 89 382 120 390 161 c 1
 450 161 l 1
 439 103 415 59 384 30 c 0
 352 0 311 -14 260 -14 c 0
 198 -14 148 11 110 62 c 0
 72 113 53 181 53 266 c 0
 53 350 72 418 110 469 c 0
 147 520 195 546 255 546 c 0
 318 546 368 521 403 472 c 0
 438 422 455 350 457 256 c 1
370 309 m 1
 368 370 357 418 339 450 c 1
 320 481 291 497 255 497 c 0
 221 497 194 481 175 449 c 0
 156 418 143 370 139 309 c 1
 370 309 l 1
263 819 m 1
 331 819 l 1
 425 631 l 1
 378 631 l 1
 297 761 l 1
 216 631 l 1
 169 631 l 1
 263 819 l 1
EndSplineSet
Validated: 1
EndChar

StartChar: edieresis
Encoding: 235 235 166
Width: 614
GlyphClass: 2
Flags: HMW
HStem: -14 49<247 284 247 286> 256 53<139 370 139 457 139 370> 497 49<239 273> 668 117<212 225 212 225 369 381>
VStem: 53 86<223 252 252 256 216 308>
LayerCount: 2
Fore
SplineSet
457 256 m 1
 139 256 l 1
 139 252 l 2
 139 180 149 126 171 90 c 0
 194 53 225 35 267 35 c 0
 299 35 327 47 347 67 c 0
 367 89 382 120 390 161 c 1
 450 161 l 1
 439 103 415 59 384 30 c 0
 352 0 311 -14 260 -14 c 0
 198 -14 148 11 110 62 c 0
 72 113 53 181 53 266 c 0
 53 350 72 418 110 469 c 0
 147 520 195 546 255 546 c 0
 318 546 368 521 403 472 c 0
 438 422 455 350 457 256 c 1
370 309 m 1
 368 370 357 418 339 450 c 1
 320 481 291 497 255 497 c 0
 221 497 194 481 175 449 c 0
 156 418 143 370 139 309 c 1
 370 309 l 1
219 784 m 0
 231 784 243 778 252 767 c 0
 261 756 265 742 265 726 c 0
 265 709 262 695 253 684 c 0
 244 673 232 668 219 668 c 0
 206 668 194 673 185 684 c 0
 177 695 172 709 172 726 c 0
 172 742 177 756 186 767 c 0
 195 778 206 784 219 784 c 0
375 784 m 0
 388 784 399 778 408 767 c 0
 417 756 421 742 421 726 c 0
 421 709 417 695 409 684 c 0
 400 673 388 668 375 668 c 0
 362 668 350 673 341 684 c 0
 332 695 328 709 328 726 c 0
 328 742 333 756 342 767 c 0
 351 778 363 784 375 784 c 0
EndSplineSet
Validated: 1
EndChar

StartChar: igrave
Encoding: 236 236 167
Width: 614
GlyphClass: 2
Flags: HMW
HStem: 0 53<110 180 254 324 110 180> 478 53<110 180 110 254>
VStem: 180 74<53 478 478 478>
LayerCount: 2
Fore
SplineSet
254 53 m 1
 324 53 l 1
 324 0 l 1
 110 0 l 1
 110 53 l 1
 180 53 l 1
 180 478 l 1
 110 478 l 1
 110 531 l 1
 254 531 l 1
 254 53 l 1
240 818 m 1
 344 630 l 1
 297 630 l 1
 162 818 l 1
 240 818 l 1
EndSplineSet
Validated: 1
EndChar

StartChar: iacute
Encoding: 237 237 168
Width: 614
GlyphClass: 2
Flags: HMW
HStem: 0 53<110 180 254 324 110 180> 478 53<110 180 110 254>
VStem: 180 74<53 478 478 478>
LayerCount: 2
Fore
SplineSet
254 53 m 1
 324 53 l 1
 324 0 l 1
 110 0 l 1
 110 53 l 1
 180 53 l 1
 180 478 l 1
 110 478 l 1
 110 531 l 1
 254 531 l 1
 254 53 l 1
264 819 m 1
 344 819 l 1
 208 631 l 1
 162 631 l 1
 264 819 l 1
EndSplineSet
Validated: 1
EndChar

StartChar: icircumflex
Encoding: 238 238 169
Width: 614
GlyphClass: 2
Flags: HMW
HStem: 0 53<98 167 241 311 98 167> 478 53<98 167 98 241>
VStem: 167 74<53 478 478 478>
LayerCount: 2
Fore
SplineSet
241 53 m 1
 311 53 l 1
 311 0 l 1
 98 0 l 1
 98 53 l 1
 167 53 l 1
 167 478 l 1
 98 478 l 1
 98 531 l 1
 241 531 l 1
 241 53 l 1
207 819 m 1
 274 819 l 1
 368 631 l 1
 322 631 l 1
 241 761 l 1
 159 631 l 1
 113 631 l 1
 207 819 l 1
EndSplineSet
Validated: 1
EndChar

StartChar: idieresis
Encoding: 239 239 170
Width: 614
GlyphClass: 2
Flags: HMW
HStem: 0 53<99 169 243 313 99 169> 478 53<99 169 99 243> 668 117<157 170 157 170 314 326>
VStem: 169 74<53 478 478 478>
LayerCount: 2
Fore
SplineSet
243 53 m 1
 313 53 l 1
 313 0 l 1
 99 0 l 1
 99 53 l 1
 169 53 l 1
 169 478 l 1
 99 478 l 1
 99 531 l 1
 243 531 l 1
 243 53 l 1
164 784 m 0
 176 784 188 778 197 767 c 0
 206 756 210 742 210 726 c 0
 210 709 207 695 198 684 c 0
 189 673 177 668 164 668 c 0
 151 668 139 673 130 684 c 0
 122 695 117 709 117 726 c 0
 117 742 122 756 131 767 c 0
 140 778 151 784 164 784 c 0
320 784 m 0
 333 784 344 778 353 767 c 0
 362 756 366 742 366 726 c 0
 366 709 362 695 354 684 c 0
 345 673 333 668 320 668 c 0
 307 668 295 673 286 684 c 0
 277 695 273 709 273 726 c 0
 273 742 278 756 287 767 c 0
 296 778 308 784 320 784 c 0
EndSplineSet
Validated: 1
EndChar

StartChar: eth
Encoding: 240 240 171
Width: 614
GlyphClass: 2
Flags: HMW
HStem: -14 49<238 276 238 287> 473 49<249 259 225 277>
VStem: 51 86<219 291 219 299> 376 86<223 274>
LayerCount: 2
Fore
SplineSet
338 464 m 1
 326 467 313 469 303 471 c 0
 293 472 282 473 272 473 c 0
 226 473 192 455 169 420 c 0
 146 384 137 329 137 254 c 0
 137 184 148 130 168 92 c 0
 190 54 218 35 256 35 c 0
 295 35 324 54 344 92 c 0
 364 130 376 185 376 256 c 0
 376 293 372 330 366 365 c 1
 360 401 350 433 338 464 c 1
314 653 m 1
 363 598 399 538 424 472 c 1
 450 407 462 338 462 266 c 0
 462 181 444 113 406 62 c 0
 368 11 318 -14 256 -14 c 0
 195 -14 146 10 107 61 c 0
 69 111 51 178 51 259 c 0
 51 338 69 402 107 450 c 0
 145 498 194 522 254 522 c 0
 263 522 273 521 283 520 c 0
 293 519 306 518 320 515 c 1
 314 532 305 551 295 568 c 0
 285 585 274 605 261 623 c 1
 132 548 l 1
 118 587 l 1
 235 654 l 1
 219 673 200 690 180 703 c 0
 158 716 136 728 110 735 c 1
 117 778 l 1
 149 769 178 756 206 741 c 0
 234 726 260 707 285 684 c 1
 414 759 l 1
 428 720 l 1
 314 653 l 1
EndSplineSet
Validated: 1
EndChar

StartChar: ntilde
Encoding: 241 241 172
Width: 614
GlyphClass: 2
Flags: HMW
HStem: 0 53<47 93 47 93 167 210 315 358 432 477> 478 53<43 93 43 167> 479 67<281 288> 654 63<386 394 386 399> 732 63<271 280>
VStem: 93 74<53 296 437 478 478 478> 201 39<654 654> 358 74<53 309 309 338 53 342> 426 39<796 796>
LayerCount: 2
Fore
SplineSet
47 0 m 1xa5
 47 53 l 1
 93 53 l 1
 93 478 l 1
 43 478 l 1
 43 531 l 1
 167 531 l 1xc5
 167 437 l 1
 181 473 197 500 220 518 c 0
 242 536 266 546 295 546 c 0
 342 546 376 530 399 496 c 0
 422 462 432 410 432 338 c 2
 432 53 l 1
 477 53 l 1
 477 0 l 1
 315 0 l 1
 315 53 l 1
 358 53 l 1
 358 309 l 2
 358 374 352 418 339 442 c 1
 327 467 303 479 271 479 c 0
 236 479 211 464 194 432 c 1
 176 401 167 355 167 296 c 2
 167 53 l 1
 210 53 l 1
 210 0 l 1
 47 0 l 1xa5
332 685 m 2x1a80
 308 713 l 2
 302 721 296 726 291 728 c 1
 287 731 283 732 278 732 c 0
 267 732 257 725 251 713 c 0
 245 700 241 680 240 654 c 1
 201 654 l 1
 202 699 208 734 222 759 c 0
 235 784 254 796 279 796 c 0
 289 796 299 793 307 788 c 0
 316 783 325 776 335 765 c 2
 357 737 l 2
 363 730 369 725 373 722 c 0
 378 719 383 718 389 718 c 0
 400 718 410 725 416 738 c 0
 422 751 425 770 426 796 c 1
 465 796 l 1
 464 751 457 716 443 691 c 0
 430 666 412 654 387 654 c 0
 377 654 367 657 359 662 c 0
 350 667 342 674 332 685 c 2x1a80
EndSplineSet
Validated: 1
EndChar

StartChar: ograve
Encoding: 242 242 173
Width: 614
GlyphClass: 2
Flags: HMW
HStem: -14 49<234 271 234 283> 497 49<234 271>
VStem: 57 82 367 82
LayerCount: 2
Fore
SplineSet
253 35 m 0
 290 35 319 54 338 93 c 0
 356 132 367 190 367 266 c 0
 367 342 356 399 338 438 c 0
 319 477 290 497 253 497 c 0
 216 497 186 477 168 438 c 0
 149 399 139 342 139 266 c 0
 139 190 149 132 168 93 c 0
 187 54 216 35 253 35 c 0
253 -14 m 0
 194 -14 148 11 112 62 c 0
 76 113 57 181 57 266 c 0
 57 350 76 419 111 469 c 0
 147 520 194 546 253 546 c 0
 312 546 358 520 394 469 c 0
 430 419 449 350 449 266 c 0
 449 181 430 113 394 62 c 0
 358 11 312 -14 253 -14 c 0
282 818 m 1
 386 630 l 1
 339 630 l 1
 204 818 l 1
 282 818 l 1
EndSplineSet
Validated: 1
EndChar

StartChar: oacute
Encoding: 243 243 174
Width: 614
GlyphClass: 2
Flags: HMW
HStem: -14 49<234 271 234 283> 497 49<234 271>
VStem: 57 82 367 82
LayerCount: 2
Fore
SplineSet
253 35 m 0
 290 35 319 54 338 93 c 0
 356 132 367 190 367 266 c 0
 367 342 356 399 338 438 c 0
 319 477 290 497 253 497 c 0
 216 497 186 477 168 438 c 0
 149 399 139 342 139 266 c 0
 139 190 149 132 168 93 c 0
 187 54 216 35 253 35 c 0
253 -14 m 0
 194 -14 148 11 112 62 c 0
 76 113 57 181 57 266 c 0
 57 350 76 419 111 469 c 0
 147 520 194 546 253 546 c 0
 312 546 358 520 394 469 c 0
 430 419 449 350 449 266 c 0
 449 181 430 113 394 62 c 0
 358 11 312 -14 253 -14 c 0
306 819 m 1
 386 819 l 1
 250 631 l 1
 204 631 l 1
 306 819 l 1
EndSplineSet
Validated: 1
EndChar

StartChar: ocircumflex
Encoding: 244 244 175
Width: 614
GlyphClass: 2
Flags: HMW
HStem: -14 49<234 271 234 283> 497 49<234 271>
VStem: 57 82 367 82
LayerCount: 2
Fore
SplineSet
253 35 m 0
 290 35 319 54 338 93 c 0
 356 132 367 190 367 266 c 0
 367 342 356 399 338 438 c 0
 319 477 290 497 253 497 c 0
 216 497 186 477 168 438 c 0
 149 399 139 342 139 266 c 0
 139 190 149 132 168 93 c 0
 187 54 216 35 253 35 c 0
253 -14 m 0
 194 -14 148 11 112 62 c 0
 76 113 57 181 57 266 c 0
 57 350 76 419 111 469 c 0
 147 520 194 546 253 546 c 0
 312 546 358 520 394 469 c 0
 430 419 449 350 449 266 c 0
 449 181 430 113 394 62 c 0
 358 11 312 -14 253 -14 c 0
261 819 m 1
 329 819 l 1
 423 631 l 1
 376 631 l 1
 295 761 l 1
 214 631 l 1
 167 631 l 1
 261 819 l 1
EndSplineSet
Validated: 1
EndChar

StartChar: otilde
Encoding: 245 245 176
Width: 614
GlyphClass: 2
Flags: HMW
HStem: -14 49<234 271 234 283> 497 49<234 271> 654 63<347 356 347 361> 732 63<233 242>
VStem: 57 82 163 39 367 82 388 39
LayerCount: 2
Fore
SplineSet
253 35 m 0xca
 290 35 319 54 338 93 c 0
 356 132 367 190 367 266 c 0
 367 342 356 399 338 438 c 0
 319 477 290 497 253 497 c 0
 216 497 186 477 168 438 c 0
 149 399 139 342 139 266 c 0
 139 190 149 132 168 93 c 0
 187 54 216 35 253 35 c 0xca
253 -14 m 0
 194 -14 148 11 112 62 c 0
 76 113 57 181 57 266 c 0
 57 350 76 419 111 469 c 0
 147 520 194 546 253 546 c 0
 312 546 358 520 394 469 c 0
 430 419 449 350 449 266 c 0
 449 181 430 113 394 62 c 0
 358 11 312 -14 253 -14 c 0
293 685 m 2x35
 270 713 l 2
 264 721 258 726 253 728 c 1
 249 731 244 732 239 732 c 0
 228 732 219 725 213 713 c 0
 207 700 203 680 202 654 c 1
 163 654 l 1
 164 699 170 734 184 759 c 0
 197 784 216 796 241 796 c 0
 251 796 260 793 268 788 c 0
 277 783 286 776 296 765 c 2
 319 737 l 2
 325 730 331 725 335 722 c 0
 340 719 344 718 350 718 c 0
 361 718 372 725 378 738 c 0
 384 751 387 770 388 796 c 1
 427 796 l 1
 426 751 420 716 406 691 c 0
 393 666 374 654 349 654 c 0
 339 654 329 657 321 662 c 0
 312 667 303 674 293 685 c 2x35
EndSplineSet
Validated: 1
EndChar

StartChar: odieresis
Encoding: 246 246 177
Width: 614
GlyphClass: 2
Flags: HMW
HStem: -14 49<234 271 234 283> 497 49<234 271> 668 117<210 223 210 223 367 379>
VStem: 57 82 367 82
LayerCount: 2
Fore
SplineSet
253 35 m 0
 290 35 319 54 338 93 c 0
 356 132 367 190 367 266 c 0
 367 342 356 399 338 438 c 0
 319 477 290 497 253 497 c 0
 216 497 186 477 168 438 c 0
 149 399 139 342 139 266 c 0
 139 190 149 132 168 93 c 0
 187 54 216 35 253 35 c 0
253 -14 m 0
 194 -14 148 11 112 62 c 0
 76 113 57 181 57 266 c 0
 57 350 76 419 111 469 c 0
 147 520 194 546 253 546 c 0
 312 546 358 520 394 469 c 0
 430 419 449 350 449 266 c 0
 449 181 430 113 394 62 c 0
 358 11 312 -14 253 -14 c 0
217 784 m 0
 229 784 241 778 250 767 c 0
 259 756 263 742 263 726 c 0
 263 709 260 695 251 684 c 0
 242 673 230 668 217 668 c 0
 204 668 192 673 183 684 c 0
 175 695 170 709 170 726 c 0
 170 742 175 756 184 767 c 0
 193 778 204 784 217 784 c 0
373 784 m 0
 386 784 397 778 406 767 c 0
 415 756 419 742 419 726 c 0
 419 709 415 695 407 684 c 0
 398 673 386 668 373 668 c 0
 360 668 348 673 339 684 c 0
 330 695 326 709 326 726 c 0
 326 742 331 756 340 767 c 0
 349 778 361 784 373 784 c 0
EndSplineSet
Validated: 1
EndChar

StartChar: oslash
Encoding: 248 248 178
Width: 614
GlyphClass: 2
Flags: HMW
HStem: -14 49<251 281 251 292> 497 49<241 271>
VStem: 56 86<254 304 254 308> 380 86<228 279>
LayerCount: 2
Fore
SplineSet
351 439 m 1
 341 458 327 473 313 482 c 0
 299 491 280 497 261 497 c 0
 222 497 191 477 171 438 c 0
 151 399 142 342 142 266 c 0
 142 241 142 220 144 201 c 0
 146 182 149 162 153 146 c 1
 351 439 l 1
171 95 m 1
 181 75 194 59 209 50 c 1
 223 40 242 35 261 35 c 0
 300 35 331 54 351 94 c 0
 370 133 380 190 380 266 c 0
 380 292 379 315 377 334 c 1
 375 354 372 373 368 390 c 1
 171 95 l 1
416 461 m 1
 432 436 446 408 454 375 c 0
 463 341 466 305 466 266 c 0
 466 181 448 113 410 62 c 0
 372 11 323 -14 261 -14 c 0
 235 -14 214 -10 192 -1 c 0
 170 7 150 22 132 39 c 1
 75 -47 l 1
 44 -15 l 1
 105 74 l 1
 89 100 76 128 68 160 c 0
 60 193 56 227 56 266 c 0
 56 350 74 419 111 469 c 0
 149 520 199 546 261 546 c 0
 286 546 309 542 331 534 c 0
 353 525 371 512 388 496 c 1
 444 579 l 1
 474 547 l 1
 416 461 l 1
EndSplineSet
Validated: 1
EndChar

StartChar: ugrave
Encoding: 249 249 179
Width: 614
GlyphClass: 2
Flags: HMW
HStem: -14 68<233 241> 0 53<428 477> 478 53<43 89 43 163 311 354>
VStem: 89 74<194 222 222 478 478 478> 354 74<53 94 94 94 237 478 478 478>
LayerCount: 2
Fore
SplineSet
311 531 m 1xb8
 428 531 l 1
 428 53 l 1
 477 53 l 1
 477 0 l 1
 354 0 l 1x78
 354 94 l 1
 341 58 324 31 302 13 c 0
 279 -5 255 -14 226 -14 c 0
 179 -14 146 2 123 36 c 0
 100 70 89 122 89 194 c 2
 89 478 l 1
 43 478 l 1
 43 531 l 1
 163 531 l 1
 163 222 l 2
 163 157 169 113 181 89 c 0
 194 64 217 53 250 53 c 0
 285 53 311 68 328 100 c 1
 346 131 354 178 354 237 c 2
 354 478 l 1
 311 478 l 1
 311 531 l 1xb8
301 818 m 1x00
 404 630 l 1
 358 630 l 1
 222 818 l 1
 301 818 l 1x00
EndSplineSet
Validated: 1
EndChar

StartChar: uacute
Encoding: 250 250 180
Width: 614
GlyphClass: 2
Flags: HMW
HStem: -14 68<233 241> 0 53<428 477> 478 53<43 89 43 163 311 354>
VStem: 89 74<194 222 222 478 478 478> 354 74<53 94 94 94 237 478 478 478>
LayerCount: 2
Fore
SplineSet
311 531 m 1xb8
 428 531 l 1
 428 53 l 1
 477 53 l 1
 477 0 l 1
 354 0 l 1x78
 354 94 l 1
 341 58 324 31 302 13 c 0
 279 -5 255 -14 226 -14 c 0
 179 -14 146 2 123 36 c 0
 100 70 89 122 89 194 c 2
 89 478 l 1
 43 478 l 1
 43 531 l 1
 163 531 l 1
 163 222 l 2
 163 157 169 113 181 89 c 0
 194 64 217 53 250 53 c 0
 285 53 311 68 328 100 c 1
 346 131 354 178 354 237 c 2
 354 478 l 1
 311 478 l 1
 311 531 l 1xb8
326 819 m 1x00
 404 819 l 1
 268 631 l 1
 222 631 l 1
 326 819 l 1x00
EndSplineSet
Validated: 1
EndChar

StartChar: ucircumflex
Encoding: 251 251 181
Width: 614
GlyphClass: 2
Flags: HMW
HStem: -14 68<233 241> 0 53<428 477> 478 53<43 89 43 163 311 354>
VStem: 89 74<194 222 222 478 478 478> 354 74<53 94 94 94 237 478 478 478>
LayerCount: 2
Fore
SplineSet
311 531 m 1xb8
 428 531 l 1
 428 53 l 1
 477 53 l 1
 477 0 l 1
 354 0 l 1x78
 354 94 l 1
 341 58 324 31 302 13 c 0
 279 -5 255 -14 226 -14 c 0
 179 -14 146 2 123 36 c 0
 100 70 89 122 89 194 c 2
 89 478 l 1
 43 478 l 1
 43 531 l 1
 163 531 l 1
 163 222 l 2
 163 157 169 113 181 89 c 0
 194 64 217 53 250 53 c 0
 285 53 311 68 328 100 c 1
 346 131 354 178 354 237 c 2
 354 478 l 1
 311 478 l 1
 311 531 l 1xb8
280 819 m 1x00
 347 819 l 1
 441 631 l 1
 394 631 l 1
 313 761 l 1
 232 631 l 1
 185 631 l 1
 280 819 l 1x00
EndSplineSet
Validated: 1
EndChar

StartChar: udieresis
Encoding: 252 252 182
Width: 614
GlyphClass: 2
Flags: HMW
HStem: -14 68<233 241> 0 53<428 477> 478 53<43 89 43 163 311 354> 668 117<229 242 229 242 385 397>
VStem: 89 74<194 222 222 478 478 478> 354 74<53 94 94 94 237 478 478 478>
LayerCount: 2
Fore
SplineSet
311 531 m 1xac
 428 531 l 1
 428 53 l 1
 477 53 l 1
 477 0 l 1
 354 0 l 1x6c
 354 94 l 1
 341 58 324 31 302 13 c 0
 279 -5 255 -14 226 -14 c 0
 179 -14 146 2 123 36 c 0
 100 70 89 122 89 194 c 2
 89 478 l 1
 43 478 l 1
 43 531 l 1
 163 531 l 1
 163 222 l 2
 163 157 169 113 181 89 c 0
 194 64 217 53 250 53 c 0
 285 53 311 68 328 100 c 1
 346 131 354 178 354 237 c 2
 354 478 l 1
 311 478 l 1
 311 531 l 1xac
236 784 m 0x10
 248 784 259 778 268 767 c 0
 277 756 283 742 283 726 c 0
 283 709 278 695 269 684 c 0
 260 673 249 668 236 668 c 0
 223 668 211 673 202 684 c 0
 194 695 188 709 188 726 c 0
 188 742 194 756 203 767 c 0
 212 778 223 784 236 784 c 0x10
391 784 m 0
 404 784 415 778 424 767 c 0
 433 756 438 742 438 726 c 0
 438 709 433 695 425 684 c 0
 416 673 404 668 391 668 c 0
 378 668 366 673 357 684 c 0
 348 695 344 709 344 726 c 0
 344 742 349 756 358 767 c 0
 367 778 379 784 391 784 c 0
EndSplineSet
Validated: 1
EndChar

StartChar: yacute
Encoding: 253 253 183
Width: 614
GlyphClass: 2
Flags: HMW
HStem: -227 53<138 153> 478 53<39 79 39 218 159 159 159 218 342 397 446 446 446 485>
LayerCount: 2
Fore
SplineSet
210 -97 m 2
 238 -9 l 1
 79 478 l 1
 39 478 l 1
 39 531 l 1
 218 531 l 1
 218 478 l 1
 159 478 l 1
 279 113 l 1
 397 478 l 1
 342 478 l 1
 342 531 l 1
 485 531 l 1
 485 478 l 1
 446 478 l 1
 251 -120 l 2
 238 -162 223 -190 207 -205 c 0
 191 -220 168 -227 138 -227 c 0
 126 -227 112 -226 99 -223 c 0
 86 -221 73 -217 59 -212 c 1
 59 -111 l 1
 97 -111 l 1
 99 -134 104 -150 111 -160 c 0
 118 -169 131 -174 146 -174 c 0
 160 -174 172 -169 181 -159 c 0
 190 -149 200 -128 210 -97 c 2
318 819 m 1
 398 819 l 1
 262 631 l 1
 215 631 l 1
 318 819 l 1
EndSplineSet
Validated: 1
EndChar

StartChar: thorn
Encoding: 254 254 184
Width: 614
GlyphClass: 2
Flags: HMW
HStem: -213 53<44 110 179 244 44 110> -14 57<294 305 270 333> 488 57<294 305> 725 53<44 110 44 179>
VStem: 110 70<-160 83 207 240 240 292 449 725 725 725> 395 81<229 303>
LayerCount: 2
Fore
SplineSet
179 292 m 2
 179 240 l 2
 179 175 189 127 207 93 c 0
 225 59 252 43 287 43 c 0
 323 43 350 61 367 99 c 0
 385 137 395 192 395 266 c 0
 395 340 385 395 367 432 c 1
 350 470 323 488 287 488 c 0
 252 488 225 472 207 438 c 0
 189 404 179 355 179 292 c 2
110 725 m 1
 44 725 l 1
 44 778 l 1
 179 778 l 1
 179 449 l 1
 193 483 211 507 231 522 c 0
 251 537 278 546 309 546 c 0
 358 546 398 520 429 469 c 0
 461 417 476 349 476 266 c 0
 476 182 461 114 429 63 c 1
 398 11 358 -14 309 -14 c 0
 278 -14 251 -6 231 9 c 0
 211 24 193 50 179 83 c 1
 179 -160 l 1
 244 -160 l 1
 244 -213 l 1
 44 -213 l 1
 44 -160 l 1
 110 -160 l 1
 110 725 l 1
EndSplineSet
Validated: 1
EndChar

StartChar: ydieresis
Encoding: 255 255 185
Width: 614
GlyphClass: 2
Flags: HMW
HStem: -227 53<138 153> 478 53<39 79 39 218 159 159 159 218 342 397 446 446 446 485> 668 117<222 236 222 236 379 391>
LayerCount: 2
Fore
SplineSet
210 -97 m 2
 238 -9 l 1
 79 478 l 1
 39 478 l 1
 39 531 l 1
 218 531 l 1
 218 478 l 1
 159 478 l 1
 279 113 l 1
 397 478 l 1
 342 478 l 1
 342 531 l 1
 485 531 l 1
 485 478 l 1
 446 478 l 1
 251 -120 l 2
 238 -162 223 -190 207 -205 c 0
 191 -220 168 -227 138 -227 c 0
 126 -227 112 -226 99 -223 c 0
 86 -221 73 -217 59 -212 c 1
 59 -111 l 1
 97 -111 l 1
 99 -134 104 -150 111 -160 c 0
 118 -169 131 -174 146 -174 c 0
 160 -174 172 -169 181 -159 c 0
 190 -149 200 -128 210 -97 c 2
229 784 m 0
 241 784 253 778 262 767 c 0
 271 756 275 742 275 726 c 0
 275 709 271 695 262 684 c 0
 253 673 242 668 229 668 c 0
 216 668 205 673 196 684 c 0
 188 695 182 709 182 726 c 0
 182 742 188 756 197 767 c 0
 206 778 216 784 229 784 c 0
385 784 m 0
 398 784 409 778 418 767 c 0
 427 756 431 742 431 726 c 0
 431 709 426 695 418 684 c 0
 409 673 398 668 385 668 c 0
 372 668 360 673 351 684 c 0
 342 695 338 709 338 726 c 0
 338 742 343 756 352 767 c 0
 361 778 373 784 385 784 c 0
EndSplineSet
Validated: 1
EndChar

StartChar: Cacute
Encoding: 257 262 186
Width: 614
GlyphClass: 2
Flags: HMW
HStem: -14 53<163 193 159 201> 707 53<159 195 150 196>
VStem: -35 92 294 53
LayerCount: 2
Fore
SplineSet
360 198 m 1
 348 128 326 75 295 39 c 0
 264 3 224 -14 177 -14 c 0
 147 -14 121 -6 96 10 c 1
 71 27 50 51 31 84 c 0
 9 121 -7 164 -18 211 c 0
 -29 259 -35 313 -35 373 c 0
 -35 489 -15 581 25 653 c 1
 65 724 116 760 182 760 c 0
 207 760 232 754 260 744 c 0
 288 733 316 717 348 695 c 1
 348 523 l 1
 294 523 l 1
 288 585 276 633 257 662 c 1
 239 692 212 707 178 707 c 0
 138 707 107 678 87 622 c 0
 67 566 56 483 56 373 c 0
 56 263 67 180 87 124 c 0
 107 68 138 39 178 39 c 0
 206 39 230 52 248 79 c 0
 266 106 279 145 287 198 c 1
 360 198 l 1
554 949 m 1
 633 949 l 1
 528 817 l 1
 481 817 l 1
 554 949 l 1
EndSplineSet
Validated: 1
EndChar

StartChar: cacute
Encoding: 258 263 187
Width: 614
GlyphClass: 2
Flags: HMW
HStem: -14 49<247 283 247 290> 497 49<247 280 236 285>
VStem: 61 86<227 305 227 309>
LayerCount: 2
Fore
SplineSet
442 160 m 1
 432 103 411 60 381 30 c 0
 351 0 314 -14 267 -14 c 0
 205 -14 156 11 118 62 c 0
 80 113 61 181 61 266 c 0
 61 351 80 419 118 470 c 0
 156 520 205 546 267 546 c 0
 294 546 320 542 347 535 c 1
 374 527 400 514 427 499 c 1
 427 362 l 1
 384 362 l 1
 378 409 365 443 347 465 c 0
 329 485 303 497 268 497 c 0
 228 497 197 477 177 438 c 0
 157 400 147 343 147 266 c 0
 147 189 157 132 177 93 c 0
 196 54 228 35 268 35 c 0
 299 35 324 46 343 66 c 1
 361 88 375 118 382 160 c 1
 442 160 l 1
317 819 m 1
 396 819 l 1
 259 631 l 1
 213 631 l 1
 317 819 l 1
EndSplineSet
Validated: 1
EndChar

StartChar: Ccaron
Encoding: 259 268 188
Width: 614
GlyphClass: 2
Flags: HMW
HStem: -14 53<145 175 141 184> 707 53<141 177 133 178>
VStem: -52 92 278 53
LayerCount: 2
Fore
SplineSet
343 198 m 1
 331 128 309 75 278 39 c 0
 247 3 208 -14 161 -14 c 0
 131 -14 104 -6 79 10 c 1
 54 27 32 51 13 84 c 0
 -9 121 -25 164 -36 211 c 0
 -47 259 -52 313 -52 373 c 0
 -52 489 -33 581 7 653 c 1
 47 724 99 760 165 760 c 0
 190 760 215 754 243 744 c 0
 271 733 299 717 331 695 c 1
 331 523 l 1
 278 523 l 1
 272 585 259 633 240 662 c 1
 222 692 196 707 162 707 c 0
 122 707 91 678 71 622 c 0
 51 566 40 483 40 373 c 0
 40 263 51 180 71 124 c 0
 91 68 122 39 162 39 c 0
 190 39 212 52 230 79 c 0
 248 106 261 145 269 198 c 1
 343 198 l 1
505 817 m 1
 412 949 l 1
 459 949 l 1
 540 868 l 1
 621 949 l 1
 668 949 l 1
 575 817 l 1
 505 817 l 1
EndSplineSet
Validated: 1
EndChar

StartChar: ccaron
Encoding: 260 269 189
Width: 614
GlyphClass: 2
Flags: HMW
HStem: -14 49<247 283 247 290> 497 49<247 280 236 285>
VStem: 61 86<227 305 227 309>
LayerCount: 2
Fore
SplineSet
442 160 m 1
 432 103 411 60 381 30 c 0
 351 0 314 -14 267 -14 c 0
 205 -14 156 11 118 62 c 0
 80 113 61 181 61 266 c 0
 61 351 80 419 118 470 c 0
 156 520 205 546 267 546 c 0
 294 546 320 542 347 535 c 1
 374 527 400 514 427 499 c 1
 427 362 l 1
 384 362 l 1
 378 409 365 443 347 465 c 0
 329 485 303 497 268 497 c 0
 228 497 197 477 177 438 c 0
 157 400 147 343 147 266 c 0
 147 189 157 132 177 93 c 0
 196 54 228 35 268 35 c 0
 299 35 324 46 343 66 c 1
 361 88 375 118 382 160 c 1
 442 160 l 1
271 631 m 1
 176 819 l 1
 224 819 l 1
 304 689 l 1
 385 819 l 1
 432 819 l 1
 338 631 l 1
 271 631 l 1
EndSplineSet
Validated: 1
EndChar

StartChar: dcroat
Encoding: 261 273 190
Width: 614
GlyphClass: 2
Flags: HMW
HStem: -14 57<215 226> 0 53<409 476 409 476> 488 57<215 226 186 250> 613 53<218 341 218 341 409 476> 758 20G<275 409 409 409>
VStem: 44 81<229 303 229 307> 341 70<53 53 53 83 83 83 240 292 292 324 449 613 667 725 725 725>
LayerCount: 2
Fore
SplineSet
409 53 m 1x7e
 476 53 l 1
 476 0 l 1
 341 0 l 1x7e
 341 83 l 1
 327 50 308 24 288 9 c 0
 268 -6 242 -14 211 -14 c 0xbe
 162 -14 122 11 91 63 c 1
 59 114 44 182 44 266 c 0
 44 349 59 417 90 469 c 1
 122 520 162 546 211 546 c 0
 242 546 268 537 288 522 c 0
 308 507 327 483 341 449 c 1
 341 613 l 1
 218 613 l 1
 218 667 l 1
 341 667 l 1
 341 725 l 1
 275 725 l 1
 275 778 l 1
 409 778 l 1
 409 667 l 1
 476 667 l 1
 476 613 l 1
 409 613 l 1
 409 53 l 1x7e
341 240 m 2
 341 292 l 2
 341 355 331 404 313 438 c 0
 295 472 267 488 232 488 c 0
 196 488 169 470 151 432 c 0
 134 395 125 340 125 266 c 0
 125 192 134 137 151 99 c 0
 169 61 196 43 232 43 c 0xbe
 267 43 295 59 313 93 c 0
 331 127 341 175 341 240 c 2
EndSplineSet
Validated: 1
EndChar

StartChar: Gbreve
Encoding: 262 286 191
Width: 614
GlyphClass: 2
Flags: HMW
HStem: -14 53<209 240 209 249> 288 53<262 332 262 413> 707 53<208 246> 829 67<404 428 404 433>
VStem: 12 92<317 428 317 432> 332 81 341 56
LayerCount: 2
Fore
SplineSet
413 341 m 1xec
 413 62 l 1xec
 387 36 358 17 328 5 c 0
 298 -8 267 -14 232 -14 c 0
 165 -14 112 20 72 91 c 0
 32 162 12 256 12 373 c 0
 12 491 32 584 72 654 c 1
 112 725 166 760 234 760 c 0
 259 760 285 754 312 745 c 0
 339 735 368 720 398 700 c 1
 398 523 l 1
 341 523 l 1xea
 336 585 323 632 305 662 c 0
 287 692 262 707 230 707 c 0
 188 707 156 679 136 624 c 0
 116 569 104 485 104 373 c 0
 104 263 115 180 137 124 c 0
 159 68 189 39 231 39 c 0
 249 39 267 44 283 53 c 0
 300 62 317 77 332 95 c 1
 332 288 l 1
 262 288 l 1
 262 341 l 1
 413 341 l 1xec
291 950 m 1x10
 329 950 l 1
 334 932 344 918 358 909 c 0
 372 900 391 896 416 896 c 0
 441 896 460 900 474 909 c 0
 488 918 498 932 503 950 c 1
 540 950 l 1
 534 911 522 882 500 860 c 0
 478 840 451 829 416 829 c 0
 381 829 353 840 331 860 c 0
 309 880 297 911 291 950 c 1x10
EndSplineSet
Validated: 1
EndChar

StartChar: gbreve
Encoding: 263 287 192
Width: 614
GlyphClass: 2
Flags: HMW
HStem: -227 49<208 238 200 253> -14 57<218 229> 478 53<415 415 415 466> 488 57<218 229 189 253> 660 69<276 303 276 309>
VStem: 49 80 342 74<11 83 83 83 449 478>
LayerCount: 2
Fore
SplineSet
415 478 m 1xe6
 415 11 l 2
 415 -65 399 -124 365 -165 c 0
 331 -207 284 -227 222 -227 c 0
 194 -227 167 -224 141 -218 c 0
 115 -212 91 -201 67 -189 c 1
 67 -78 l 1
 106 -78 l 1
 111 -113 123 -139 140 -154 c 0
 158 -170 184 -178 217 -178 c 0
 260 -178 293 -163 312 -132 c 0
 332 -101 342 -55 342 11 c 2
 342 83 l 1
 328 50 310 24 290 9 c 0
 270 -6 245 -14 214 -14 c 0
 165 -14 126 11 95 63 c 1
 63 114 49 182 49 266 c 0
 49 349 63 417 94 469 c 1
 126 520 165 546 214 546 c 0xd6
 245 546 270 537 290 522 c 0
 310 507 328 483 342 449 c 1
 342 531 l 1
 466 531 l 1
 466 478 l 1
 415 478 l 1xe6
342 292 m 2xe6
 342 355 333 404 315 438 c 0
 297 472 270 488 235 488 c 0
 200 488 173 470 155 432 c 0
 138 395 129 340 129 266 c 0
 129 192 138 137 155 99 c 0
 173 61 200 43 235 43 c 0
 270 43 294 59 313 93 c 0
 332 127 342 175 342 240 c 2
 342 292 l 2xe6
165 804 m 1x08
 202 804 l 1
 205 777 215 758 229 746 c 0
 243 735 262 729 289 729 c 0
 316 729 336 735 350 746 c 0
 364 758 373 777 376 804 c 1
 414 804 l 1
 412 757 401 721 379 696 c 0
 359 672 328 660 289 660 c 0
 250 660 220 672 200 696 c 0
 178 721 167 757 165 804 c 1x08
EndSplineSet
Validated: 1
EndChar

StartChar: Idotaccent
Encoding: 264 304 193
Width: 614
GlyphClass: 2
Flags: HMW
HStem: 0 53<83 199 281 398 83 199> 693 53<83 199 83 398 281 281 281 398> 923 20<276 288>
VStem: 199 81<53 693>
LayerCount: 2
Fore
SplineSet
281 53 m 1
 398 53 l 1
 398 0 l 1
 83 0 l 1
 83 53 l 1
 199 53 l 1
 199 693 l 1
 83 693 l 1
 83 746 l 1
 398 746 l 1
 398 693 l 1
 281 693 l 1
 281 53 l 1
282 943 m 0
 294 943 306 937 315 926 c 0
 324 914 329 900 329 885 c 0
 329 869 325 854 316 843 c 0
 307 832 295 826 282 826 c 0
 269 826 257 832 248 843 c 0
 239 854 236 869 236 885 c 0
 236 900 241 914 250 926 c 0
 259 937 270 943 282 943 c 0
EndSplineSet
Validated: 1
EndChar

StartChar: dotlessi
Encoding: 265 305 194
Width: 614
GlyphClass: 2
Flags: HMW
HStem: 0 53<117 186 260 330 117 186> 478 53<117 186 117 260>
VStem: 186 74<53 478 478 478>
LayerCount: 2
Fore
SplineSet
260 53 m 1
 330 53 l 1
 330 0 l 1
 117 0 l 1
 117 53 l 1
 186 53 l 1
 186 478 l 1
 117 478 l 1
 117 531 l 1
 260 531 l 1
 260 53 l 1
EndSplineSet
Validated: 1
EndChar

StartChar: Lslash
Encoding: 266 321 195
Width: 614
GlyphClass: 2
Flags: HMW
HStem: 0 53<53 122 53 122 53 484> 0 61<193 440 193 484> 693 53<53 122 53 262 193 193 193 262>
VStem: 122 73<61 293 293 293 364 365 435 693> 440 44<61 186 0 186>
LayerCount: 2
Fore
SplineSet
53 0 m 1xb8
 53 53 l 1
 122 53 l 1xb8
 122 293 l 1
 64 237 l 1
 40 283 l 1
 122 364 l 1
 122 693 l 1
 53 693 l 1
 53 746 l 1
 262 746 l 1
 262 693 l 1
 193 693 l 1
 193 435 l 1
 304 548 l 1
 329 502 l 1
 193 365 l 1
 193 61 l 1
 440 61 l 1
 440 186 l 1
 484 186 l 1
 484 0 l 1x78
 53 0 l 1xb8
EndSplineSet
Validated: 1
EndChar

StartChar: lslash
Encoding: 267 322 196
Width: 614
GlyphClass: 2
Flags: HMW
HStem: 0 53<118 188 262 332 118 188> 725 53<118 188 118 262>
VStem: 188 74<53 340 340 340 470 725 725 725>
LayerCount: 2
Fore
SplineSet
262 53 m 1
 332 53 l 1
 332 0 l 1
 118 0 l 1
 118 53 l 1
 188 53 l 1
 188 340 l 1
 134 292 l 1
 109 335 l 1
 188 406 l 1
 188 725 l 1
 118 725 l 1
 118 778 l 1
 262 778 l 1
 262 470 l 1
 321 519 l 1
 345 476 l 1
 262 406 l 1
 262 53 l 1
EndSplineSet
Validated: 1
EndChar

StartChar: OE
Encoding: 268 338 197
Width: 614
GlyphClass: 2
Flags: HMW
HStem: 0 53<189 258 219 258 219 472> 0 61<300 446 300 472> 374 61<300 402 300 402> 685 61<300 443 300 300> 693 53<216 219 219 258>
VStem: 46 48<324 426 324 433> 258 42<61 374 435 685> 402 26<281 374 374 374 435 528 281 528> 443 26<581 685 685 685> 446 26<61 166>
LayerCount: 2
Fore
SplineSet
258 53 m 1xaf
 258 693 l 1
 219 693 l 2
 178 693 148 665 126 611 c 0
 104 556 94 477 94 375 c 0
 94 272 104 191 126 136 c 0
 148 81 178 53 219 53 c 2
 258 53 l 1xaf
472 0 m 1x7740
 216 0 l 2
 163 0 121 32 91 99 c 0
 60 165 46 257 46 375 c 0
 46 492 61 582 91 648 c 0
 121 714 163 746 216 746 c 2xaf40
 468 746 l 1
 468 581 l 1
 443 581 l 1
 443 685 l 1x3780
 300 685 l 1
 300 435 l 1
 402 435 l 1
 402 528 l 1
 428 528 l 1
 428 281 l 1
 402 281 l 1
 402 374 l 1
 300 374 l 1
 300 61 l 1
 446 61 l 1
 446 166 l 1
 472 166 l 1
 472 0 l 1x7740
EndSplineSet
Validated: 1
EndChar

StartChar: oe
Encoding: 269 339 198
Width: 614
GlyphClass: 2
Flags: HMW
HStem: -14 49<154 175 353 375> 256 53<289 426 289 479 289 426> 497 49<154 175 147 177 349 369>
VStem: 42 51<228 304 228 308> 237 51<228 252 252 256 216 304> 426 52<256 309>
LayerCount: 2
Fore
SplineSet
165 35 m 0
 189 35 206 54 218 93 c 0
 230 132 237 190 237 266 c 0
 237 342 230 399 218 438 c 0
 206 477 189 497 165 497 c 0
 141 497 124 477 112 438 c 0
 100 399 94 342 94 266 c 0
 94 190 100 132 112 93 c 0
 124 54 141 35 165 35 c 0
479 256 m 1
 289 256 l 1
 289 252 l 2
 289 180 296 126 308 90 c 0
 321 53 340 35 365 35 c 0
 384 35 401 47 413 67 c 0
 425 89 434 120 439 161 c 1
 474 161 l 1
 467 103 454 59 436 30 c 0
 417 0 392 -14 361 -14 c 0
 341 -14 320 -6 304 10 c 0
 288 26 274 50 262 83 c 1
 251 51 238 26 222 10 c 0
 206 -6 185 -14 165 -14 c 0
 128 -14 99 11 76 62 c 0
 53 113 42 181 42 266 c 0
 42 350 52 419 75 469 c 0
 98 520 128 546 165 546 c 0
 187 546 206 537 222 521 c 0
 238 505 253 481 264 449 c 1
 276 481 289 505 304 521 c 0
 320 537 339 546 358 546 c 0
 397 546 427 521 447 472 c 0
 467 422 478 350 479 256 c 1
426 309 m 1
 425 370 419 418 408 450 c 0
 396 481 380 497 358 497 c 0
 338 497 322 481 310 449 c 0
 298 418 291 370 289 309 c 1
 426 309 l 1
EndSplineSet
Validated: 1
EndChar

StartChar: Scedilla
Encoding: 270 350 199
Width: 614
GlyphClass: 2
Flags: HMW
HStem: -198 60<280 285 273 301> -20 20<291 330 330 330> -14 53<238 274 225 291> 707 53<229 263 217 275>
VStem: 44 78<563 592> 51 46<36 206 206 206> 327 54<-126 -84> 396 80<168 195> 401 45<557 716>
LayerCount: 2
Fore
SplineSet
51 36 m 1x35
 51 206 l 1
 97 206 l 1
 99 149 111 107 136 80 c 0
 161 52 199 39 250 39 c 0
 297 39 333 51 359 75 c 0
 384 98 396 132 396 177 c 0x35
 396 213 387 241 373 260 c 0
 358 279 326 298 278 316 c 2
 199 346 l 2
 142 368 102 394 79 427 c 0
 55 460 44 504 44 560 c 0
 44 623 62 673 98 708 c 0
 134 743 185 760 250 760 c 0
 278 760 307 757 340 749 c 1
 374 742 409 730 446 716 c 1
 446 557 l 1
 401 557 l 1
 396 609 382 648 359 672 c 1
 335 695 299 707 251 707 c 0
 208 707 177 696 154 674 c 0
 132 652 122 622 122 581 c 0x3880
 122 545 130 517 146 497 c 0
 163 477 198 455 252 436 c 2
 325 409 l 2
 379 389 418 363 442 331 c 0
 465 299 476 257 476 204 c 0
 476 132 458 77 421 41 c 0
 384 4 328 -14 255 -14 c 0
 222 -14 189 -10 154 -2 c 0
 120 6 86 20 51 36 c 1x35
330 0 m 1xc2
 347 -22 360 -41 368 -60 c 0
 376 -78 381 -97 381 -113 c 0
 381 -140 373 -161 356 -175 c 1
 340 -190 316 -198 286 -198 c 0
 275 -198 263 -197 252 -195 c 0
 241 -193 228 -189 216 -185 c 1
 216 -120 l 1
 226 -126 237 -130 247 -133 c 1
 257 -135 268 -137 278 -137 c 0
 292 -137 305 -132 314 -124 c 1
 322 -115 327 -103 327 -88 c 0
 327 -79 324 -66 318 -52 c 0
 312 -37 302 -20 291 0 c 1
 330 0 l 1xc2
EndSplineSet
Validated: 5
EndChar

StartChar: scedilla
Encoding: 271 351 200
Width: 614
GlyphClass: 2
Flags: HMW
HStem: -198 60<266 270 257 286> -20 20<277 315 315 315> -14 49<222 249 214 262> 497 49<226 250 213 257>
VStem: 77 43<30 154 154 154> 77 70<403 414> 312 54<-126 -84> 334 76<123 137> 343 43<387 503>
LayerCount: 2
Fore
SplineSet
77 30 m 1x39
 77 154 l 1
 119 154 l 1
 120 114 131 84 149 65 c 0
 167 46 196 35 233 35 c 0
 266 35 291 43 308 58 c 0
 326 73 334 96 334 126 c 0x39
 334 150 327 168 315 182 c 0
 302 196 276 212 235 228 c 2
 182 251 l 1
 145 265 118 283 102 306 c 0
 86 328 77 356 77 390 c 0
 77 438 92 477 120 505 c 0
 149 533 188 546 239 546 c 0
 262 546 285 543 310 535 c 1
 336 528 359 517 386 503 c 1
 386 387 l 1
 343 387 l 1
 342 421 333 449 315 468 c 0
 297 486 272 497 241 497 c 0
 210 497 187 489 171 476 c 1
 156 462 147 442 147 415 c 0x3480
 147 392 153 373 165 360 c 0
 177 347 201 333 237 319 c 2
 295 297 l 2
 335 282 365 263 382 239 c 0
 400 215 409 184 409 147 c 0
 409 97 395 58 364 29 c 0
 333 0 290 -14 236 -14 c 0
 208 -14 182 -11 155 -3 c 0
 128 4 104 15 77 30 c 1x39
315 0 m 1xc2
 332 -22 346 -41 354 -60 c 0
 362 -78 366 -97 366 -113 c 0
 366 -140 357 -161 340 -175 c 1
 324 -190 301 -198 271 -198 c 0
 260 -198 248 -197 237 -195 c 0
 226 -193 212 -189 200 -185 c 1
 200 -120 l 1
 210 -126 223 -130 233 -133 c 1
 243 -135 252 -137 262 -137 c 0
 276 -137 289 -132 298 -124 c 1
 306 -115 312 -103 312 -88 c 0
 312 -79 308 -66 302 -52 c 0
 296 -37 288 -20 277 0 c 1
 315 0 l 1xc2
EndSplineSet
Validated: 5
EndChar

StartChar: Scaron
Encoding: 272 352 201
Width: 614
GlyphClass: 2
Flags: HMW
HStem: -14 53<238 274 225 291> 707 53<229 263 217 275>
VStem: 44 78<563 592> 51 46<36 206 206 206> 396 80<168 195> 401 45<557 716>
LayerCount: 2
Fore
SplineSet
51 36 m 1xd8
 51 206 l 1
 97 206 l 1
 99 149 111 107 136 80 c 0
 161 52 199 39 250 39 c 0
 297 39 333 51 359 75 c 0
 384 98 396 132 396 177 c 0xd8
 396 213 387 241 373 260 c 0
 358 279 326 298 278 316 c 2
 199 346 l 2
 142 368 102 394 79 427 c 0
 55 460 44 504 44 560 c 0
 44 623 62 673 98 708 c 0
 134 743 185 760 250 760 c 0
 278 760 307 757 340 749 c 1
 374 742 409 730 446 716 c 1
 446 557 l 1
 401 557 l 1
 396 609 382 648 359 672 c 1
 335 695 299 707 251 707 c 0
 208 707 177 696 154 674 c 0
 132 652 122 622 122 581 c 0xe4
 122 545 130 517 146 497 c 0
 163 477 198 455 252 436 c 2
 325 409 l 2
 379 389 418 363 442 331 c 0
 465 299 476 257 476 204 c 0
 476 132 458 77 421 41 c 0
 384 4 328 -14 255 -14 c 0
 222 -14 189 -10 154 -2 c 0
 120 6 86 20 51 36 c 1xd8
263 817 m 1x00
 171 949 l 1
 217 949 l 1
 299 868 l 1
 380 949 l 1
 426 949 l 1
 333 817 l 1
 263 817 l 1x00
EndSplineSet
Validated: 1
EndChar

StartChar: scaron
Encoding: 273 353 202
Width: 614
GlyphClass: 2
Flags: HMW
HStem: -14 49<221 248 214 262> 497 49<225 250 213 257>
VStem: 76 43<30 154 154 154> 77 70<403 414> 333 76<123 137> 344 43<387 503>
LayerCount: 2
Fore
SplineSet
76 30 m 1xe8
 76 154 l 1
 118 154 l 1
 119 114 130 84 148 65 c 0
 166 46 195 35 232 35 c 0
 265 35 290 43 307 58 c 0
 325 73 333 96 333 126 c 0xe8
 333 150 327 168 315 182 c 0
 302 196 275 212 234 228 c 2
 181 251 l 1
 144 265 118 283 102 306 c 0
 86 328 77 356 77 390 c 0
 77 438 91 477 119 505 c 0
 148 533 187 546 238 546 c 0
 261 546 284 543 309 535 c 1
 335 528 359 517 386 503 c 1
 386 387 l 1
 344 387 l 1
 343 421 333 449 315 468 c 0
 297 486 272 497 241 497 c 0
 210 497 187 489 171 476 c 1
 156 462 147 442 147 415 c 0xd4
 147 392 153 373 165 360 c 0
 177 347 201 333 237 319 c 2
 295 297 l 2
 335 282 365 263 382 239 c 0
 400 215 409 184 409 147 c 0
 409 97 394 58 363 29 c 0
 332 0 289 -14 235 -14 c 0
 207 -14 182 -11 155 -3 c 0
 128 4 103 15 76 30 c 1xe8
250 631 m 1x00
 155 819 l 1
 201 819 l 1
 282 689 l 1
 364 819 l 1
 410 819 l 1
 316 631 l 1
 250 631 l 1x00
EndSplineSet
Validated: 1
EndChar

StartChar: Ydieresis
Encoding: 274 376 203
Width: 614
GlyphClass: 2
Flags: HMW
HStem: 0 53<173 225 173 225 306 357> 693 53<33 65 33 207 161 161 161 207 371 414 464 464 464 496> 825 117<246 260 246 260 403 415>
VStem: 225 81<53 322 322 322>
LayerCount: 2
Fore
SplineSet
173 0 m 1
 173 53 l 1
 225 53 l 1
 225 322 l 1
 65 693 l 1
 33 693 l 1
 33 746 l 1
 207 746 l 1
 207 693 l 1
 161 693 l 1
 286 391 l 1
 414 693 l 1
 371 693 l 1
 371 746 l 1
 496 746 l 1
 496 693 l 1
 464 693 l 1
 306 331 l 1
 306 53 l 1
 357 53 l 1
 357 0 l 1
 173 0 l 1
254 942 m 0
 266 942 277 936 286 925 c 0
 295 913 300 899 300 884 c 0
 300 868 295 853 287 842 c 0
 278 831 267 825 254 825 c 0
 241 825 229 831 221 842 c 0
 212 853 207 868 207 884 c 0
 207 899 212 913 221 925 c 0
 230 936 241 942 254 942 c 0
409 942 m 0
 422 942 433 936 442 925 c 0
 451 913 455 899 455 884 c 0
 455 868 451 853 442 842 c 0
 434 831 422 825 409 825 c 0
 396 825 384 831 375 842 c 0
 367 853 362 868 362 884 c 0
 362 899 367 913 376 925 c 0
 385 936 397 942 409 942 c 0
EndSplineSet
Validated: 1
EndChar

StartChar: Zcaron
Encoding: 275 381 204
Width: 614
GlyphClass: 2
Flags: HMW
HStem: 0 61<150 425 150 474> 685 61<107 355 107 107>
VStem: 58 49<573 685 573 746> 425 49<61 166 0 166>
LayerCount: 2
Fore
SplineSet
44 0 m 1
 44 36 l 1
 355 685 l 1
 107 685 l 1
 107 573 l 1
 58 573 l 1
 58 746 l 1
 460 746 l 1
 460 711 l 1
 150 61 l 1
 425 61 l 1
 425 166 l 1
 474 166 l 1
 474 0 l 1
 44 0 l 1
300 817 m 1
 208 949 l 1
 254 949 l 1
 335 868 l 1
 417 949 l 1
 463 949 l 1
 371 817 l 1
 300 817 l 1
EndSplineSet
Validated: 1
EndChar

StartChar: zcaron
Encoding: 276 382 205
Width: 614
GlyphClass: 2
Flags: HMW
HStem: 0 53<160 390 160 433> 478 53<120 331 120 120>
VStem: 78 43<386 478 386 531> 390 43<53 150 0 150>
LayerCount: 2
Fore
SplineSet
65 0 m 1
 65 43 l 1
 331 478 l 1
 120 478 l 1
 120 386 l 1
 78 386 l 1
 78 531 l 1
 426 531 l 1
 426 488 l 1
 160 53 l 1
 390 53 l 1
 390 150 l 1
 433 150 l 1
 433 0 l 1
 65 0 l 1
256 631 m 1
 162 819 l 1
 209 819 l 1
 290 689 l 1
 371 819 l 1
 418 819 l 1
 324 631 l 1
 256 631 l 1
EndSplineSet
Validated: 1
EndChar

StartChar: florin
Encoding: 277 402 206
Width: 614
GlyphClass: 2
Flags: HMW
HStem: -216 49<121 140 121 146> 357 53<141 236 141 240 313 427> 711 49<386 406>
VStem: 36 37<-194 -83 -83 -83> 454 37<627 737>
LayerCount: 2
Fore
SplineSet
254 567 m 2
 259 629 274 677 300 711 c 0
 326 744 359 760 401 760 c 0
 414 760 429 758 443 755 c 0
 457 751 474 744 491 737 c 1
 491 627 l 1
 454 627 l 1
 452 656 447 676 438 690 c 0
 429 703 415 711 397 711 c 0
 377 711 362 700 351 676 c 0
 340 652 331 612 326 556 c 2
 313 411 l 1
 427 411 l 1
 427 357 l 1
 307 357 l 1
 273 -24 l 2
 268 -85 252 -133 226 -166 c 0
 200 -200 167 -216 125 -216 c 0
 113 -216 98 -214 84 -211 c 0
 70 -207 53 -201 36 -194 c 1
 36 -83 l 1
 73 -83 l 1
 75 -112 80 -133 89 -146 c 0
 98 -159 113 -167 130 -167 c 0
 150 -167 165 -156 176 -132 c 0
 187 -108 196 -68 201 -12 c 2
 236 357 l 1
 141 357 l 1
 141 411 l 1
 240 411 l 1
 254 567 l 2
EndSplineSet
Validated: 1
EndChar

StartChar: circumflex
Encoding: 278 710 207
Width: 614
GlyphClass: 2
Flags: HW
LayerCount: 2
Fore
SplineSet
197 819 m 1
 264 819 l 1
 358 631 l 1
 311 631 l 1
 230 761 l 1
 150 631 l 1
 102 631 l 1
 197 819 l 1
EndSplineSet
Validated: 1
EndChar

StartChar: caron
Encoding: 279 711 208
Width: 614
GlyphClass: 2
Flags: HW
LayerCount: 2
Fore
SplineSet
197 631 m 1
 102 819 l 1
 150 819 l 1
 230 689 l 1
 311 819 l 1
 358 819 l 1
 264 631 l 1
 197 631 l 1
EndSplineSet
Validated: 1
EndChar

StartChar: breve
Encoding: 280 728 209
Width: 614
GlyphClass: 2
Flags: HMW
HStem: 660 69<216 243 216 249>
LayerCount: 2
Fore
SplineSet
104 804 m 1
 142 804 l 1
 145 777 155 758 169 746 c 0
 183 735 202 729 229 729 c 0
 256 729 276 735 290 746 c 0
 304 758 313 777 316 804 c 1
 354 804 l 1
 352 757 340 721 318 696 c 0
 298 672 268 660 229 660 c 0
 190 660 160 672 140 696 c 0
 118 721 106 757 104 804 c 1
EndSplineSet
Validated: 1
EndChar

StartChar: dotaccent
Encoding: 281 729 210
Width: 614
GlyphClass: 2
Flags: HW
LayerCount: 2
Fore
SplineSet
203 784 m 0
 216 784 227 778 236 767 c 0
 246 756 251 742 251 726 c 0
 251 709 246 695 237 684 c 0
 228 673 217 668 203 668 c 0
 189 668 179 673 170 684 c 0
 161 695 156 709 156 726 c 0
 156 742 161 756 171 767 c 0
 180 778 190 784 203 784 c 0
EndSplineSet
Validated: 1
EndChar

StartChar: ring
Encoding: 282 730 211
Width: 614
GlyphClass: 2
Flags: HMW
HStem: 625 61<216 232 216 240> 838 61<216 232>
VStem: 115 49<752 772 752 781> 285 49<752 772>
LayerCount: 2
Fore
SplineSet
334 762 m 0
 334 724 324 692 302 665 c 0
 280 638 255 625 224 625 c 0
 193 625 168 638 146 665 c 0
 124 692 115 724 115 762 c 0
 115 801 124 832 146 859 c 0
 168 886 193 899 224 899 c 0
 255 899 280 886 302 859 c 0
 324 832 334 801 334 762 c 0
285 762 m 0
 285 784 278 801 267 815 c 0
 255 830 241 838 224 838 c 0
 207 838 192 830 181 816 c 0
 170 801 164 784 164 762 c 0
 164 740 170 722 181 708 c 0
 192 694 207 686 224 686 c 0
 241 686 255 694 267 708 c 1
 278 723 285 740 285 762 c 0
EndSplineSet
Validated: 1
EndChar

StartChar: ogonek
Encoding: 283 731 212
Width: 614
GlyphClass: 2
Flags: HMW
HStem: -197 59<234 237> -20 20G<190 227 227 227>
VStem: 138 54<-125 -78>
LayerCount: 2
Fore
SplineSet
190 0 m 1
 227 0 l 1
 227 -1 l 1
 203 -42 192 -71 192 -86 c 0
 192 -101 196 -114 205 -123 c 0
 214 -132 227 -137 241 -137 c 0
 248 -137 257 -136 264 -134 c 0
 272 -131 279 -128 287 -124 c 1
 287 -187 l 1
 277 -190 269 -193 260 -195 c 0
 251 -196 241 -197 233 -197 c 0
 202 -197 179 -189 162 -174 c 0
 146 -160 138 -139 138 -112 c 0
 138 -96 142 -77 150 -60 c 0
 158 -43 172 -23 190 0 c 1
EndSplineSet
Validated: 1
EndChar

StartChar: tilde
Encoding: 284 732 213
Width: 614
GlyphClass: 2
Flags: HMW
HStem: 654 63<285 293 285 298> 732 63<170 179>
VStem: 100 39<654 654> 325 39<796 796>
LayerCount: 2
Fore
SplineSet
230 685 m 2
 207 713 l 2
 201 721 195 726 190 728 c 1
 186 731 181 732 176 732 c 0
 165 732 156 725 150 713 c 0
 144 700 140 680 139 654 c 1
 100 654 l 1
 101 699 107 734 121 759 c 0
 134 784 152 796 177 796 c 0
 187 796 197 793 205 788 c 0
 214 783 224 776 234 765 c 2
 256 737 l 2
 262 730 268 725 272 722 c 0
 277 719 281 718 287 718 c 0
 298 718 309 725 315 738 c 0
 321 751 324 770 325 796 c 1
 364 796 l 1
 363 751 356 716 342 691 c 0
 329 666 311 654 286 654 c 0
 276 654 266 657 258 662 c 0
 249 667 240 674 230 685 c 2
EndSplineSet
Validated: 1
EndChar

StartChar: hungarumlaut
Encoding: 285 733 214
Width: 614
GlyphClass: 2
Flags: HW
LayerCount: 2
Fore
SplineSet
171 819 m 1
 238 819 l 1
 141 631 l 1
 95 631 l 1
 171 819 l 1
302 819 m 1
 373 819 l 1
 259 631 l 1
 212 631 l 1
 302 819 l 1
EndSplineSet
Validated: 1
EndChar

StartChar: endash
Encoding: 286 8211 215
Width: 614
GlyphClass: 2
Flags: HMW
HStem: 239 67<51 461 51 461>
LayerCount: 2
Fore
SplineSet
51 305 m 1
 461 305 l 1
 461 239 l 1
 51 239 l 1
 51 305 l 1
EndSplineSet
Validated: 1
EndChar

StartChar: emdash
Encoding: 287 8212 216
Width: 614
GlyphClass: 2
Flags: HMW
HStem: 239 67<24 515 24 515>
LayerCount: 2
Fore
SplineSet
24 305 m 1
 515 305 l 1
 515 239 l 1
 24 239 l 1
 24 305 l 1
EndSplineSet
Validated: 1
EndChar

StartChar: quoteleft
Encoding: 288 8216 217
Width: 614
GlyphClass: 2
Flags: HMW
VStem: 143 78<507 537>
LayerCount: 2
Fore
SplineSet
278 720 m 1
 258 698 243 674 234 645 c 1
 224 617 221 582 221 539 c 2
 221 507 l 1
 143 507 l 1
 143 565 151 614 167 654 c 0
 183 694 211 730 247 760 c 1
 278 720 l 1
EndSplineSet
Validated: 1
EndChar

StartChar: quoteright
Encoding: 289 8217 218
Width: 614
GlyphClass: 2
Flags: HMW
HStem: 726 20G<201 279 279 279>
VStem: 201 78<716 746 746 746>
LayerCount: 2
Fore
SplineSet
142 534 m 1
 162 556 178 579 187 608 c 0
 196 637 201 673 201 716 c 2
 201 746 l 1
 279 746 l 1
 278 689 270 640 254 599 c 1
 237 559 210 525 174 494 c 1
 142 534 l 1
EndSplineSet
Validated: 1
EndChar

StartChar: quotesinglbase
Encoding: 290 8218 219
Width: 614
GlyphClass: 2
Flags: HW
LayerCount: 2
Fore
SplineSet
137 -99 m 1
 163 -76 181 -49 193 -18 c 1
 204 14 210 50 210 95 c 2
 210 114 l 1
 289 114 l 1
 287 57 275 7 257 -33 c 0
 238 -74 208 -109 169 -139 c 1
 137 -99 l 1
EndSplineSet
Validated: 1
EndChar

StartChar: quotedblleft
Encoding: 291 8220 220
Width: 614
GlyphClass: 2
Flags: HMW
VStem: 89 78<507 537> 248 78<507 539>
LayerCount: 2
Fore
SplineSet
384 720 m 1
 364 698 348 674 339 645 c 0
 330 617 326 582 326 539 c 2
 326 507 l 1
 248 507 l 1
 249 565 258 614 274 654 c 0
 290 694 317 730 353 760 c 1
 384 720 l 1
226 720 m 1
 206 698 191 674 182 645 c 1
 172 617 167 582 167 539 c 2
 167 507 l 1
 89 507 l 1
 89 565 99 614 115 654 c 0
 131 694 159 730 195 760 c 1
 226 720 l 1
EndSplineSet
Validated: 1
EndChar

StartChar: quotedblright
Encoding: 292 8221 221
Width: 614
GlyphClass: 2
Flags: HMW
HStem: 726 20G<149 227 227 227 307 384 384 384>
VStem: 149 78<716 746 746 746> 307 78<715 746 746 746>
LayerCount: 2
Fore
SplineSet
89 534 m 1
 109 556 125 579 134 608 c 0
 143 637 149 673 149 716 c 2
 149 746 l 1
 227 746 l 1
 226 689 217 640 201 599 c 1
 184 559 156 525 120 494 c 1
 89 534 l 1
248 534 m 1
 268 556 283 579 292 608 c 0
 301 636 307 672 307 715 c 2
 307 746 l 1
 384 746 l 1
 383 688 375 639 359 599 c 0
 342 559 316 525 280 494 c 1
 248 534 l 1
EndSplineSet
Validated: 1
EndChar

StartChar: quotedblbase
Encoding: 293 8222 222
Width: 614
GlyphClass: 2
Flags: HMW
VStem: 315 79<95 114 114 114>
LayerCount: 2
Fore
SplineSet
85 -99 m 1
 111 -76 128 -49 140 -18 c 1
 151 14 157 50 157 95 c 2
 157 114 l 1
 236 114 l 1
 234 57 222 7 204 -33 c 0
 185 -74 155 -109 116 -139 c 1
 85 -99 l 1
242 -99 m 1
 268 -76 287 -49 299 -18 c 1
 310 14 315 50 315 95 c 2
 315 114 l 1
 394 114 l 1
 392 57 381 7 362 -33 c 0
 343 -74 313 -109 274 -139 c 1
 242 -99 l 1
EndSplineSet
Validated: 1
EndChar

StartChar: dagger
Encoding: 294 8224 223
Width: 614
GlyphClass: 2
Flags: HMW
HStem: 726 20G<213 284 284 284>
VStem: 226 44<471 471 471 525>
LayerCount: 2
Fore
SplineSet
213 746 m 1
 284 746 l 1
 271 525 l 1
 431 540 l 1
 431 457 l 1
 271 471 l 1
 284 -98 l 1
 213 -98 l 1
 226 471 l 1
 66 457 l 1
 66 540 l 1
 226 525 l 1
 213 746 l 1
EndSplineSet
Validated: 1
EndChar

StartChar: daggerdbl
Encoding: 295 8225 224
Width: 614
GlyphClass: 2
Flags: HMW
HStem: 726 20G<213 284 284 284>
LayerCount: 2
Fore
SplineSet
213 746 m 1
 284 746 l 1
 271 525 l 1
 431 540 l 1
 431 457 l 1
 271 471 l 1
 284 324 l 1
 271 177 l 1
 431 191 l 1
 431 109 l 1
 271 123 l 1
 284 -98 l 1
 213 -98 l 1
 226 123 l 1
 66 109 l 1
 66 191 l 1
 226 177 l 1
 213 324 l 1
 226 471 l 1
 66 457 l 1
 66 540 l 1
 226 525 l 1
 213 746 l 1
EndSplineSet
Validated: 1
EndChar

StartChar: bullet
Encoding: 296 8226 225
Width: 614
GlyphClass: 2
Flags: HW
LayerCount: 2
Fore
SplineSet
109 381 m 0
 109 422 120 457 143 485 c 0
 166 514 194 528 228 528 c 0
 261 528 288 514 311 485 c 0
 334 457 346 422 346 381 c 0
 346 339 334 304 311 275 c 0
 288 245 260 231 227 231 c 0
 194 231 166 245 143 274 c 0
 120 303 109 339 109 381 c 0
EndSplineSet
Validated: 1
EndChar

StartChar: ellipsis
Encoding: 297 8230 226
Width: 614
GlyphClass: 2
Flags: HMW
HStem: -14 133<85 93 85 93 249 257 413 421>
VStem: 57 63<43 61> 221 63<43 61> 385 63<43 61>
CounterMasks: 1 70
LayerCount: 2
Fore
SplineSet
385 52 m 0
 385 70 388 86 394 99 c 0
 400 112 408 119 417 119 c 0
 426 119 433 112 439 99 c 0
 445 86 449 70 449 52 c 0
 449 34 445 18 439 5 c 0
 433 -8 426 -14 417 -14 c 0
 408 -14 400 -8 394 5 c 1
 388 17 385 34 385 52 c 0
221 52 m 0
 221 70 224 86 230 99 c 0
 236 112 244 119 253 119 c 0
 262 119 269 112 275 99 c 0
 281 86 285 70 285 52 c 0
 285 34 281 18 275 5 c 0
 269 -8 262 -14 253 -14 c 0
 244 -14 236 -8 230 5 c 1
 224 17 221 34 221 52 c 0
57 52 m 0
 57 70 61 86 67 99 c 0
 73 112 80 119 89 119 c 0
 98 119 106 112 112 99 c 0
 118 86 121 70 121 52 c 0
 121 34 118 18 112 5 c 0
 106 -8 98 -14 89 -14 c 0
 80 -14 73 -8 67 5 c 1
 61 17 57 34 57 52 c 0
EndSplineSet
Validated: 1
EndChar

StartChar: guilsinglleft
Encoding: 298 8249 227
Width: 614
GlyphClass: 2
Flags: HW
LayerCount: 2
Fore
SplineSet
313 529 m 1
 313 472 l 1
 195 300 l 1
 313 128 l 1
 313 71 l 1
 125 280 l 1
 125 321 l 1
 313 529 l 1
EndSplineSet
Validated: 1
EndChar

StartChar: guilsinglright
Encoding: 299 8250 228
Width: 614
GlyphClass: 2
Flags: HW
LayerCount: 2
Fore
SplineSet
125 529 m 1
 313 321 l 1
 313 280 l 1
 125 71 l 1
 125 128 l 1
 244 300 l 1
 125 472 l 1
 125 529 l 1
EndSplineSet
Validated: 1
EndChar

StartChar: Euro
Encoding: 300 8364 229
Width: 614
GlyphClass: 2
Flags: HMW
HStem: -14 49<297 328> 269 52<61 112 61 116 44 112 194 194 194 314> 425 52<61 112 44 116 194 365> 711 49<297 319 283 330>
VStem: 112 79<322 324 322 425> 425 40<523 694>
LayerCount: 2
Fore
SplineSet
474 198 m 1
 463 129 444 77 415 40 c 1
 385 4 350 -14 307 -14 c 0
 259 -14 219 11 185 61 c 0
 151 112 127 181 116 269 c 1
 44 269 l 1
 61 322 l 1
 112 322 l 1
 112 327 111 333 111 341 c 0
 110 357 110 368 110 373 c 0
 110 384 110 393 111 401 c 0
 111 409 111 418 112 425 c 1
 44 425 l 1
 61 477 l 1
 116 477 l 1
 127 565 151 634 185 684 c 0
 219 735 259 760 307 760 c 0
 332 760 355 754 381 744 c 0
 406 734 434 718 465 694 c 1
 465 523 l 1
 425 523 l 1
 420 583 408 630 389 662 c 0
 370 695 346 711 315 711 c 0
 281 711 252 690 232 651 c 1
 212 611 199 553 194 477 c 1
 383 477 l 1
 365 425 l 1
 191 425 l 1
 191 420 191 414 191 407 c 0
 190 390 190 378 190 373 c 0
 190 370 190 362 191 351 c 2
 191 322 l 1
 331 322 l 1
 314 269 l 1
 194 269 l 1
 199 192 213 134 233 95 c 0
 253 55 281 35 315 35 c 0
 345 35 367 49 386 77 c 0
 404 105 418 145 424 198 c 1
 474 198 l 1
EndSplineSet
Validated: 1
EndChar

StartChar: trademark
Encoding: 301 8482 230
Width: 614
GlyphClass: 2
Flags: HMW
HStem: 458 33<104 125 153 173 104 125 226 247 264 284 351 372 399 420> 714 33<87 125 87 87 153 189 153 153 226 247 72 226 399 420 399 399>
VStem: 72 15<662 714 662 746> 125 28<490 714 490 714> 189 16<662 714 714 714> 247 17<490 703 490 714 490 714> 372 27<490 703 703 703>
LayerCount: 2
Fore
SplineSet
283 746 m 1
 324 611 l 1
 368 746 l 1
 420 746 l 1
 420 714 l 1
 399 714 l 1
 399 490 l 1
 420 490 l 1
 420 458 l 1
 351 458 l 1
 351 490 l 1
 372 490 l 1
 372 703 l 1
 322 548 l 1
 311 548 l 1
 264 703 l 1
 264 490 l 1
 284 490 l 1
 284 458 l 1
 226 458 l 1
 226 490 l 1
 247 490 l 1
 247 714 l 1
 226 714 l 1
 226 746 l 1
 283 746 l 1
72 746 m 1
 206 746 l 1
 206 662 l 1
 189 662 l 1
 189 714 l 1
 153 714 l 1
 153 490 l 1
 173 490 l 1
 173 458 l 1
 104 458 l 1
 104 490 l 1
 125 490 l 1
 125 714 l 1
 87 714 l 1
 87 662 l 1
 72 662 l 1
 72 746 l 1
EndSplineSet
Validated: 1
EndChar

StartChar: fraction
Encoding: 302 8725 231
Width: 614
GlyphClass: 2
Flags: HMW
HStem: 739 20G<419 479 479 479>
LayerCount: 2
Fore
SplineSet
419 760 m 1
 479 760 l 1
 102 -14 l 1
 42 -14 l 1
 419 760 l 1
EndSplineSet
Validated: 1
EndChar

StartChar: fi
Encoding: 303 64257 232
Width: 614
GlyphClass: 3
Flags: HMW
HStem: 0 53<38 102 168 231 38 102 294 358 424 487> 478 53<38 102 38 102 168 358> 729 49<256 279 241 289>
VStem: 102 67<53 478 53 478 531 580 580 582> 358 67<53 478 478 478> 364 34<643 643>
LayerCount: 2
Fore
SplineSet
398 643 m 1xf4
 364 643 l 1xf4
 363 672 354 694 340 708 c 0
 326 722 305 729 275 729 c 0
 238 729 211 717 194 693 c 0
 177 669 168 633 168 582 c 2
 168 531 l 1
 424 531 l 1
 424 53 l 1
 487 53 l 1
 487 0 l 1
 294 0 l 1
 294 53 l 1
 358 53 l 1
 358 478 l 1xf8
 168 478 l 1
 168 53 l 1
 231 53 l 1
 231 0 l 1
 38 0 l 1
 38 53 l 1
 102 53 l 1
 102 478 l 1
 38 478 l 1
 38 531 l 1
 102 531 l 1
 102 580 l 2
 102 646 116 694 144 728 c 0
 172 761 215 778 269 778 c 0
 289 778 309 776 332 771 c 0
 355 767 376 761 398 752 c 1
 398 643 l 1xf4
EndSplineSet
Validated: 1
Ligature2: "'liga' Standard Ligatures in Latin lookup 0 subtable" f i
EndChar

StartChar: fl
Encoding: 304 64258 233
Width: 614
GlyphClass: 3
Flags: HMW
HStem: 0 53<40 104 169 233 40 104 290 354 420 483> 478 53<40 104 40 104 169 276> 725 53<257 420 277 354>
VStem: 104 67<53 478 53 478 531 580 580 582> 354 67<53 725 725 725>
LayerCount: 2
Fore
SplineSet
277 778 m 2
 420 778 l 1
 420 53 l 1
 483 53 l 1
 483 0 l 1
 290 0 l 1
 290 53 l 1
 354 53 l 1
 354 725 l 1
 277 725 l 2
 238 725 209 714 194 692 c 0
 178 670 169 634 169 582 c 2
 169 531 l 1
 276 531 l 1
 276 478 l 1
 169 478 l 1
 169 53 l 1
 233 53 l 1
 233 0 l 1
 40 0 l 1
 40 53 l 1
 104 53 l 1
 104 478 l 1
 40 478 l 1
 40 531 l 1
 104 531 l 1
 104 580 l 2
 104 647 118 696 146 729 c 0
 175 762 218 778 277 778 c 2
EndSplineSet
Validated: 1
Ligature2: "'liga' Standard Ligatures in Latin lookup 0 subtable" f l
EndChar

StartChar: c6459
Encoding: 307 -1 236
Width: 614
GlyphClass: 2
Flags: HMW
HStem: 639 117<145 158 145 158 301 313>
LayerCount: 2
Fore
SplineSet
152 756 m 0
 164 756 175 749 184 738 c 0
 193 726 199 712 199 697 c 0
 199 681 193 666 185 655 c 0
 176 644 165 639 152 639 c 0
 139 639 127 644 119 655 c 0
 110 666 104 681 104 697 c 0
 104 712 110 726 119 738 c 0
 128 749 139 756 152 756 c 0
307 756 m 0
 320 756 331 749 340 738 c 0
 349 726 354 712 354 697 c 0
 354 681 349 666 340 655 c 0
 332 644 320 639 307 639 c 0
 294 639 282 644 273 655 c 0
 265 666 260 681 260 697 c 0
 260 712 265 726 274 738 c 0
 283 749 295 756 307 756 c 0
EndSplineSet
Validated: 1
EndChar

StartChar: c6460
Encoding: 308 -1 237
Width: 614
GlyphClass: 2
Flags: HW
LayerCount: 2
Fore
SplineSet
210 763 m 1
 289 763 l 1
 184 631 l 1
 137 631 l 1
 210 763 l 1
EndSplineSet
Validated: 1
EndChar

StartChar: c6461
Encoding: 309 -1 238
Width: 614
GlyphClass: 2
Flags: HMW
HStem: 647 58<287 295 287 297> 698 58<170 179>
VStem: 100 39<647 647> 325 39<749 757>
LayerCount: 2
Fore
SplineSet
227 671 m 1xb0
 207 685 l 2
 202 689 197 692 191 695 c 0
 186 697 181 698 176 698 c 0x70
 166 698 157 693 150 684 c 0
 144 675 140 662 139 647 c 1
 100 647 l 1xb0
 101 681 107 708 121 727 c 0
 134 746 152 757 175 757 c 0x70
 185 757 194 755 202 752 c 0
 210 749 223 742 237 732 c 2
 256 719 l 2
 262 715 269 712 275 709 c 0
 281 707 285 706 290 706 c 0xb0
 300 706 310 710 316 719 c 0
 322 728 325 741 325 757 c 1
 364 757 l 1x70
 363 722 356 694 342 676 c 0
 328 657 310 647 284 647 c 0
 266 647 248 655 229 670 c 1
 227 671 l 1xb0
EndSplineSet
Validated: 1
EndChar

StartChar: c6462
Encoding: 310 -1 239
Width: 614
GlyphClass: 2
Flags: HW
LayerCount: 2
Fore
SplineSet
216 763 m 1
 289 631 l 1
 242 631 l 1
 137 763 l 1
 216 763 l 1
EndSplineSet
Validated: 1
EndChar

StartChar: c6463
Encoding: 311 -1 240
Width: 614
GlyphClass: 2
Flags: HW
LayerCount: 2
Fore
SplineSet
196 763 m 1
 265 763 l 1
 358 631 l 1
 311 631 l 1
 230 712 l 1
 150 631 l 1
 102 631 l 1
 196 763 l 1
EndSplineSet
Validated: 1
EndChar

StartChar: c6466
Encoding: 312 -1 241
Width: 614
GlyphClass: 2
Flags: HW
LayerCount: 2
Fore
SplineSet
196 631 m 1
 102 763 l 1
 150 763 l 1
 230 682 l 1
 311 763 l 1
 358 763 l 1
 265 631 l 1
 196 631 l 1
EndSplineSet
Validated: 1
EndChar

StartChar: c6468
Encoding: 313 -1 242
Width: 614
GlyphClass: 2
Flags: HMW
HStem: 643 67<217 242 217 247>
LayerCount: 2
Fore
SplineSet
104 764 m 1
 142 764 l 1
 147 746 157 732 171 723 c 0
 185 714 204 710 229 710 c 0
 254 710 274 714 288 723 c 0
 302 732 311 746 316 764 c 1
 354 764 l 1
 348 725 335 696 313 674 c 0
 291 654 264 643 229 643 c 0
 194 643 167 654 145 674 c 0
 123 694 110 725 104 764 c 1
EndSplineSet
Validated: 1
EndChar

StartChar: c6469
Encoding: 314 -1 243
Width: 614
GlyphClass: 2
Flags: HMW
HStem: 736 20G<197 210>
LayerCount: 2
Fore
SplineSet
203 757 m 0
 215 757 227 750 236 739 c 0
 245 727 251 713 251 698 c 0
 251 682 246 667 237 656 c 0
 228 645 216 640 203 640 c 0
 190 640 179 645 170 656 c 0
 161 667 156 682 156 698 c 0
 156 713 162 727 171 739 c 0
 180 750 191 757 203 757 c 0
EndSplineSet
Validated: 1
EndChar

StartChar: uni0001
Encoding: 1 1 245
Width: 614
Flags: HW
HStem: -14 57<218 229> 0 53<415 466 415 466> 488 57<218 229 189 253> 758 20G<293 415 415 415>
VStem: 49 80 342 74<449 725 725 725>
LayerCount: 2
Fore
SplineSet
415 53 m 1x7c
 466 53 l 1
 466 0 l 1
 342 0 l 1x7c
 342 83 l 1
 328 50 310 24 290 9 c 0
 270 -6 245 -14 214 -14 c 0xbc
 165 -14 126 11 95 63 c 1
 63 114 49 182 49 266 c 0
 49 349 63 417 94 469 c 1
 126 520 165 546 214 546 c 0
 245 546 270 537 290 522 c 0
 310 507 328 483 342 449 c 1
 342 725 l 1
 293 725 l 1
 293 778 l 1
 415 778 l 1
 415 53 l 1x7c
342 240 m 2
 342 292 l 2
 342 355 332 404 314 438 c 0
 296 472 270 488 235 488 c 0
 200 488 173 470 155 432 c 0
 138 395 129 340 129 266 c 0
 129 192 138 137 155 99 c 0
 173 61 200 43 235 43 c 0xbc
 270 43 296 59 314 93 c 0
 332 127 342 175 342 240 c 2
EndSplineSet
Validated: 1
EndChar

StartChar: uni0002
Encoding: 2 2 246
Width: 614
Flags: HW
HStem: 0 53<71 138 211 296 71 138> 478 68<333 334> 479 52<67 138 67 211>
VStem: 138 74<53 296 437 479 479 479>
LayerCount: 2
Fore
SplineSet
429 532 m 1xd0
 429 399 l 1
 386 399 l 1
 385 426 379 446 369 459 c 1
 359 471 344 478 324 478 c 0xd0
 288 478 259 462 240 431 c 1
 222 399 211 354 211 296 c 2
 211 53 l 1
 296 53 l 1
 296 0 l 1
 71 0 l 1
 71 53 l 1
 138 53 l 1
 138 479 l 1
 67 479 l 1
 67 531 l 1
 211 531 l 1xb0
 211 437 l 1
 225 474 244 502 267 519 c 0
 290 536 317 546 350 546 c 0
 362 546 374 545 387 543 c 0
 400 541 415 536 429 532 c 1xd0
EndSplineSet
Validated: 1
EndChar

StartChar: uni0003
Encoding: 3 3 247
Width: 614
Flags: HW
HStem: 0 53<34 59 133 156 306 329 478 504> 478 68<197 208>
VStem: 59 74<53 296 296 352 437 479 53 296> 232 68 232 74<0 296 53 296 296 331> 299 6 404 74<53 328 0 338>
LayerCount: 2
Fore
SplineSet
232 0 m 1xea
 329 0 l 1
 329 53 l 1
 306 53 l 1xea
 306 296 l 2xe6
 306 409 329 478 364 478 c 0
 397 478 404 450 404 328 c 2
 404 0 l 1
 504 0 l 1
 504 53 l 1
 478 53 l 1
 478 338 l 2
 478 492 456 545 388 546 c 0
 339 547 300 477 299 428 c 1
 297 494 272 546 221 546 c 0
 172 546 143 504 133 437 c 1
 133 531 l 1
 30 531 l 1
 30 479 l 1
 59 479 l 1
 59 53 l 1
 34 53 l 1
 34 0 l 1
 156 0 l 1
 156 53 l 1
 133 53 l 1
 133 296 l 2
 133 409 156 478 191 478 c 0
 224 478 232 453 232 331 c 2xf2
 232 0 l 1xea
EndSplineSet
Validated: 41
EndChar

StartChar: uni0004
Encoding: 4 4 248
Width: 614
Flags: HW
HStem: 0 53<84 170 244 363 84 170> 478 53<70 170 70 170 244 404> 729 49<305 326 293 330>
VStem: 170 74<53 478 53 478 531 598 598 600>
LayerCount: 2
Fore
SplineSet
423 652 m 1
 384 652 l 1
 383 678 378 697 367 710 c 0
 357 723 341 729 319 729 c 0
 292 729 271 719 260 700 c 0
 250 682 244 648 244 600 c 2
 244 531 l 1
 404 531 l 1
 404 478 l 1
 244 478 l 1
 244 53 l 1
 363 53 l 1
 363 0 l 1
 84 0 l 1
 84 53 l 1
 170 53 l 1
 170 478 l 1
 70 478 l 1
 70 531 l 1
 170 531 l 1
 170 598 l 2
 170 657 182 702 207 732 c 0
 232 763 270 778 317 778 c 0
 335 778 352 776 370 772 c 0
 388 768 406 762 423 754 c 1
 423 652 l 1
EndSplineSet
Validated: 1
EndChar

StartChar: uni0005
Encoding: 5 5 249
Width: 614
Flags: HW
HStem: -14 49<222 249 214 262> 497 49<226 250 213 257>
VStem: 77 43<30 154 154 154> 77 70<403 414> 334 76<123 137> 343 43<387 503>
LayerCount: 2
Fore
SplineSet
77 30 m 1xe8
 77 154 l 1
 119 154 l 1
 120 114 131 84 149 65 c 0
 167 46 196 35 233 35 c 0
 266 35 291 43 308 58 c 0
 326 73 334 96 334 126 c 0xe8
 334 150 327 168 315 182 c 0
 302 196 276 212 235 228 c 2
 182 251 l 1
 145 265 118 283 102 306 c 0
 86 328 77 356 77 390 c 0
 77 438 92 477 120 505 c 0
 149 533 188 546 239 546 c 0
 262 546 285 543 310 535 c 1
 336 528 359 517 386 503 c 1
 386 387 l 1
 343 387 l 1
 342 421 333 449 315 468 c 0
 297 486 272 497 241 497 c 0
 210 497 187 489 171 476 c 1
 156 462 147 442 147 415 c 0xd4
 147 392 153 373 165 360 c 0
 177 347 201 333 237 319 c 2
 295 297 l 2
 335 282 365 263 382 239 c 0
 400 215 409 184 409 147 c 0
 409 97 395 58 364 29 c 0
 333 0 290 -14 236 -14 c 0
 208 -14 182 -11 155 -3 c 0
 128 4 104 15 77 30 c 1xe8
EndSplineSet
Validated: 1
EndChar

StartChar: uni0006
Encoding: 6 6 250
Width: 614
Flags: HW
HStem: 0 53<79 205 279 406 79 205> 725 53<103 205 103 279>
VStem: 205 74<53 725 725 725>
LayerCount: 2
Fore
SplineSet
279 53 m 1
 406 53 l 1
 406 0 l 1
 79 0 l 1
 79 53 l 1
 205 53 l 1
 205 725 l 1
 103 725 l 1
 103 778 l 1
 279 778 l 1
 279 53 l 1
EndSplineSet
Validated: 1
EndChar

StartChar: uni0007
Encoding: 7 7 251
Width: 614
Flags: HW
HStem: -14 49<297 315 297 318> 478 53<70 183 70 183 257 424>
VStem: 183 74<140 478 531 696> 361 55<109 125>
LayerCount: 2
Fore
SplineSet
183 478 m 1
 70 478 l 1
 70 531 l 1
 183 531 l 1
 183 696 l 1
 257 696 l 1
 257 531 l 1
 424 531 l 1
 424 478 l 1
 257 478 l 1
 257 140 l 2
 257 95 260 66 267 54 c 1
 273 41 288 35 306 35 c 0
 324 35 339 42 348 56 c 0
 357 70 361 93 361 125 c 1
 418 125 l 1
 416 77 405 41 386 19 c 1
 368 -4 339 -14 300 -14 c 0
 257 -14 228 -4 210 20 c 0
 193 44 183 84 183 140 c 2
 183 478 l 1
EndSplineSet
Validated: 1
EndChar

StartChar: uni0008
Encoding: 8 8 252
Width: 614
Flags: HW
HStem: -14 53<220 221> 0 53<412 457 412 457> 280 53<234 243 243 338> 497 49<219 244>
VStem: 53 82<141 180 141 186> 338 74<53 57 57 57 167 280 280 280 53 370 53 389>
LayerCount: 2
Fore
SplineSet
338 167 m 2xbc
 338 280 l 1
 243 280 l 2
 207 280 179 269 162 250 c 0
 144 231 135 200 135 160 c 0
 135 123 144 94 162 72 c 0
 180 50 205 39 236 39 c 0
 267 39 292 51 310 75 c 0
 328 99 338 129 338 167 c 2xbc
412 332 m 2
 412 53 l 1
 457 53 l 1
 457 0 l 1
 338 0 l 1x7c
 338 57 l 1
 322 32 304 14 282 3 c 0
 260 -8 236 -14 207 -14 c 0
 160 -14 122 1 95 33 c 1
 67 64 53 107 53 160 c 0
 53 214 68 257 100 288 c 0
 132 318 176 333 234 333 c 2
 338 333 l 1
 338 370 l 2
 338 410 327 441 308 463 c 0
 289 486 262 497 226 497 c 0
 196 497 174 488 157 471 c 0
 140 455 128 430 124 397 c 1
 86 397 l 1
 86 505 l 1
 112 519 136 530 161 536 c 1
 185 543 207 546 230 546 c 0
 289 546 335 528 366 492 c 0
 397 455 412 402 412 332 c 2
EndSplineSet
Validated: 1
EndChar

StartChar: uni0009
Encoding: 9 9 253
Width: 614
Flags: HW
HStem: -14 49<247 284 247 286> 256 53<139 370 139 457 139 370> 497 49<239 273>
VStem: 53 86<223 252 252 256 216 308>
LayerCount: 2
Fore
SplineSet
457 256 m 1
 139 256 l 1
 139 252 l 2
 139 180 149 126 171 90 c 0
 194 53 225 35 267 35 c 0
 299 35 327 47 347 67 c 0
 367 89 382 120 390 161 c 1
 450 161 l 1
 439 103 415 59 384 30 c 0
 352 0 311 -14 260 -14 c 0
 198 -14 148 11 110 62 c 0
 72 113 53 181 53 266 c 0
 53 350 72 418 110 469 c 0
 147 520 195 546 255 546 c 0
 318 546 368 521 403 472 c 0
 438 422 455 350 457 256 c 1
370 309 m 1
 368 370 357 418 339 450 c 1
 320 481 291 497 255 497 c 0
 221 497 194 481 175 449 c 0
 156 418 143 370 139 309 c 1
 370 309 l 1
EndSplineSet
Validated: 1
EndChar

